<svg width="362" height="78" viewBox="0 0 362 78" fill="none" xmlns="http://www.w3.org/2000/svg">
<rect width="362" height="78" rx="39" fill="#ECE2D3"/>
<path d="M76.84 32.48C76.7233 31.5933 76.4433 30.8233 76 30.17C75.09 28.77 73.585 28.07 71.485 28.07C69.735 28.07 68.4633 28.4667 67.67 29.26C66.9467 30.0067 66.585 31.0217 66.585 32.305C66.585 33.7283 66.9817 34.7083 67.775 35.245C68.5683 35.7817 69.6767 36.1083 71.1 36.225C72.4533 36.3417 73.5967 36.5283 74.53 36.785C75.4633 37.0183 76.245 37.345 76.875 37.765C78.5317 38.7917 79.36 40.4017 79.36 42.595C79.36 43.4583 79.185 44.275 78.835 45.045C78.5083 45.815 78.03 46.5033 77.4 47.11C75.9767 48.51 74.0283 49.21 71.555 49.21C69.0583 49.21 67.0867 48.5217 65.64 47.145C64.4033 46.0017 63.6567 44.4617 63.4 42.525H65.815C66.025 43.6917 66.515 44.6483 67.285 45.395C68.2883 46.3283 69.7233 46.795 71.59 46.795C73.1767 46.795 74.46 46.41 75.44 45.64C76.4433 44.8467 76.945 43.8317 76.945 42.595C76.945 41.8017 76.7817 41.1483 76.455 40.635C76.1517 40.0983 75.5567 39.6667 74.67 39.34C73.7833 39.0133 72.5233 38.78 70.89 38.64C66.41 38.2433 64.17 36.1317 64.17 32.305C64.17 31.3483 64.3217 30.4733 64.625 29.68C64.9517 28.8633 65.4067 28.1633 65.99 27.58C67.2733 26.2967 69.0933 25.655 71.45 25.655H71.485C73.8883 25.6783 75.72 26.3433 76.98 27.65C78.2633 28.9333 79.0217 30.555 79.255 32.515H76.84V32.48ZM89.4796 31.36C90.7396 31.36 91.8946 31.675 92.9446 32.305C94.018 32.9117 94.858 33.7517 95.4646 34.825C96.0946 35.875 96.4096 37.03 96.4096 38.29V49H93.9946V38.29C93.9946 37.4733 93.7846 36.715 93.3646 36.015C92.968 35.315 92.4196 34.7667 91.7196 34.37C91.043 33.95 90.2963 33.74 89.4796 33.74C88.663 33.74 87.9046 33.95 87.2046 34.37C86.5046 34.7667 85.9446 35.315 85.5246 36.015C85.128 36.715 84.9296 37.4733 84.9296 38.29V49H82.5146V25.655H84.9296V33.32C85.4896 32.6667 86.1546 32.1767 86.9246 31.85C87.718 31.5233 88.5696 31.36 89.4796 31.36ZM108.417 49.175C106.83 49.175 105.349 48.7783 103.972 47.985C102.619 47.1917 101.545 46.1183 100.752 44.765C99.9588 43.3883 99.5621 41.9067 99.5621 40.32C99.5621 38.71 99.9588 37.2283 100.752 35.875C101.545 34.4983 102.619 33.4133 103.972 32.62C105.349 31.8033 106.83 31.395 108.417 31.395C110.027 31.395 111.509 31.8033 112.862 32.62C114.239 33.4133 115.324 34.4983 116.117 35.875C116.934 37.2283 117.342 38.71 117.342 40.32C117.342 41.9067 116.934 43.3883 116.117 44.765C115.324 46.1183 114.239 47.1917 112.862 47.985C111.509 48.7783 110.027 49.175 108.417 49.175ZM108.417 46.83C109.607 46.83 110.692 46.5383 111.672 45.955C112.675 45.3717 113.469 44.5783 114.052 43.575C114.635 42.5717 114.927 41.4867 114.927 40.32C114.927 39.13 114.635 38.0333 114.052 37.03C113.469 36.0267 112.675 35.2333 111.672 34.65C110.692 34.0667 109.607 33.775 108.417 33.775C107.25 33.775 106.165 34.0667 105.162 34.65C104.182 35.2333 103.4 36.0267 102.817 37.03C102.234 38.0333 101.942 39.13 101.942 40.32C101.942 41.4867 102.234 42.5717 102.817 43.575C103.4 44.5783 104.182 45.3717 105.162 45.955C106.165 46.5383 107.25 46.83 108.417 46.83ZM120.488 56.455V31.955H122.868V34.86C123.685 33.7167 124.642 32.865 125.738 32.305C126.835 31.7217 128.037 31.43 129.343 31.43C130.93 31.43 132.4 31.8267 133.753 32.62C135.107 33.4133 136.18 34.4867 136.973 35.84C137.767 37.1933 138.163 38.6633 138.163 40.25C138.163 41.8367 137.767 43.3067 136.973 44.66C136.18 46.0133 135.107 47.0867 133.753 47.88C132.4 48.6733 130.93 49.07 129.343 49.07C127.687 49.07 126.322 48.7317 125.248 48.055C124.175 47.355 123.382 46.6083 122.868 45.815V56.455H120.488ZM129.343 33.845C128.177 33.845 127.103 34.1367 126.123 34.72C125.143 35.28 124.362 36.05 123.778 37.03C123.195 38.01 122.903 39.0833 122.903 40.25C122.903 41.4167 123.195 42.49 123.778 43.47C124.362 44.45 125.143 45.2317 126.123 45.815C127.103 46.3983 128.177 46.69 129.343 46.69C130.51 46.69 131.583 46.3983 132.563 45.815C133.543 45.2317 134.313 44.45 134.873 43.47C135.457 42.49 135.748 41.4167 135.748 40.25C135.748 39.0833 135.457 38.01 134.873 37.03C134.313 36.05 133.543 35.28 132.563 34.72C131.583 34.1367 130.51 33.845 129.343 33.845ZM163.991 31.5C165.251 31.5 166.406 31.815 167.456 32.445C168.529 33.0517 169.381 33.8917 170.011 34.965C170.641 36.015 170.956 37.17 170.956 38.43V49H168.541V38.43C168.541 37.6133 168.331 36.8667 167.911 36.19C167.514 35.49 166.966 34.9417 166.266 34.545C165.566 34.125 164.807 33.915 163.991 33.915C163.174 33.915 162.416 34.125 161.716 34.545C161.016 34.9417 160.456 35.49 160.036 36.19C159.639 36.8667 159.441 37.6133 159.441 38.43V49H157.061V31.955H159.441V33.495C160.024 32.8417 160.701 32.3517 161.471 32.025C162.264 31.675 163.104 31.5 163.991 31.5ZM182.621 49.175C181.035 49.175 179.553 48.7783 178.176 47.985C176.823 47.1917 175.75 46.1183 174.956 44.765C174.163 43.3883 173.766 41.9067 173.766 40.32C173.766 38.71 174.163 37.2283 174.956 35.875C175.75 34.4983 176.823 33.4133 178.176 32.62C179.553 31.8033 181.035 31.395 182.621 31.395C184.231 31.395 185.713 31.8033 187.066 32.62C188.443 33.4133 189.528 34.4983 190.321 35.875C191.138 37.2283 191.546 38.71 191.546 40.32C191.546 41.9067 191.138 43.3883 190.321 44.765C189.528 46.1183 188.443 47.1917 187.066 47.985C185.713 48.7783 184.231 49.175 182.621 49.175ZM182.621 46.83C183.811 46.83 184.896 46.5383 185.876 45.955C186.88 45.3717 187.673 44.5783 188.256 43.575C188.84 42.5717 189.131 41.4867 189.131 40.32C189.131 39.13 188.84 38.0333 188.256 37.03C187.673 36.0267 186.88 35.2333 185.876 34.65C184.896 34.0667 183.811 33.775 182.621 33.775C181.455 33.775 180.37 34.0667 179.366 34.65C178.386 35.2333 177.605 36.0267 177.021 37.03C176.438 38.0333 176.146 39.13 176.146 40.32C176.146 41.4867 176.438 42.5717 177.021 43.575C177.605 44.5783 178.386 45.3717 179.366 45.955C180.37 46.5383 181.455 46.83 182.621 46.83ZM219.051 31.5L212.156 49H209.636L206.031 39.935L202.426 49H199.906L192.941 31.5H195.531L201.166 45.675L204.736 36.715L202.671 31.5H205.261L210.896 45.675L216.496 31.5H219.051ZM222.417 43.89V25.725H224.797V43.89H222.417ZM223.572 49.14C223.199 49.14 222.872 49 222.592 48.72C222.335 48.44 222.207 48.1133 222.207 47.74C222.207 47.3667 222.335 47.04 222.592 46.76C222.872 46.48 223.199 46.34 223.572 46.34C223.969 46.34 224.295 46.48 224.552 46.76C224.832 47.0167 224.972 47.3433 224.972 47.74C224.972 48.1133 224.832 48.44 224.552 48.72C224.295 49 223.969 49.14 223.572 49.14Z" fill="black"/>
<path d="M316.23 47.23L318 49L328 39L318 29L316.23 30.77L324.46 39L316.23 47.23Z" fill="black"/>
</svg>
