<svg width="128" height="128" viewBox="0 0 128 128" fill="none" xmlns="http://www.w3.org/2000/svg">
<path d="M76 -3.05176e-05C77.2641 -0.00645447 78.5001 0.373085 79.5428 1.08785C80.5854 1.80262 81.3851 2.81858 81.835 3.99997L91.795 29.9C91.9967 30.4219 92.3053 30.8959 92.701 31.2915C93.0966 31.6872 93.5706 31.9957 94.0925 32.1975L120 42.165C121.18 42.6179 122.195 43.4181 122.911 44.4598C123.627 45.5015 124.011 46.7359 124.011 48C124.011 49.264 123.627 50.4984 122.911 51.5401C122.195 52.5819 121.18 53.382 120 53.835L94.1 63.795C93.5781 63.9967 93.1041 64.3053 92.7085 64.7009C92.3128 65.0966 92.0042 65.5706 91.8025 66.0925L81.835 92C81.3821 93.1801 80.5819 94.1952 79.5402 94.9112C78.4984 95.6272 77.2641 96.0105 76 96.0105C74.7359 96.0105 73.5016 95.6272 72.4598 94.9112C71.4181 94.1952 70.6179 93.1801 70.165 92L60.205 66.1C60.0033 65.5781 59.6947 65.1041 59.299 64.7084C58.9034 64.3128 58.4294 64.0042 57.9075 63.8025L32.1575 53.895C30.9293 53.4397 29.8712 52.6171 29.1273 51.539C28.3834 50.4609 27.9898 49.1798 28 47.87C28.0191 46.6279 28.4105 45.4201 29.1237 44.403C29.8368 43.3859 30.8388 42.6063 32 42.165L57.9 32.205C58.4219 32.0032 58.8959 31.6947 59.2915 31.299C59.6872 30.9034 59.9958 30.4294 60.1975 29.9075L70.165 3.99997C70.6149 2.81858 71.4146 1.80262 72.4572 1.08785C73.4999 0.373085 74.7359 -0.00645447 76 -3.05176e-05ZM106 84C106.741 84 107.465 84.2246 108.076 84.6441C108.687 85.0636 109.156 85.6583 109.422 86.35L113.637 97.31C113.729 97.5497 113.87 97.7673 114.051 97.9487C114.233 98.1301 114.45 98.2711 114.69 98.3625L125.65 102.577C126.342 102.844 126.936 103.313 127.356 103.924C127.775 104.535 128 105.259 128 106C128 106.741 127.775 107.465 127.356 108.076C126.936 108.687 126.342 109.156 125.65 109.422L114.69 113.637C114.451 113.729 114.233 113.87 114.052 114.052C113.87 114.233 113.729 114.45 113.637 114.69L109.46 125.552C109.224 126.192 108.819 126.755 108.287 127.182C107.756 127.608 107.118 127.881 106.442 127.972C105.632 128.071 104.811 127.896 104.111 127.475C103.411 127.055 102.871 126.412 102.577 125.65L98.3625 114.69C98.2707 114.45 98.1296 114.233 97.9483 114.052C97.7669 113.87 97.5495 113.729 97.31 113.637L86.35 109.422C85.6584 109.156 85.0638 108.687 84.6444 108.076C84.225 107.465 84.0005 106.741 84.0005 106C84.0005 105.259 84.225 104.535 84.6444 103.924C85.0638 103.313 85.6584 102.844 86.35 102.577L97.31 98.3625C97.5497 98.2711 97.7674 98.1301 97.9488 97.9487C98.1301 97.7673 98.2711 97.5497 98.3625 97.31L102.577 86.35C102.844 85.6583 103.313 85.0636 103.924 84.6441C104.535 84.2246 105.259 84 106 84ZM28 64C28.8085 64.0002 29.5979 64.2454 30.2642 64.7033C30.9305 65.1612 31.4425 65.8103 31.7325 66.565L37.4425 81.4075C37.5429 81.669 37.6972 81.9065 37.8953 82.1046C38.0934 82.3027 38.331 82.457 38.5925 82.5575L53.435 88.2675C54.1891 88.558 54.8374 89.0702 55.2947 89.7364C55.752 90.4027 55.9968 91.1919 55.9968 92C55.9968 92.8081 55.752 93.5972 55.2947 94.2635C54.8374 94.9298 54.1891 95.4419 53.435 95.7325L38.5925 101.442C38.331 101.543 38.0934 101.697 37.8953 101.895C37.6972 102.093 37.5429 102.331 37.4425 102.592L31.775 117.33C31.5163 118.027 31.0735 118.641 30.4937 119.106C29.9139 119.571 29.2189 119.871 28.4825 119.972C27.5976 120.08 26.7024 119.888 25.9387 119.428C25.1751 118.969 24.5869 118.267 24.2675 117.435L18.5575 102.592C18.4571 102.331 18.3028 102.093 18.1047 101.895C17.9066 101.697 17.669 101.543 17.4075 101.442L2.565 95.7325C1.81094 95.4419 1.16256 94.9298 0.705269 94.2635C0.247978 93.5972 0.00321198 92.8081 0.00321198 92C0.00321198 91.1919 0.247978 90.4027 0.705269 89.7364C1.16256 89.0702 1.81094 88.558 2.565 88.2675L17.4075 82.5575C17.669 82.457 17.9066 82.3027 18.1047 82.1046C18.3028 81.9065 18.4571 81.669 18.5575 81.4075L24.2675 66.565C24.5575 65.8103 25.0695 65.1612 25.7358 64.7033C26.4021 64.2454 27.1915 64.0002 28 64Z" fill="#CCB27F"/>
</svg>
