<svg width="169" height="169" viewBox="0 0 169 169" fill="none" xmlns="http://www.w3.org/2000/svg">
<path d="M68.6562 169C66.9872 169.008 65.3553 168.507 63.9787 167.564C62.602 166.62 61.5462 165.278 60.9522 163.719L47.8019 129.523C47.5356 128.834 47.1281 128.208 46.6057 127.685C46.0834 127.163 45.4576 126.756 44.7685 126.489L10.5625 113.329C9.00433 112.731 7.66413 111.674 6.71878 110.299C5.77342 108.924 5.26735 107.294 5.26735 105.625C5.26735 103.956 5.77342 102.326 6.71878 100.951C7.66413 99.5754 9.00433 98.5189 10.5625 97.9209L44.7586 84.7706C45.4477 84.5043 46.0735 84.0968 46.5958 83.5745C47.1182 83.0521 47.5257 82.4263 47.792 81.7372L60.9522 47.5312C61.5502 45.973 62.6067 44.6328 63.9821 43.6875C65.3575 42.7421 66.9873 42.2361 68.6562 42.2361C70.3252 42.2361 71.955 42.7421 73.3304 43.6875C74.7058 44.6328 75.7622 45.973 76.3603 47.5312L89.5106 81.7273C89.7769 82.4164 90.1843 83.0422 90.7067 83.5646C91.2291 84.0869 91.8549 84.4944 92.544 84.7607L126.542 97.8417C128.164 98.4428 129.561 99.5289 130.543 100.952C131.525 102.376 132.045 104.067 132.031 105.797C132.006 107.436 131.489 109.031 130.548 110.374C129.606 111.717 128.283 112.746 126.75 113.329L92.5539 126.479C91.8648 126.746 91.239 127.153 90.7166 127.675C90.1942 128.198 89.7868 128.824 89.5205 129.513L76.3603 163.719C75.7663 165.278 74.7104 166.62 73.3338 167.564C71.9572 168.507 70.3253 169.008 68.6562 169ZM29.0469 58.0937C28.0684 58.0936 27.1128 57.7971 26.3062 57.2433C25.4995 56.6894 24.8796 55.9041 24.5281 54.991L18.963 40.5203C18.8424 40.2039 18.6562 39.9164 18.4167 39.677C18.1772 39.4375 17.8898 39.2513 17.5733 39.1307L3.10272 33.5656C2.18966 33.214 1.40453 32.594 0.85077 31.7874C0.297013 30.9807 0.000610352 30.0252 0.000610352 29.0468C0.000610352 28.0684 0.297013 27.1129 0.85077 26.3063C1.40453 25.4996 2.18966 24.8797 3.10272 24.528L17.5733 18.9629C17.8895 18.8418 18.1766 18.6554 18.416 18.416C18.6555 18.1766 18.8418 17.8895 18.963 17.5733L24.4786 3.23141C24.7896 2.38707 25.3249 1.64347 26.0269 1.08052C26.7288 0.51756 27.5709 0.156538 28.4626 0.0362502C29.5332 -0.0938989 30.6166 0.137085 31.5411 0.692575C32.4655 1.24806 33.178 2.09627 33.5656 3.10268L39.1308 17.5733C39.2519 17.8895 39.4383 18.1766 39.6777 18.416C39.9171 18.6554 40.2042 18.8418 40.5204 18.9629L54.991 24.528C55.9041 24.8797 56.6892 25.4996 57.243 26.3063C57.7967 27.1129 58.0931 28.0684 58.0931 29.0468C58.0931 30.0252 57.7967 30.9807 57.243 31.7874C56.6892 32.594 55.9041 33.214 54.991 33.5656L40.5204 39.1307C40.2039 39.2513 39.9165 39.4375 39.677 39.677C39.4375 39.9164 39.2514 40.2039 39.1308 40.5203L33.5656 54.991C33.2141 55.9041 32.5942 56.6894 31.7875 57.2433C30.9809 57.7971 30.0254 58.0936 29.0469 58.0937ZM132.031 84.4999C130.964 84.4996 129.921 84.1758 129.042 83.5713C128.162 82.9667 127.486 82.1097 127.103 81.1133L119.564 61.5166C119.432 61.1713 119.228 60.8577 118.966 60.5961C118.705 60.3346 118.391 60.1309 118.046 59.9982L98.4491 52.4593C97.4535 52.0756 96.5974 51.3995 95.9937 50.5198C95.3899 49.6401 95.0667 48.5981 95.0667 47.5312C95.0667 46.4642 95.3899 45.4223 95.9937 44.5426C96.5974 43.6629 97.4535 42.9868 98.4491 42.6031L118.046 35.0641C118.391 34.9315 118.705 34.7278 118.966 34.4663C119.228 34.2047 119.432 33.8911 119.564 33.5458L127.047 14.0877C127.389 13.1675 127.973 12.3572 128.739 11.7428C129.504 11.1285 130.422 10.7331 131.394 10.5988C132.562 10.4573 133.745 10.7102 134.753 11.3171C135.761 11.9241 136.538 12.8504 136.959 13.949L144.498 33.5458C144.631 33.8911 144.835 34.2047 145.096 34.4663C145.358 34.7278 145.671 34.9315 146.017 35.0641L165.613 42.6031C166.609 42.9868 167.465 43.6629 168.069 44.5426C168.673 45.4223 168.996 46.4642 168.996 47.5312C168.996 48.5981 168.673 49.6401 168.069 50.5198C167.465 51.3995 166.609 52.0756 165.613 52.4593L146.017 59.9982C145.671 60.1309 145.358 60.3346 145.096 60.5961C144.835 60.8577 144.631 61.1713 144.498 61.5166L136.959 81.1133C136.576 82.1097 135.9 82.9667 135.021 83.5713C134.141 84.1758 133.099 84.4996 132.031 84.4999Z" fill="#CCB27F"/>
</svg>
