<svg width="51" height="50" viewBox="0 0 51 50" fill="none" xmlns="http://www.w3.org/2000/svg">
<path d="M45.8125 10.9375H38V8.20312C38 7.98828 37.8242 7.8125 37.6094 7.8125H34.875C34.6602 7.8125 34.4844 7.98828 34.4844 8.20312V10.9375H27.2578V8.20312C27.2578 7.98828 27.082 7.8125 26.8672 7.8125H24.1328C23.918 7.8125 23.7422 7.98828 23.7422 8.20312V10.9375H16.5156V8.20312C16.5156 7.98828 16.3398 7.8125 16.125 7.8125H13.3906C13.1758 7.8125 13 7.98828 13 8.20312V10.9375H5.1875C4.32324 10.9375 3.625 11.6357 3.625 12.5V40.625C3.625 41.4893 4.32324 42.1875 5.1875 42.1875H45.8125C46.6768 42.1875 47.375 41.4893 47.375 40.625V12.5C47.375 11.6357 46.6768 10.9375 45.8125 10.9375ZM21.2031 33.5938C21.2031 33.8086 21.0273 33.9844 20.8125 33.9844H11.8281C11.6133 33.9844 11.4375 33.8086 11.4375 33.5938V31.25C11.4375 31.0352 11.6133 30.8594 11.8281 30.8594H20.8125C21.0273 30.8594 21.2031 31.0352 21.2031 31.25V33.5938ZM21.2031 26.9531C21.2031 27.168 21.0273 27.3438 20.8125 27.3438H11.8281C11.6133 27.3438 11.4375 27.168 11.4375 26.9531V24.6094C11.4375 24.3945 11.6133 24.2188 11.8281 24.2188H20.8125C21.0273 24.2188 21.2031 24.3945 21.2031 24.6094V26.9531ZM39.4893 22.4951L31.4326 33.6621C31.3607 33.7619 31.2661 33.8432 31.1566 33.8993C31.047 33.9554 30.9258 33.9846 30.8027 33.9846C30.6797 33.9846 30.5584 33.9554 30.4489 33.8993C30.3394 33.8432 30.2448 33.7619 30.1729 33.6621L24.5967 25.9375C24.4111 25.6787 24.5967 25.3174 24.9141 25.3174H27.5947C27.8438 25.3174 28.0781 25.4395 28.2246 25.6396L30.8027 29.209L35.8662 22.1924C36.0127 21.9873 36.2471 21.8701 36.4961 21.8701H39.1719C39.4893 21.875 39.6748 22.2363 39.4893 22.4951Z" fill="black"/>
</svg>
