<svg width="51" height="50" viewBox="0 0 51 50" fill="none" xmlns="http://www.w3.org/2000/svg">
<path d="M25.5 29.1667C30.0959 29.1667 33.8334 25.4292 33.8334 20.8333C33.8334 16.2375 30.0959 12.5 25.5 12.5C20.9042 12.5 17.1667 16.2375 17.1667 20.8333C17.1667 25.4292 20.9042 29.1667 25.5 29.1667ZM25.5 16.6667C27.7979 16.6667 29.6667 18.5354 29.6667 20.8333C29.6667 23.1312 27.7979 25 25.5 25C23.2021 25 21.3334 23.1312 21.3334 20.8333C21.3334 18.5354 23.2021 16.6667 25.5 16.6667Z" fill="black"/>
<path d="M24.2916 45.4457C24.6442 45.6975 25.0667 45.8328 25.5 45.8328C25.9333 45.8328 26.3557 45.6975 26.7083 45.4457C27.3416 44.9977 42.2271 34.2498 42.1666 20.8332C42.1666 11.6436 34.6896 4.1665 25.5 4.1665C16.3104 4.1665 8.83331 11.6436 8.83331 20.8228C8.7729 34.2498 23.6583 44.9977 24.2916 45.4457ZM25.5 8.33317C32.3937 8.33317 38 13.9394 38 20.8436C38.0437 30.0894 28.8583 38.3915 25.5 41.1144C22.1437 38.3894 12.9562 30.0853 13 20.8332C13 13.9394 18.6062 8.33317 25.5 8.33317Z" fill="black"/>
</svg>
