<svg width="606" height="606" viewBox="0 0 606 606" fill="none" xmlns="http://www.w3.org/2000/svg">
<path d="M6.06 3.03C6.06 4.70342 4.70342 6.06 3.03 6.06C1.35658 6.06 0 4.70342 0 3.03C0 1.35658 1.35658 0 3.03 0C4.70342 0 6.06 1.35658 6.06 3.03Z" fill="#231F1F"/>
<path d="M72.72 3.03C72.72 4.70342 71.3634 6.06 69.69 6.06C68.0166 6.06 66.66 4.70342 66.66 3.03C66.66 1.35658 68.0166 0 69.69 0C71.3634 0 72.72 1.35658 72.72 3.03Z" fill="#231F1F"/>
<path d="M139.38 3.03C139.38 4.70342 138.023 6.06 136.35 6.06C134.677 6.06 133.32 4.70342 133.32 3.03C133.32 1.35658 134.677 0 136.35 0C138.023 0 139.38 1.35658 139.38 3.03Z" fill="#231F1F"/>
<path d="M206.04 3.03C206.04 4.70342 204.683 6.06 203.01 6.06C201.337 6.06 199.98 4.70342 199.98 3.03C199.98 1.35658 201.337 0 203.01 0C204.683 0 206.04 1.35658 206.04 3.03Z" fill="#231F1F"/>
<path d="M272.7 3.03C272.7 4.70342 271.343 6.06 269.67 6.06C267.997 6.06 266.64 4.70342 266.64 3.03C266.64 1.35658 267.997 0 269.67 0C271.343 0 272.7 1.35658 272.7 3.03Z" fill="#231F1F"/>
<path d="M339.36 3.03C339.36 4.70342 338.003 6.06 336.33 6.06C334.657 6.06 333.3 4.70342 333.3 3.03C333.3 1.35658 334.657 0 336.33 0C338.003 0 339.36 1.35658 339.36 3.03Z" fill="#231F1F"/>
<path d="M406.02 3.03C406.02 4.70342 404.663 6.06 402.99 6.06C401.317 6.06 399.96 4.70342 399.96 3.03C399.96 1.35658 401.317 0 402.99 0C404.663 0 406.02 1.35658 406.02 3.03Z" fill="#231F1F"/>
<path d="M472.68 3.03C472.68 4.70342 471.323 6.06 469.65 6.06C467.977 6.06 466.62 4.70342 466.62 3.03C466.62 1.35658 467.977 0 469.65 0C471.323 0 472.68 1.35658 472.68 3.03Z" fill="#231F1F"/>
<path d="M539.34 3.03C539.34 4.70342 537.983 6.06 536.31 6.06C534.637 6.06 533.28 4.70342 533.28 3.03C533.28 1.35658 534.637 0 536.31 0C537.983 0 539.34 1.35658 539.34 3.03Z" fill="#231F1F"/>
<path d="M606 3.03C606 4.70342 604.643 6.06 602.97 6.06C601.297 6.06 599.94 4.70342 599.94 3.03C599.94 1.35658 601.297 0 602.97 0C604.643 0 606 1.35658 606 3.03Z" fill="#231F1F"/>
<path d="M6.06 69.69C6.06 71.3634 4.70342 72.72 3.03 72.72C1.35658 72.72 0 71.3634 0 69.69C0 68.0166 1.35658 66.66 3.03 66.66C4.70342 66.66 6.06 68.0166 6.06 69.69Z" fill="#231F1F"/>
<path d="M72.72 69.69C72.72 71.3634 71.3634 72.72 69.69 72.72C68.0166 72.72 66.66 71.3634 66.66 69.69C66.66 68.0166 68.0166 66.66 69.69 66.66C71.3634 66.66 72.72 68.0166 72.72 69.69Z" fill="#231F1F"/>
<path d="M139.38 69.69C139.38 71.3634 138.023 72.72 136.35 72.72C134.677 72.72 133.32 71.3634 133.32 69.69C133.32 68.0166 134.677 66.66 136.35 66.66C138.023 66.66 139.38 68.0166 139.38 69.69Z" fill="#231F1F"/>
<path d="M206.04 69.69C206.04 71.3634 204.683 72.72 203.01 72.72C201.337 72.72 199.98 71.3634 199.98 69.69C199.98 68.0166 201.337 66.66 203.01 66.66C204.683 66.66 206.04 68.0166 206.04 69.69Z" fill="#231F1F"/>
<path d="M272.7 69.69C272.7 71.3634 271.343 72.72 269.67 72.72C267.997 72.72 266.64 71.3634 266.64 69.69C266.64 68.0166 267.997 66.66 269.67 66.66C271.343 66.66 272.7 68.0166 272.7 69.69Z" fill="#231F1F"/>
<path d="M339.36 69.69C339.36 71.3634 338.003 72.72 336.33 72.72C334.657 72.72 333.3 71.3634 333.3 69.69C333.3 68.0166 334.657 66.66 336.33 66.66C338.003 66.66 339.36 68.0166 339.36 69.69Z" fill="#231F1F"/>
<path d="M406.02 69.69C406.02 71.3634 404.663 72.72 402.99 72.72C401.317 72.72 399.96 71.3634 399.96 69.69C399.96 68.0166 401.317 66.66 402.99 66.66C404.663 66.66 406.02 68.0166 406.02 69.69Z" fill="#231F1F"/>
<path d="M472.68 69.69C472.68 71.3634 471.323 72.72 469.65 72.72C467.977 72.72 466.62 71.3634 466.62 69.69C466.62 68.0166 467.977 66.66 469.65 66.66C471.323 66.66 472.68 68.0166 472.68 69.69Z" fill="#231F1F"/>
<path d="M539.34 69.69C539.34 71.3634 537.983 72.72 536.31 72.72C534.637 72.72 533.28 71.3634 533.28 69.69C533.28 68.0166 534.637 66.66 536.31 66.66C537.983 66.66 539.34 68.0166 539.34 69.69Z" fill="#231F1F"/>
<path d="M606 69.69C606 71.3634 604.643 72.72 602.97 72.72C601.297 72.72 599.94 71.3634 599.94 69.69C599.94 68.0166 601.297 66.66 602.97 66.66C604.643 66.66 606 68.0166 606 69.69Z" fill="#231F1F"/>
<path d="M6.06 136.35C6.06 138.023 4.70342 139.38 3.03 139.38C1.35658 139.38 0 138.023 0 136.35C0 134.677 1.35658 133.32 3.03 133.32C4.70342 133.32 6.06 134.677 6.06 136.35Z" fill="#231F1F"/>
<path d="M72.72 136.35C72.72 138.023 71.3634 139.38 69.69 139.38C68.0166 139.38 66.66 138.023 66.66 136.35C66.66 134.677 68.0166 133.32 69.69 133.32C71.3634 133.32 72.72 134.677 72.72 136.35Z" fill="#231F1F"/>
<path d="M139.38 136.35C139.38 138.023 138.023 139.38 136.35 139.38C134.677 139.38 133.32 138.023 133.32 136.35C133.32 134.677 134.677 133.32 136.35 133.32C138.023 133.32 139.38 134.677 139.38 136.35Z" fill="#231F1F"/>
<path d="M206.04 136.35C206.04 138.023 204.683 139.38 203.01 139.38C201.337 139.38 199.98 138.023 199.98 136.35C199.98 134.677 201.337 133.32 203.01 133.32C204.683 133.32 206.04 134.677 206.04 136.35Z" fill="#231F1F"/>
<path d="M272.7 136.35C272.7 138.023 271.343 139.38 269.67 139.38C267.997 139.38 266.64 138.023 266.64 136.35C266.64 134.677 267.997 133.32 269.67 133.32C271.343 133.32 272.7 134.677 272.7 136.35Z" fill="#231F1F"/>
<path d="M339.36 136.35C339.36 138.023 338.003 139.38 336.33 139.38C334.657 139.38 333.3 138.023 333.3 136.35C333.3 134.677 334.657 133.32 336.33 133.32C338.003 133.32 339.36 134.677 339.36 136.35Z" fill="#231F1F"/>
<path d="M406.02 136.35C406.02 138.023 404.663 139.38 402.99 139.38C401.317 139.38 399.96 138.023 399.96 136.35C399.96 134.677 401.317 133.32 402.99 133.32C404.663 133.32 406.02 134.677 406.02 136.35Z" fill="#231F1F"/>
<path d="M472.68 136.35C472.68 138.023 471.323 139.38 469.65 139.38C467.977 139.38 466.62 138.023 466.62 136.35C466.62 134.677 467.977 133.32 469.65 133.32C471.323 133.32 472.68 134.677 472.68 136.35Z" fill="#231F1F"/>
<path d="M539.34 136.35C539.34 138.023 537.983 139.38 536.31 139.38C534.637 139.38 533.28 138.023 533.28 136.35C533.28 134.677 534.637 133.32 536.31 133.32C537.983 133.32 539.34 134.677 539.34 136.35Z" fill="#231F1F"/>
<path d="M606 136.35C606 138.023 604.643 139.38 602.97 139.38C601.297 139.38 599.94 138.023 599.94 136.35C599.94 134.677 601.297 133.32 602.97 133.32C604.643 133.32 606 134.677 606 136.35Z" fill="#231F1F"/>
<path d="M6.06 203.01C6.06 204.683 4.70342 206.04 3.03 206.04C1.35658 206.04 0 204.683 0 203.01C0 201.337 1.35658 199.98 3.03 199.98C4.70342 199.98 6.06 201.337 6.06 203.01Z" fill="#231F1F"/>
<path d="M72.72 203.01C72.72 204.683 71.3634 206.04 69.69 206.04C68.0166 206.04 66.66 204.683 66.66 203.01C66.66 201.337 68.0166 199.98 69.69 199.98C71.3634 199.98 72.72 201.337 72.72 203.01Z" fill="#231F1F"/>
<path d="M139.38 203.01C139.38 204.683 138.023 206.04 136.35 206.04C134.677 206.04 133.32 204.683 133.32 203.01C133.32 201.337 134.677 199.98 136.35 199.98C138.023 199.98 139.38 201.337 139.38 203.01Z" fill="#231F1F"/>
<path d="M206.04 203.01C206.04 204.683 204.683 206.04 203.01 206.04C201.337 206.04 199.98 204.683 199.98 203.01C199.98 201.337 201.337 199.98 203.01 199.98C204.683 199.98 206.04 201.337 206.04 203.01Z" fill="#231F1F"/>
<path d="M272.7 203.01C272.7 204.683 271.343 206.04 269.67 206.04C267.997 206.04 266.64 204.683 266.64 203.01C266.64 201.337 267.997 199.98 269.67 199.98C271.343 199.98 272.7 201.337 272.7 203.01Z" fill="#231F1F"/>
<path d="M339.36 203.01C339.36 204.683 338.003 206.04 336.33 206.04C334.657 206.04 333.3 204.683 333.3 203.01C333.3 201.337 334.657 199.98 336.33 199.98C338.003 199.98 339.36 201.337 339.36 203.01Z" fill="#231F1F"/>
<path d="M406.02 203.01C406.02 204.683 404.663 206.04 402.99 206.04C401.317 206.04 399.96 204.683 399.96 203.01C399.96 201.337 401.317 199.98 402.99 199.98C404.663 199.98 406.02 201.337 406.02 203.01Z" fill="#231F1F"/>
<path d="M472.68 203.01C472.68 204.683 471.323 206.04 469.65 206.04C467.977 206.04 466.62 204.683 466.62 203.01C466.62 201.337 467.977 199.98 469.65 199.98C471.323 199.98 472.68 201.337 472.68 203.01Z" fill="#231F1F"/>
<path d="M539.34 203.01C539.34 204.683 537.983 206.04 536.31 206.04C534.637 206.04 533.28 204.683 533.28 203.01C533.28 201.337 534.637 199.98 536.31 199.98C537.983 199.98 539.34 201.337 539.34 203.01Z" fill="#231F1F"/>
<path d="M606 203.01C606 204.683 604.643 206.04 602.97 206.04C601.297 206.04 599.94 204.683 599.94 203.01C599.94 201.337 601.297 199.98 602.97 199.98C604.643 199.98 606 201.337 606 203.01Z" fill="#231F1F"/>
<path d="M6.06 269.67C6.06 271.343 4.70342 272.7 3.03 272.7C1.35658 272.7 0 271.343 0 269.67C0 267.997 1.35658 266.64 3.03 266.64C4.70342 266.64 6.06 267.997 6.06 269.67Z" fill="#231F1F"/>
<path d="M72.72 269.67C72.72 271.343 71.3634 272.7 69.69 272.7C68.0166 272.7 66.66 271.343 66.66 269.67C66.66 267.997 68.0166 266.64 69.69 266.64C71.3634 266.64 72.72 267.997 72.72 269.67Z" fill="#231F1F"/>
<path d="M139.38 269.67C139.38 271.343 138.023 272.7 136.35 272.7C134.677 272.7 133.32 271.343 133.32 269.67C133.32 267.997 134.677 266.64 136.35 266.64C138.023 266.64 139.38 267.997 139.38 269.67Z" fill="#231F1F"/>
<path d="M206.04 269.67C206.04 271.343 204.683 272.7 203.01 272.7C201.337 272.7 199.98 271.343 199.98 269.67C199.98 267.997 201.337 266.64 203.01 266.64C204.683 266.64 206.04 267.997 206.04 269.67Z" fill="#231F1F"/>
<path d="M272.7 269.67C272.7 271.343 271.343 272.7 269.67 272.7C267.997 272.7 266.64 271.343 266.64 269.67C266.64 267.997 267.997 266.64 269.67 266.64C271.343 266.64 272.7 267.997 272.7 269.67Z" fill="#231F1F"/>
<path d="M339.36 269.67C339.36 271.343 338.003 272.7 336.33 272.7C334.657 272.7 333.3 271.343 333.3 269.67C333.3 267.997 334.657 266.64 336.33 266.64C338.003 266.64 339.36 267.997 339.36 269.67Z" fill="#231F1F"/>
<path d="M406.02 269.67C406.02 271.343 404.663 272.7 402.99 272.7C401.317 272.7 399.96 271.343 399.96 269.67C399.96 267.997 401.317 266.64 402.99 266.64C404.663 266.64 406.02 267.997 406.02 269.67Z" fill="#231F1F"/>
<path d="M472.68 269.67C472.68 271.343 471.323 272.7 469.65 272.7C467.977 272.7 466.62 271.343 466.62 269.67C466.62 267.997 467.977 266.64 469.65 266.64C471.323 266.64 472.68 267.997 472.68 269.67Z" fill="#231F1F"/>
<path d="M539.34 269.67C539.34 271.343 537.983 272.7 536.31 272.7C534.637 272.7 533.28 271.343 533.28 269.67C533.28 267.997 534.637 266.64 536.31 266.64C537.983 266.64 539.34 267.997 539.34 269.67Z" fill="#231F1F"/>
<path d="M606 269.67C606 271.343 604.643 272.7 602.97 272.7C601.297 272.7 599.94 271.343 599.94 269.67C599.94 267.997 601.297 266.64 602.97 266.64C604.643 266.64 606 267.997 606 269.67Z" fill="#231F1F"/>
<path d="M6.06 336.33C6.06 338.003 4.70342 339.36 3.03 339.36C1.35658 339.36 0 338.003 0 336.33C0 334.657 1.35658 333.3 3.03 333.3C4.70342 333.3 6.06 334.657 6.06 336.33Z" fill="#231F1F"/>
<path d="M72.72 336.33C72.72 338.003 71.3634 339.36 69.69 339.36C68.0166 339.36 66.66 338.003 66.66 336.33C66.66 334.657 68.0166 333.3 69.69 333.3C71.3634 333.3 72.72 334.657 72.72 336.33Z" fill="#231F1F"/>
<path d="M139.38 336.33C139.38 338.003 138.023 339.36 136.35 339.36C134.677 339.36 133.32 338.003 133.32 336.33C133.32 334.657 134.677 333.3 136.35 333.3C138.023 333.3 139.38 334.657 139.38 336.33Z" fill="#231F1F"/>
<path d="M206.04 336.33C206.04 338.003 204.683 339.36 203.01 339.36C201.337 339.36 199.98 338.003 199.98 336.33C199.98 334.657 201.337 333.3 203.01 333.3C204.683 333.3 206.04 334.657 206.04 336.33Z" fill="#231F1F"/>
<path d="M272.7 336.33C272.7 338.003 271.343 339.36 269.67 339.36C267.997 339.36 266.64 338.003 266.64 336.33C266.64 334.657 267.997 333.3 269.67 333.3C271.343 333.3 272.7 334.657 272.7 336.33Z" fill="#231F1F"/>
<path d="M339.36 336.33C339.36 338.003 338.003 339.36 336.33 339.36C334.657 339.36 333.3 338.003 333.3 336.33C333.3 334.657 334.657 333.3 336.33 333.3C338.003 333.3 339.36 334.657 339.36 336.33Z" fill="#231F1F"/>
<path d="M406.02 336.33C406.02 338.003 404.663 339.36 402.99 339.36C401.317 339.36 399.96 338.003 399.96 336.33C399.96 334.657 401.317 333.3 402.99 333.3C404.663 333.3 406.02 334.657 406.02 336.33Z" fill="#231F1F"/>
<path d="M472.68 336.33C472.68 338.003 471.323 339.36 469.65 339.36C467.977 339.36 466.62 338.003 466.62 336.33C466.62 334.657 467.977 333.3 469.65 333.3C471.323 333.3 472.68 334.657 472.68 336.33Z" fill="#231F1F"/>
<path d="M539.34 336.33C539.34 338.003 537.983 339.36 536.31 339.36C534.637 339.36 533.28 338.003 533.28 336.33C533.28 334.657 534.637 333.3 536.31 333.3C537.983 333.3 539.34 334.657 539.34 336.33Z" fill="#231F1F"/>
<path d="M606 336.33C606 338.003 604.643 339.36 602.97 339.36C601.297 339.36 599.94 338.003 599.94 336.33C599.94 334.657 601.297 333.3 602.97 333.3C604.643 333.3 606 334.657 606 336.33Z" fill="#231F1F"/>
<path d="M6.06 402.99C6.06 404.663 4.70342 406.02 3.03 406.02C1.35658 406.02 0 404.663 0 402.99C0 401.317 1.35658 399.96 3.03 399.96C4.70342 399.96 6.06 401.317 6.06 402.99Z" fill="#231F1F"/>
<path d="M72.72 402.99C72.72 404.663 71.3634 406.02 69.69 406.02C68.0166 406.02 66.66 404.663 66.66 402.99C66.66 401.317 68.0166 399.96 69.69 399.96C71.3634 399.96 72.72 401.317 72.72 402.99Z" fill="#231F1F"/>
<path d="M139.38 402.99C139.38 404.663 138.023 406.02 136.35 406.02C134.677 406.02 133.32 404.663 133.32 402.99C133.32 401.317 134.677 399.96 136.35 399.96C138.023 399.96 139.38 401.317 139.38 402.99Z" fill="#231F1F"/>
<path d="M206.04 402.99C206.04 404.663 204.683 406.02 203.01 406.02C201.337 406.02 199.98 404.663 199.98 402.99C199.98 401.317 201.337 399.96 203.01 399.96C204.683 399.96 206.04 401.317 206.04 402.99Z" fill="#231F1F"/>
<path d="M272.7 402.99C272.7 404.663 271.343 406.02 269.67 406.02C267.997 406.02 266.64 404.663 266.64 402.99C266.64 401.317 267.997 399.96 269.67 399.96C271.343 399.96 272.7 401.317 272.7 402.99Z" fill="#231F1F"/>
<path d="M339.36 402.99C339.36 404.663 338.003 406.02 336.33 406.02C334.657 406.02 333.3 404.663 333.3 402.99C333.3 401.317 334.657 399.96 336.33 399.96C338.003 399.96 339.36 401.317 339.36 402.99Z" fill="#231F1F"/>
<path d="M406.02 402.99C406.02 404.663 404.663 406.02 402.99 406.02C401.317 406.02 399.96 404.663 399.96 402.99C399.96 401.317 401.317 399.96 402.99 399.96C404.663 399.96 406.02 401.317 406.02 402.99Z" fill="#231F1F"/>
<path d="M472.68 402.99C472.68 404.663 471.323 406.02 469.65 406.02C467.977 406.02 466.62 404.663 466.62 402.99C466.62 401.317 467.977 399.96 469.65 399.96C471.323 399.96 472.68 401.317 472.68 402.99Z" fill="#231F1F"/>
<path d="M539.34 402.99C539.34 404.663 537.983 406.02 536.31 406.02C534.637 406.02 533.28 404.663 533.28 402.99C533.28 401.317 534.637 399.96 536.31 399.96C537.983 399.96 539.34 401.317 539.34 402.99Z" fill="#231F1F"/>
<path d="M606 402.99C606 404.663 604.643 406.02 602.97 406.02C601.297 406.02 599.94 404.663 599.94 402.99C599.94 401.317 601.297 399.96 602.97 399.96C604.643 399.96 606 401.317 606 402.99Z" fill="#231F1F"/>
<path d="M6.06 469.65C6.06 471.323 4.70342 472.68 3.03 472.68C1.35658 472.68 0 471.323 0 469.65C0 467.977 1.35658 466.62 3.03 466.62C4.70342 466.62 6.06 467.977 6.06 469.65Z" fill="#231F1F"/>
<path d="M72.72 469.65C72.72 471.323 71.3634 472.68 69.69 472.68C68.0166 472.68 66.66 471.323 66.66 469.65C66.66 467.977 68.0166 466.62 69.69 466.62C71.3634 466.62 72.72 467.977 72.72 469.65Z" fill="#231F1F"/>
<path d="M139.38 469.65C139.38 471.323 138.023 472.68 136.35 472.68C134.677 472.68 133.32 471.323 133.32 469.65C133.32 467.977 134.677 466.62 136.35 466.62C138.023 466.62 139.38 467.977 139.38 469.65Z" fill="#231F1F"/>
<path d="M206.04 469.65C206.04 471.323 204.683 472.68 203.01 472.68C201.337 472.68 199.98 471.323 199.98 469.65C199.98 467.977 201.337 466.62 203.01 466.62C204.683 466.62 206.04 467.977 206.04 469.65Z" fill="#231F1F"/>
<path d="M272.7 469.65C272.7 471.323 271.343 472.68 269.67 472.68C267.997 472.68 266.64 471.323 266.64 469.65C266.64 467.977 267.997 466.62 269.67 466.62C271.343 466.62 272.7 467.977 272.7 469.65Z" fill="#231F1F"/>
<path d="M339.36 469.65C339.36 471.323 338.003 472.68 336.33 472.68C334.657 472.68 333.3 471.323 333.3 469.65C333.3 467.977 334.657 466.62 336.33 466.62C338.003 466.62 339.36 467.977 339.36 469.65Z" fill="#231F1F"/>
<path d="M406.02 469.65C406.02 471.323 404.663 472.68 402.99 472.68C401.317 472.68 399.96 471.323 399.96 469.65C399.96 467.977 401.317 466.62 402.99 466.62C404.663 466.62 406.02 467.977 406.02 469.65Z" fill="#231F1F"/>
<path d="M472.68 469.65C472.68 471.323 471.323 472.68 469.65 472.68C467.977 472.68 466.62 471.323 466.62 469.65C466.62 467.977 467.977 466.62 469.65 466.62C471.323 466.62 472.68 467.977 472.68 469.65Z" fill="#231F1F"/>
<path d="M539.34 469.65C539.34 471.323 537.983 472.68 536.31 472.68C534.637 472.68 533.28 471.323 533.28 469.65C533.28 467.977 534.637 466.62 536.31 466.62C537.983 466.62 539.34 467.977 539.34 469.65Z" fill="#231F1F"/>
<path d="M606 469.65C606 471.323 604.643 472.68 602.97 472.68C601.297 472.68 599.94 471.323 599.94 469.65C599.94 467.977 601.297 466.62 602.97 466.62C604.643 466.62 606 467.977 606 469.65Z" fill="#231F1F"/>
<path d="M6.06 536.31C6.06 537.983 4.70342 539.34 3.03 539.34C1.35658 539.34 0 537.983 0 536.31C0 534.637 1.35658 533.28 3.03 533.28C4.70342 533.28 6.06 534.637 6.06 536.31Z" fill="#231F1F"/>
<path d="M72.72 536.31C72.72 537.983 71.3634 539.34 69.69 539.34C68.0166 539.34 66.66 537.983 66.66 536.31C66.66 534.637 68.0166 533.28 69.69 533.28C71.3634 533.28 72.72 534.637 72.72 536.31Z" fill="#231F1F"/>
<path d="M139.38 536.31C139.38 537.983 138.023 539.34 136.35 539.34C134.677 539.34 133.32 537.983 133.32 536.31C133.32 534.637 134.677 533.28 136.35 533.28C138.023 533.28 139.38 534.637 139.38 536.31Z" fill="#231F1F"/>
<path d="M206.04 536.31C206.04 537.983 204.683 539.34 203.01 539.34C201.337 539.34 199.98 537.983 199.98 536.31C199.98 534.637 201.337 533.28 203.01 533.28C204.683 533.28 206.04 534.637 206.04 536.31Z" fill="#231F1F"/>
<path d="M272.7 536.31C272.7 537.983 271.343 539.34 269.67 539.34C267.997 539.34 266.64 537.983 266.64 536.31C266.64 534.637 267.997 533.28 269.67 533.28C271.343 533.28 272.7 534.637 272.7 536.31Z" fill="#231F1F"/>
<path d="M339.36 536.31C339.36 537.983 338.003 539.34 336.33 539.34C334.657 539.34 333.3 537.983 333.3 536.31C333.3 534.637 334.657 533.28 336.33 533.28C338.003 533.28 339.36 534.637 339.36 536.31Z" fill="#231F1F"/>
<path d="M406.02 536.31C406.02 537.983 404.663 539.34 402.99 539.34C401.317 539.34 399.96 537.983 399.96 536.31C399.96 534.637 401.317 533.28 402.99 533.28C404.663 533.28 406.02 534.637 406.02 536.31Z" fill="#231F1F"/>
<path d="M472.68 536.31C472.68 537.983 471.323 539.34 469.65 539.34C467.977 539.34 466.62 537.983 466.62 536.31C466.62 534.637 467.977 533.28 469.65 533.28C471.323 533.28 472.68 534.637 472.68 536.31Z" fill="#231F1F"/>
<path d="M539.34 536.31C539.34 537.983 537.983 539.34 536.31 539.34C534.637 539.34 533.28 537.983 533.28 536.31C533.28 534.637 534.637 533.28 536.31 533.28C537.983 533.28 539.34 534.637 539.34 536.31Z" fill="#231F1F"/>
<path d="M606 536.31C606 537.983 604.643 539.34 602.97 539.34C601.297 539.34 599.94 537.983 599.94 536.31C599.94 534.637 601.297 533.28 602.97 533.28C604.643 533.28 606 534.637 606 536.31Z" fill="#231F1F"/>
<path d="M6.06 602.97C6.06 604.643 4.70342 606 3.03 606C1.35658 606 0 604.643 0 602.97C0 601.297 1.35658 599.94 3.03 599.94C4.70342 599.94 6.06 601.297 6.06 602.97Z" fill="#231F1F"/>
<path d="M72.72 602.97C72.72 604.643 71.3634 606 69.69 606C68.0166 606 66.66 604.643 66.66 602.97C66.66 601.297 68.0166 599.94 69.69 599.94C71.3634 599.94 72.72 601.297 72.72 602.97Z" fill="#231F1F"/>
<path d="M139.38 602.97C139.38 604.643 138.023 606 136.35 606C134.677 606 133.32 604.643 133.32 602.97C133.32 601.297 134.677 599.94 136.35 599.94C138.023 599.94 139.38 601.297 139.38 602.97Z" fill="#231F1F"/>
<path d="M206.04 602.97C206.04 604.643 204.683 606 203.01 606C201.337 606 199.98 604.643 199.98 602.97C199.98 601.297 201.337 599.94 203.01 599.94C204.683 599.94 206.04 601.297 206.04 602.97Z" fill="#231F1F"/>
<path d="M272.7 602.97C272.7 604.643 271.343 606 269.67 606C267.997 606 266.64 604.643 266.64 602.97C266.64 601.297 267.997 599.94 269.67 599.94C271.343 599.94 272.7 601.297 272.7 602.97Z" fill="#231F1F"/>
<path d="M339.36 602.97C339.36 604.643 338.003 606 336.33 606C334.657 606 333.3 604.643 333.3 602.97C333.3 601.297 334.657 599.94 336.33 599.94C338.003 599.94 339.36 601.297 339.36 602.97Z" fill="#231F1F"/>
<path d="M406.02 602.97C406.02 604.643 404.663 606 402.99 606C401.317 606 399.96 604.643 399.96 602.97C399.96 601.297 401.317 599.94 402.99 599.94C404.663 599.94 406.02 601.297 406.02 602.97Z" fill="#231F1F"/>
<path d="M472.68 602.97C472.68 604.643 471.323 606 469.65 606C467.977 606 466.62 604.643 466.62 602.97C466.62 601.297 467.977 599.94 469.65 599.94C471.323 599.94 472.68 601.297 472.68 602.97Z" fill="#231F1F"/>
<path d="M539.34 602.97C539.34 604.643 537.983 606 536.31 606C534.637 606 533.28 604.643 533.28 602.97C533.28 601.297 534.637 599.94 536.31 599.94C537.983 599.94 539.34 601.297 539.34 602.97Z" fill="#231F1F"/>
<path d="M606 602.97C606 604.643 604.643 606 602.97 606C601.297 606 599.94 604.643 599.94 602.97C599.94 601.297 601.297 599.94 602.97 599.94C604.643 599.94 606 601.297 606 602.97Z" fill="#231F1F"/>
</svg>
