<svg width="109" height="108" viewBox="0 0 109 108" fill="none" xmlns="http://www.w3.org/2000/svg">
<path fill-rule="evenodd" clip-rule="evenodd" d="M48.7775 23.6251C32.2231 34.1551 24.1844 45.0226 24.1844 63.1801C25.2744 62.8426 26.2281 62.8426 27.1819 62.8426C35.8337 62.8426 44.2131 68.6476 44.2131 79.1101C44.2131 89.9776 37.1963 96.7276 27.1819 96.7276C14.2381 96.7276 6.8125 86.4676 6.8125 68.0401C6.8125 42.3901 18.7344 23.9626 41.0112 11.2051L48.7775 23.6251ZM96.465 23.6251C79.9106 34.1551 71.8719 45.0226 71.8719 63.1801C72.9619 62.8426 73.9156 62.8426 74.8694 62.8426C83.5212 62.8426 91.9006 68.6476 91.9006 79.1101C91.9006 89.9776 84.8838 96.7276 74.8694 96.7276C61.9937 96.7276 54.5681 86.4676 54.5681 68.0401C54.5681 42.3901 66.49 23.9626 88.7669 11.2051L96.5331 23.6251H96.465Z" fill="#F0BE79"/>
</svg>
