<svg width="51" height="50" viewBox="0 0 51 50" fill="none" xmlns="http://www.w3.org/2000/svg">
<path d="M5.50751 14.71L25.5 24.705L45.4925 14.71C45.4185 13.4361 44.8602 12.2387 43.9321 11.3631C43.0039 10.4874 41.7761 9.99977 40.5 10H10.5C9.22397 9.99977 7.99613 10.4874 7.06795 11.3631C6.13978 12.2387 5.58152 13.4361 5.50751 14.71Z" fill="black"/>
<path d="M45.5 20.2949L25.5 30.2949L5.5 20.2949V34.9999C5.5 36.326 6.02678 37.5978 6.96447 38.5355C7.90215 39.4731 9.17392 39.9999 10.5 39.9999H40.5C41.8261 39.9999 43.0979 39.4731 44.0355 38.5355C44.9732 37.5978 45.5 36.326 45.5 34.9999V20.2949Z" fill="black"/>
</svg>
