<svg width="51" height="50" viewBox="0 0 51 50" fill="none" xmlns="http://www.w3.org/2000/svg">
<path d="M0.5 3.125C0.5 2.2962 0.82924 1.50134 1.41529 0.915291C2.00134 0.32924 2.7962 0 3.625 0H10.3531C11.0928 0.000340529 11.8084 0.263065 12.3726 0.741436C12.9368 1.21981 13.3131 1.88281 13.4344 2.6125L15.7469 16.4719C15.8574 17.1319 15.753 17.81 15.4493 18.4063C15.1455 19.0027 14.6583 19.4857 14.0594 19.7844L9.22187 22.2C10.9566 26.4989 13.5401 30.404 16.818 33.682C20.096 36.9599 24.0011 39.5434 28.3 41.2781L30.7188 36.4406C31.0173 35.8423 31.4998 35.3555 32.0955 35.0518C32.6912 34.748 33.3685 34.6433 34.0281 34.7531L47.8875 37.0656C48.6172 37.1869 49.2802 37.5632 49.7586 38.1274C50.2369 38.6916 50.4997 39.4072 50.5 40.1469V46.875C50.5 47.7038 50.1708 48.4987 49.5847 49.0847C48.9987 49.6708 48.2038 50 47.375 50H41.125C18.6875 50 0.5 31.8125 0.5 9.375V3.125Z" fill="black"/>
</svg>
