<svg width="196" height="147" viewBox="0 0 196 147" fill="none" xmlns="http://www.w3.org/2000/svg">
<path d="M141 45C141 56.9347 136.259 68.3807 127.82 76.8198C119.381 85.2589 107.935 90 96 90C84.0653 90 72.6193 85.2589 64.1802 76.8198C55.7411 68.3807 51 56.9347 51 45C51 33.0653 55.7411 21.6193 64.1802 13.1802C72.6193 4.74106 84.0653 0 96 0C107.935 0 119.381 4.74106 127.82 13.1802C136.259 21.6193 141 33.0653 141 45V45ZM98.8125 25.3125C98.8125 24.5666 98.5162 23.8512 97.9887 23.3238C97.4613 22.7963 96.7459 22.5 96 22.5C95.2541 22.5 94.5387 22.7963 94.0113 23.3238C93.4838 23.8512 93.1875 24.5666 93.1875 25.3125V42.1875H76.3125C75.5666 42.1875 74.8512 42.4838 74.3238 43.0113C73.7963 43.5387 73.5 44.2541 73.5 45C73.5 45.7459 73.7963 46.4613 74.3238 46.9887C74.8512 47.5162 75.5666 47.8125 76.3125 47.8125H93.1875V64.6875C93.1875 65.4334 93.4838 66.1488 94.0113 66.6762C94.5387 67.2037 95.2541 67.5 96 67.5C96.7459 67.5 97.4613 67.2037 97.9887 66.6762C98.5162 66.1488 98.8125 65.4334 98.8125 64.6875V47.8125H115.688C116.433 47.8125 117.149 47.5162 117.676 46.9887C118.204 46.4613 118.5 45.7459 118.5 45C118.5 44.2541 118.204 43.5387 117.676 43.0113C117.149 42.4838 116.433 42.1875 115.688 42.1875H98.8125V25.3125Z" fill="#D9D9D9" fill-opacity="0.5"/>
<path d="M7.6125 141.325C6.67917 141.325 5.775 141.179 4.9 140.887C4.03333 140.596 3.275 140.179 2.625 139.637C1.975 139.096 1.51667 138.45 1.25 137.7L2.8875 137.087C3.07083 137.604 3.40417 138.05 3.8875 138.425C4.37917 138.792 4.95 139.075 5.6 139.275C6.25833 139.475 6.92917 139.575 7.6125 139.575C8.4125 139.575 9.15833 139.442 9.85 139.175C10.5417 138.908 11.1 138.537 11.525 138.062C11.95 137.579 12.1625 137.012 12.1625 136.362C12.1625 135.704 11.9417 135.162 11.5 134.737C11.0583 134.312 10.4875 133.979 9.7875 133.737C9.09583 133.487 8.37083 133.296 7.6125 133.162C6.42083 132.954 5.35 132.671 4.4 132.312C3.45833 131.954 2.7125 131.45 2.1625 130.8C1.6125 130.142 1.3375 129.275 1.3375 128.2C1.3375 127.192 1.62917 126.317 2.2125 125.575C2.79583 124.833 3.5625 124.258 4.5125 123.85C5.47083 123.442 6.50417 123.237 7.6125 123.237C8.52083 123.237 9.40833 123.379 10.275 123.662C11.1417 123.946 11.9042 124.358 12.5625 124.9C13.2292 125.442 13.7083 126.104 14 126.887L12.3375 127.487C12.1542 126.962 11.8167 126.517 11.325 126.15C10.8417 125.775 10.275 125.492 9.625 125.3C8.975 125.1 8.30417 125 7.6125 125C6.82083 124.992 6.07917 125.125 5.3875 125.4C4.70417 125.667 4.15 126.042 3.725 126.525C3.3 127 3.0875 127.558 3.0875 128.2C3.0875 128.95 3.28333 129.529 3.675 129.937C4.075 130.337 4.61667 130.637 5.3 130.837C5.98333 131.037 6.75417 131.217 7.6125 131.375C8.72917 131.567 9.76667 131.867 10.725 132.275C11.6833 132.675 12.4542 133.212 13.0375 133.887C13.6208 134.554 13.9125 135.379 13.9125 136.362C13.9125 137.362 13.6208 138.237 13.0375 138.987C12.4542 139.729 11.6833 140.304 10.725 140.712C9.775 141.121 8.7375 141.325 7.6125 141.325ZM22.0879 141.325C20.9379 141.325 19.8879 141.029 18.9379 140.437C17.9962 139.846 17.2421 139.054 16.6754 138.062C16.1171 137.062 15.8379 135.958 15.8379 134.75C15.8379 133.833 16.0004 132.979 16.3254 132.187C16.6504 131.387 17.0962 130.687 17.6629 130.087C18.2379 129.479 18.9046 129.004 19.6629 128.662C20.4212 128.321 21.2296 128.15 22.0879 128.15C23.0129 128.15 23.8629 128.333 24.6379 128.7C25.4212 129.067 26.0921 129.579 26.6504 130.237C27.2171 130.896 27.6421 131.667 27.9254 132.55C28.2171 133.433 28.3379 134.387 28.2879 135.412H17.6879C17.7879 136.204 18.0379 136.912 18.4379 137.537C18.8462 138.162 19.3629 138.658 19.9879 139.025C20.6212 139.383 21.3212 139.567 22.0879 139.575C22.9212 139.575 23.6712 139.358 24.3379 138.925C25.0129 138.492 25.5546 137.896 25.9629 137.137L27.7379 137.55C27.2379 138.658 26.4837 139.567 25.4754 140.275C24.4671 140.975 23.3379 141.325 22.0879 141.325ZM17.6379 134H26.5254C26.4671 133.225 26.2296 132.517 25.8129 131.875C25.4046 131.225 24.8754 130.708 24.2254 130.325C23.5754 129.933 22.8629 129.737 22.0879 129.737C21.3129 129.737 20.6046 129.929 19.9629 130.312C19.3212 130.687 18.7962 131.2 18.3879 131.85C17.9796 132.492 17.7296 133.208 17.6379 134ZM35.8086 141.325C34.6586 141.325 33.6086 141.029 32.6586 140.437C31.7169 139.846 30.9628 139.054 30.3961 138.062C29.8378 137.062 29.5586 135.958 29.5586 134.75C29.5586 133.833 29.7211 132.979 30.0461 132.187C30.3711 131.387 30.8169 130.687 31.3836 130.087C31.9586 129.479 32.6253 129.004 33.3836 128.662C34.1419 128.321 34.9503 128.15 35.8086 128.15C36.7336 128.15 37.5836 128.333 38.3586 128.7C39.1419 129.067 39.8128 129.579 40.3711 130.237C40.9378 130.896 41.3628 131.667 41.6461 132.55C41.9378 133.433 42.0586 134.387 42.0086 135.412H31.4086C31.5086 136.204 31.7586 136.912 32.1586 137.537C32.5669 138.162 33.0836 138.658 33.7086 139.025C34.3419 139.383 35.0419 139.567 35.8086 139.575C36.6419 139.575 37.3919 139.358 38.0586 138.925C38.7336 138.492 39.2753 137.896 39.6836 137.137L41.4586 137.55C40.9586 138.658 40.2044 139.567 39.1961 140.275C38.1878 140.975 37.0586 141.325 35.8086 141.325ZM31.3586 134H40.2461C40.1878 133.225 39.9503 132.517 39.5336 131.875C39.1253 131.225 38.5961 130.708 37.9461 130.325C37.2961 129.933 36.5836 129.737 35.8086 129.737C35.0336 129.737 34.3253 129.929 33.6836 130.312C33.0419 130.687 32.5169 131.2 32.1086 131.85C31.7003 132.492 31.4503 133.208 31.3586 134ZM50.2793 141V128.5H52.0293V130.225C52.4793 129.592 53.0543 129.087 53.7543 128.712C54.4543 128.337 55.221 128.15 56.0543 128.15C56.996 128.15 57.8585 128.383 58.6418 128.85C59.4251 129.308 60.0376 129.921 60.4793 130.687C60.921 129.921 61.5293 129.308 62.3043 128.85C63.0793 128.383 63.9376 128.15 64.8793 128.15C65.821 128.15 66.6793 128.379 67.4543 128.837C68.2293 129.296 68.846 129.912 69.3043 130.687C69.7626 131.462 69.9918 132.321 69.9918 133.262V141H68.2418V133.65C68.2418 132.983 68.0793 132.367 67.7543 131.8C67.4293 131.233 66.9918 130.779 66.4418 130.437C65.9001 130.087 65.296 129.912 64.6293 129.912C63.9626 129.912 63.3543 130.075 62.8043 130.4C62.2626 130.717 61.8293 131.158 61.5043 131.725C61.1793 132.283 61.0168 132.925 61.0168 133.65V141H59.2668V133.65C59.2668 132.925 59.1043 132.283 58.7793 131.725C58.4543 131.158 58.0168 130.717 57.4668 130.4C56.9168 130.075 56.3085 129.912 55.6418 129.912C54.9835 129.912 54.3793 130.087 53.8293 130.437C53.2793 130.779 52.8418 131.233 52.5168 131.8C52.1918 132.367 52.0293 132.983 52.0293 133.65V141H50.2793ZM77.752 141.325C76.602 141.325 75.552 141.029 74.602 140.437C73.6603 139.846 72.9061 139.054 72.3395 138.062C71.7811 137.062 71.502 135.958 71.502 134.75C71.502 133.833 71.6645 132.979 71.9895 132.187C72.3145 131.387 72.7603 130.687 73.327 130.087C73.902 129.479 74.5686 129.004 75.327 128.662C76.0853 128.321 76.8936 128.15 77.752 128.15C78.902 128.15 79.9478 128.446 80.8895 129.037C81.8395 129.629 82.5936 130.425 83.152 131.425C83.7186 132.425 84.002 133.533 84.002 134.75C84.002 135.658 83.8395 136.508 83.5145 137.3C83.1895 138.092 82.7395 138.792 82.1645 139.4C81.5978 140 80.9353 140.471 80.177 140.812C79.427 141.154 78.6186 141.325 77.752 141.325ZM77.752 139.575C78.602 139.575 79.3645 139.354 80.0395 138.912C80.7228 138.462 81.2603 137.871 81.652 137.137C82.052 136.404 82.252 135.608 82.252 134.75C82.252 133.875 82.052 133.071 81.652 132.337C81.252 131.596 80.7103 131.004 80.027 130.562C79.352 130.121 78.5936 129.9 77.752 129.9C76.902 129.9 76.1353 130.125 75.452 130.575C74.777 131.017 74.2395 131.604 73.8395 132.337C73.4478 133.071 73.252 133.875 73.252 134.75C73.252 135.65 73.4561 136.467 73.8645 137.2C74.2728 137.925 74.8186 138.504 75.502 138.937C76.1853 139.362 76.9353 139.575 77.752 139.575ZM86.1191 141V128.5H87.8691V130.225C88.3108 129.592 88.8858 129.087 89.5941 128.712C90.3025 128.337 91.0733 128.15 91.9066 128.15C92.39 128.15 92.8566 128.212 93.3066 128.337L92.5941 130.075C92.2441 129.967 91.9025 129.912 91.5691 129.912C90.8941 129.912 90.2733 130.079 89.7066 130.412C89.1483 130.746 88.7025 131.192 88.3691 131.75C88.0358 132.308 87.8691 132.929 87.8691 133.612V141H86.1191ZM99.7246 141.325C98.5746 141.325 97.5246 141.029 96.5746 140.437C95.6329 139.846 94.8788 139.054 94.3121 138.062C93.7538 137.062 93.4746 135.958 93.4746 134.75C93.4746 133.833 93.6371 132.979 93.9621 132.187C94.2871 131.387 94.7329 130.687 95.2996 130.087C95.8746 129.479 96.5413 129.004 97.2996 128.662C98.0579 128.321 98.8663 128.15 99.7246 128.15C100.65 128.15 101.5 128.333 102.275 128.7C103.058 129.067 103.729 129.579 104.287 130.237C104.854 130.896 105.279 131.667 105.562 132.55C105.854 133.433 105.975 134.387 105.925 135.412H95.3246C95.4246 136.204 95.6746 136.912 96.0746 137.537C96.4829 138.162 96.9996 138.658 97.6246 139.025C98.2579 139.383 98.9579 139.567 99.7246 139.575C100.558 139.575 101.308 139.358 101.975 138.925C102.65 138.492 103.191 137.896 103.6 137.137L105.375 137.55C104.875 138.658 104.12 139.567 103.112 140.275C102.104 140.975 100.975 141.325 99.7246 141.325ZM95.2746 134H104.162C104.104 133.225 103.866 132.517 103.45 131.875C103.041 131.225 102.512 130.708 101.862 130.325C101.212 129.933 100.5 129.737 99.7246 129.737C98.9496 129.737 98.2413 129.929 97.5996 130.312C96.9579 130.687 96.4329 131.2 96.0246 131.85C95.6163 132.492 95.3663 133.208 95.2746 134ZM114.195 141V128.5H115.945V130.225C116.387 129.592 116.962 129.087 117.67 128.712C118.379 128.337 119.149 128.15 119.983 128.15C120.466 128.15 120.933 128.212 121.383 128.337L120.67 130.075C120.32 129.967 119.979 129.912 119.645 129.912C118.97 129.912 118.349 130.079 117.783 130.412C117.224 130.746 116.779 131.192 116.445 131.75C116.112 132.308 115.945 132.929 115.945 133.612V141H114.195ZM127.801 141.325C126.651 141.325 125.601 141.029 124.651 140.437C123.709 139.846 122.955 139.054 122.388 138.062C121.83 137.062 121.551 135.958 121.551 134.75C121.551 133.833 121.713 132.979 122.038 132.187C122.363 131.387 122.809 130.687 123.376 130.087C123.951 129.479 124.617 129.004 125.376 128.662C126.134 128.321 126.942 128.15 127.801 128.15C128.726 128.15 129.576 128.333 130.351 128.7C131.134 129.067 131.805 129.579 132.363 130.237C132.93 130.896 133.355 131.667 133.638 132.55C133.93 133.433 134.051 134.387 134.001 135.412H123.401C123.501 136.204 123.751 136.912 124.151 137.537C124.559 138.162 125.076 138.658 125.701 139.025C126.334 139.383 127.034 139.567 127.801 139.575C128.634 139.575 129.384 139.358 130.051 138.925C130.726 138.492 131.267 137.896 131.676 137.137L133.451 137.55C132.951 138.658 132.197 139.567 131.188 140.275C130.18 140.975 129.051 141.325 127.801 141.325ZM123.351 134H132.238C132.18 133.225 131.942 132.517 131.526 131.875C131.117 131.225 130.588 130.708 129.938 130.325C129.288 129.933 128.576 129.737 127.801 129.737C127.026 129.737 126.317 129.929 125.676 130.312C125.034 130.687 124.509 131.2 124.101 131.85C123.692 132.492 123.442 133.208 123.351 134ZM141.644 141H139.419L134.856 128.462H136.719L140.531 138.95L144.344 128.462H146.206L141.644 141ZM148.277 128.5H150.027V141H148.277V128.5ZM149.165 126.312C148.882 126.312 148.64 126.221 148.44 126.037C148.248 125.846 148.152 125.608 148.152 125.325C148.152 125.042 148.248 124.808 148.44 124.625C148.64 124.433 148.882 124.337 149.165 124.337C149.44 124.337 149.673 124.433 149.865 124.625C150.065 124.808 150.165 125.042 150.165 125.325C150.165 125.608 150.069 125.846 149.877 126.037C149.686 126.221 149.448 126.312 149.165 126.312ZM158.416 141.325C157.266 141.325 156.216 141.029 155.266 140.437C154.324 139.846 153.57 139.054 153.004 138.062C152.445 137.062 152.166 135.958 152.166 134.75C152.166 133.833 152.329 132.979 152.654 132.187C152.979 131.387 153.424 130.687 153.991 130.087C154.566 129.479 155.233 129.004 155.991 128.662C156.749 128.321 157.558 128.15 158.416 128.15C159.341 128.15 160.191 128.333 160.966 128.7C161.749 129.067 162.42 129.579 162.979 130.237C163.545 130.896 163.97 131.667 164.254 132.55C164.545 133.433 164.666 134.387 164.616 135.412H154.016C154.116 136.204 154.366 136.912 154.766 137.537C155.174 138.162 155.691 138.658 156.316 139.025C156.949 139.383 157.649 139.567 158.416 139.575C159.249 139.575 159.999 139.358 160.666 138.925C161.341 138.492 161.883 137.896 162.291 137.137L164.066 137.55C163.566 138.658 162.812 139.567 161.804 140.275C160.795 140.975 159.666 141.325 158.416 141.325ZM153.966 134H162.854C162.795 133.225 162.558 132.517 162.141 131.875C161.733 131.225 161.204 130.708 160.554 130.325C159.904 129.933 159.191 129.737 158.416 129.737C157.641 129.737 156.933 129.929 156.291 130.312C155.649 130.687 155.124 131.2 154.716 131.85C154.308 132.492 154.058 133.208 153.966 134ZM171.459 141H169.659L165.472 128.5H167.184L170.584 138.575L173.959 128.5H175.809L179.184 138.575L182.559 128.5H184.284L180.097 141H178.284L174.859 130.825L171.459 141ZM190.177 141.238C189.494 141.221 188.827 141.096 188.177 140.862C187.527 140.629 186.96 140.312 186.477 139.912C185.994 139.512 185.648 139.058 185.439 138.55L186.952 137.9C187.085 138.225 187.331 138.525 187.689 138.8C188.056 139.067 188.473 139.283 188.939 139.45C189.406 139.608 189.869 139.687 190.327 139.687C190.835 139.687 191.31 139.604 191.752 139.438C192.194 139.271 192.552 139.033 192.827 138.725C193.11 138.408 193.252 138.037 193.252 137.612C193.252 137.154 193.102 136.796 192.802 136.537C192.502 136.271 192.123 136.062 191.664 135.912C191.206 135.754 190.735 135.604 190.252 135.462C189.369 135.221 188.589 134.954 187.914 134.662C187.239 134.371 186.71 134 186.327 133.55C185.952 133.092 185.764 132.504 185.764 131.787C185.764 131.029 185.977 130.375 186.402 129.825C186.835 129.267 187.398 128.837 188.089 128.537C188.789 128.229 189.535 128.075 190.327 128.075C191.344 128.075 192.269 128.296 193.102 128.737C193.944 129.179 194.552 129.767 194.927 130.5L193.514 131.337C193.364 130.996 193.127 130.7 192.802 130.45C192.477 130.2 192.106 130.004 191.689 129.862C191.281 129.721 190.864 129.646 190.439 129.637C189.906 129.629 189.41 129.708 188.952 129.875C188.494 130.033 188.123 130.271 187.839 130.587C187.564 130.904 187.427 131.292 187.427 131.75C187.427 132.208 187.564 132.558 187.839 132.8C188.114 133.033 188.485 133.225 188.952 133.375C189.427 133.517 189.96 133.683 190.552 133.875C191.31 134.117 192.023 134.392 192.689 134.7C193.356 135.008 193.894 135.392 194.302 135.85C194.71 136.308 194.91 136.887 194.902 137.587C194.902 138.337 194.677 138.992 194.227 139.55C193.777 140.108 193.194 140.537 192.477 140.837C191.76 141.129 190.994 141.263 190.177 141.238Z" fill="white" fill-opacity="0.5"/>
</svg>
