<svg width="110" height="135" viewBox="0 0 110 135" fill="none" xmlns="http://www.w3.org/2000/svg">
<path d="M51.875 66.25H58.125V72.5H51.875V66.25Z" fill="black"/>
<path d="M53.438 50.625H56.563V63.125H53.438V50.625Z" fill="black"/>
<path d="M37.812 50.625H50.312V63.125H37.812V50.625Z" fill="black"/>
<path d="M78.438 50.625H75.313V64.687C75.313 65.5503 74.6138 66.2495 73.7505 66.2495H61.2505V69.3745H76.8755C77.7349 69.3745 78.438 68.6714 78.438 67.812V50.625Z" fill="black"/>
<path d="M59.688 50.625H72.188V63.125H59.688V50.625Z" fill="black"/>
<path d="M48.75 66.25H36.25C35.3867 66.25 34.6875 65.5508 34.6875 64.6875V50.6255H31.5625V67.8135C31.5625 68.6729 32.2656 69.376 33.125 69.376H48.75V66.25Z" fill="black"/>
<path d="M61.25 74.062C61.25 74.9253 60.5508 75.6245 59.6875 75.6245H50.3125C49.4492 75.6245 48.75 74.9253 48.75 74.062V72.4995H34.688V100.624H75.313V72.4995H61.251L61.25 74.062Z" fill="black"/>
<path d="M28.438 67.812V55.312C28.3286 55.312 28.2193 55.3237 28.1099 55.3472L6.23488 60.0347C5.82082 60.1206 5.46144 60.3784 5.23488 60.7378C5.01222 61.0972 4.94191 61.5347 5.04738 61.9409C5.14504 62.3315 7.47708 71.5659 11.7818 80.9639C17.7623 94.0109 24.4148 100.628 31.5628 100.628V72.2369C29.7425 71.5923 28.4378 69.858 28.4378 67.815L28.438 67.812Z" fill="black"/>
<path d="M104.766 60.734C104.543 60.3746 104.18 60.1207 103.766 60.0309L81.891 55.3434C81.7816 55.3199 81.6722 55.3082 81.5629 55.3082V67.8082C81.5629 69.8473 80.2582 71.5816 78.4379 72.2301V100.621C85.5824 100.621 92.2389 94.0078 98.2189 80.9571C102.527 71.5587 104.859 62.3241 104.953 61.9341C105.055 61.524 104.988 61.0904 104.766 60.731L104.766 60.734Z" fill="black"/>
<path d="M45.773 35.965C47.9449 29.0392 49.9957 22.5 54.9996 22.5C60.0035 22.5 62.0582 29.0391 64.2262 35.965C65.5778 40.2697 66.9528 44.6603 69.2262 47.5H75.3121C71.1207 47.5 69.2183 41.4453 67.2105 35.031C64.9097 27.6951 62.3003 19.375 54.9995 19.375C47.6987 19.375 45.0933 27.6914 42.7885 35.031C40.7768 41.4451 38.8783 47.5 34.6869 47.5H40.7728C43.0462 44.6602 44.4253 40.2695 45.773 35.965Z" fill="black"/>
</svg>
