<svg width="93" height="92" viewBox="0 0 93 92" fill="none" xmlns="http://www.w3.org/2000/svg">
<path d="M92.4 20.6C91.8 27.1 89.8 34.8 85.3 39.7C80.2 45.2 73.7 49.2 68.6 54.7C64.2 59.4 64.4 66.8 60.6 71.9C58.7 74.5 55.9 77 53 78.4C46.8 81.3 37.1 77.9 34.7 71.3C33.8 68.7 33.9 65.9 34.6 63.3C36.9 55 43.8 50.2 50.6 45.7C54 43.4 57.4 40.4 57.3 36C57.2 31.9 55.8 28 55.8 23.9C55.6 11.8 67.9 1.7 79.1 0.499996C81.8 0.199996 84.8 0.599996 87.1 2.1C92.8 5.7 92.9 13.8 92.5 19.9C92.4 20.1 92.4 20.3 92.4 20.6Z" fill="#010101"/>
<path d="M17.9 14.1C13.5 18.9 9.10001 25.6 8.50001 32.1C7.80001 39.6 9.20001 47.1 8.50001 54.6C7.90001 61 2.30001 65.8 1.10001 72C0.500006 75.2 0.400007 78.9 1.40001 82C3.40001 88.6 12.4 93.4 18.9 90.8C21.4 89.8 23.5 87.8 24.9 85.5C29.5 78.2 28.4 69.9 27.2 61.8C26.6 57.7 26.6 53.2 29.9 50.3C33 47.6 36.8 46 39.9 43.3C48.9 35.4 48.2 19.5 41.5 10.4C39.9 8.2 37.7 6.3 35 5.5C28.5 3.7 22.4 9 18.2 13.4C18.2 13.8 18.1 13.9 17.9 14.1Z" fill="#010101"/>
</svg>
