<svg width="464" height="464" viewBox="0 0 464 464" fill="none" xmlns="http://www.w3.org/2000/svg">
<path d="M56.336 341.022L83.313 368H140.686L167.664 341.022C153.769 348.272 132.817 352 112 352C91.183 352 70.231 348.272 56.336 341.022Z" fill="black"/>
<path d="M148.441 308.559C144.211 315.417 136.632 320 128 320H96C87.368 320 79.789 315.418 75.559 308.56C61.826 312.472 56 317.723 56 320C56 324.644 75.624 336 112 336C148.376 336 168 324.644 168 320C168 317.723 162.174 312.472 148.441 308.559Z" fill="black"/>
<path d="M128 304C132.411 304 136 300.411 136 296V234.842C119.735 232.103 103.707 228.275 88 223.403V296C88 300.411 91.589 304 96 304H128Z" fill="black"/>
<path d="M88 440C88 453.233 98.767 464 112 464C125.233 464 136 453.233 136 440V384H88V440ZM112 432C116.418 432 120 435.582 120 440C120 444.418 116.418 448 112 448C107.582 448 104 444.418 104 440C104 435.582 107.582 432 112 432Z" fill="black"/>
<path d="M136 8C136 6.009 127.488 0 112 0C96.512 0 88 6.009 88 8V144H136V8Z" fill="black"/>
<path d="M360 160H55.776C99.383 181 147.267 192 195.938 192H347.056H352H360C368.822 192 376 184.822 376 176C376 167.178 368.822 160 360 160Z" fill="black"/>
<path d="M22.048 160H2.422C1.086 160 0 161.086 0 162.422C0 163.234 0.403 163.987 1.078 164.437C59.527 203.403 127.552 224 197.798 224H331.056L339.056 208H195.937C134.681 208 74.609 191.403 22.048 160Z" fill="black"/>
<path d="M387.695 160C390.427 164.711 392 170.174 392 176C392 181.826 390.427 187.289 387.695 192H464V160H387.695Z" fill="black"/>
<path d="M242.084 34.6286L162.08 122.624L173.919 133.388L253.923 45.3925L242.084 34.6286Z" fill="black"/>
<path d="M284.123 81.0238L212.119 121.02L219.888 135.007L291.892 95.0101L284.123 81.0238Z" fill="black"/>
<path d="M173.918 250.603L162.078 261.367L242.082 349.363L253.921 338.599L173.918 250.603Z" fill="black"/>
<path d="M219.883 248.986L212.114 262.973L284.118 302.969L291.887 288.983L219.883 248.986Z" fill="black"/>
</svg>
