<svg width="373" height="333" viewBox="0 0 373 333" fill="none" xmlns="http://www.w3.org/2000/svg">
<path d="M175.1 152.4C177.6 149 176.9 144.2 173.6 141.7C170.2 139.2 165.4 139.9 162.9 143.2C162.8 143.3 162.7 143.5 162.5 143.7C150.1 159.5 120.3 170.8 90 175.6C59.8 180.4 29.8 178.8 16.9 169.1C16.8 169.1 16.7 169 16.6 168.9C13.3 166.3 8.5 166.9 5.9 170.2C3.3 173.5 3.9 178.3 7.2 180.9C7.3 181 7.5 181.1 7.7 181.3C24.1 193.6 58.6 196.1 92.4 190.7C126.1 185.4 159.7 172.2 174.6 153.1C174.7 153 174.9 152.7 175.1 152.4Z" fill="black"/>
<path d="M176.7 147.4C176.4 143.2 172.8 140 168.6 140.2C164.4 140.5 161.2 144.1 161.4 148.3C162.8 169.4 171.7 186 185.6 198.1C200.4 211.1 220.8 218.9 243.3 221.5C248.7 222.1 255 222.4 261.6 222.6C270.8 223 280.9 223.4 290.6 225C309.7 228.1 327.8 235.4 339.9 247.1C349.7 256.5 355.5 269.1 354.5 284.9C354.1 291.5 352.8 298 350.1 303.4C348.3 307 345.8 310.1 342.4 312.2C327.2 314 310.1 315.6 294 316.6C279.3 317.5 265.4 318 254.2 317.7C233.3 317.2 215.4 316 196 313.3C176.7 310.7 155.9 306.6 129 300.4C128.4 300.3 127.8 300.2 127.2 300.2H33.6C31.4 300.2 29.6 299.9 28.1 299.4C23.9 298 21 294.5 19.1 289.9C16.8 284.3 15.9 277.2 15.9 269.7C15.9 257.1 18.4 244.1 21.3 235.5C31 206.3 19 172.5 19 172.4C17.6 168.4 13.2 166.3 9.2 167.7C5.2 169.1 3.10001 173.5 4.50001 177.5C4.50001 177.6 14.8 206.6 6.80001 230.7C3.50001 240.7 0.600006 255.6 0.600006 269.7C0.600006 279 1.80001 288.1 5.00001 295.7C8.50001 304.3 14.4 310.9 23.3 313.9C26.5 315 29.9 315.5 33.6 315.5H126.3C153.1 321.6 174.1 325.7 193.8 328.4C213.7 331.1 232.1 332.4 253.7 332.9C265.5 333.2 279.9 332.7 294.8 331.8C311.8 330.7 329.6 329.1 345.2 327.2C346.3 327.1 347.3 326.8 348.3 326.3C355.3 322.5 360.3 316.9 363.6 310.2C367.3 302.8 369.1 294.3 369.6 285.8C370.9 265 363.2 248.5 350.3 236C335.8 222 314.8 213.4 292.9 209.8C282.3 208.1 271.7 207.6 262 207.3C255.8 207.1 250 206.8 244.8 206.2C225.3 204 207.9 197.4 195.5 186.6C184.8 177.1 177.8 164 176.7 147.4Z" fill="black"/>
<path d="M202.9 194.9C204.3 190.9 202.3 186.5 198.3 185.1C194.3 183.7 189.9 185.7 188.5 189.7C188.5 189.7 182.9 205.2 171.1 211.2C167.3 213.1 165.8 217.7 167.7 221.5C169.6 225.3 174.2 226.8 178 224.9C195.3 216.1 202.9 195 202.9 194.9Z" fill="black"/>
<path d="M230 204.5C229.8 200.3 226.2 197 222 197.2C217.8 197.4 214.5 201 214.7 205.2C214.7 205.2 215.6 221.7 207 231.8C204.2 235 204.6 239.8 207.8 242.6C211 245.4 215.8 245 218.6 241.8C231.2 227 230 204.6 230 204.5Z" fill="black"/>
<path d="M253.6 207.5C252.5 203.4 248.3 201 244.2 202C240.1 203.1 237.7 207.3 238.7 211.4C238.7 211.4 243 227.4 236.7 239C234.7 242.7 236 247.4 239.8 249.4C243.5 251.4 248.2 250.1 250.2 246.3C259.5 229.2 253.7 207.6 253.6 207.5Z" fill="black"/>
<path d="M134.8 310.5C134.8 306.3 131.4 302.8 127.1 302.8C122.9 302.8 119.4 306.2 119.4 310.5V315.9H41.3V310.5C41.3 306.3 37.9 302.8 33.6 302.8C29.4 302.8 25.9 306.2 25.9 310.5V323.6C25.9 327.8 29.3 331.3 33.6 331.3H127.1C131.3 331.3 134.8 327.9 134.8 323.6V310.5Z" fill="black"/>
<path d="M101.3 47.8L107.3 25.1C107.4 24.7 107.5 24.3 107.6 24C110 15.7 115.4 9.09999 122.4 4.99999C129.4 0.899993 137.8 -0.500007 146.2 1.49999C146.6 1.59999 147 1.7 147.3 1.8L348.8 55C357.4 57.3 364.3 62.8 368.4 70C372.6 77.1 374 85.8 371.7 94.4L365.4 118.2L358 116.3L365.4 118.3C364.3 122.4 360.1 124.8 356 123.8C355.8 123.8 355.7 123.7 355.5 123.7L106.4 57.9L108.3 50.5L106.3 57.9C102.2 56.8 99.8 52.6 100.8 48.5C101.2 48.1 101.2 47.9 101.3 47.8ZM122.2 28.4L117.9 44.8L352.7 106.8L357 90.4C358.2 85.9 357.4 81.3 355.2 77.6C353 73.9 349.4 70.9 344.9 69.8L143.4 16.5C143.2 16.5 143.1 16.4 142.9 16.4C138.4 15.2 133.8 16 130.1 18.2C126.5 20.3 123.6 23.8 122.4 28.1C122.3 28.1 122.3 28.3 122.2 28.4Z" fill="black"/>
<path d="M135.5 57.3C136.6 53.2 134.1 49 130 47.9C125.9 46.8 121.7 49.3 120.6 53.4L111.6 87.5C110.5 91.6 113 95.8 117.1 96.9C121.2 98 125.4 95.5 126.5 91.4L135.5 57.3Z" fill="black"/>
<path d="M177.3 68.4C178.4 64.3 175.9 60.1 171.8 59C167.7 57.9 163.5 60.4 162.4 64.5L153.4 98.6C152.3 102.7 154.8 106.9 158.9 108C163 109.1 167.2 106.6 168.3 102.5L177.3 68.4Z" fill="black"/>
<path d="M156.4 62.8C157.5 58.7 155 54.5 150.9 53.4C146.8 52.3 142.6 54.8 141.5 58.9L132.5 93C131.4 97.1 133.9 101.3 138 102.4C142.1 103.5 146.3 101 147.4 96.9L156.4 62.8Z" fill="black"/>
<path d="M219 79.4C220.1 75.3 217.6 71.1 213.5 70C209.4 68.9 205.2 71.4 204.1 75.5L195.1 109.6C194 113.7 196.5 117.9 200.6 119C204.7 120.1 208.9 117.6 210 113.5L219 79.4Z" fill="black"/>
<path d="M198.1 73.9C199.2 69.8 196.7 65.6 192.6 64.5C188.5 63.4 184.3 65.9 183.2 70L174.2 104.1C173.1 108.2 175.6 112.4 179.7 113.5C183.8 114.6 188 112.1 189.1 108L198.1 73.9Z" fill="black"/>
<path d="M281.7 95.9C282.8 91.8 280.3 87.6 276.2 86.5C272.1 85.4 267.9 87.9 266.8 92L257.8 126.1C256.7 130.2 259.2 134.4 263.3 135.5C267.4 136.6 271.6 134.1 272.7 130L281.7 95.9Z" fill="black"/>
<path d="M344.4 112.5C345.5 108.4 343 104.2 338.9 103.1C334.8 102 330.6 104.5 329.5 108.6L320.5 142.7C319.4 146.8 321.9 151 326 152.1C330.1 153.2 334.3 150.7 335.4 146.6L344.4 112.5Z" fill="black"/>
<path d="M260.8 90.4C261.9 86.3 259.4 82.1 255.3 81C251.2 79.9 247 82.4 245.9 86.5L236.9 120.6C235.8 124.7 238.3 128.9 242.4 130C246.5 131.1 250.7 128.6 251.8 124.5L260.8 90.4Z" fill="black"/>
<path d="M239.9 84.9C241 80.8 238.5 76.6 234.4 75.5C230.3 74.4 226.1 76.9 225 81L216 115.1C214.9 119.2 217.4 123.4 221.5 124.5C225.6 125.6 229.8 123.1 230.9 119L239.9 84.9Z" fill="black"/>
<path d="M302.6 101.4C303.7 97.3 301.2 93.1 297.1 92C293 90.9 288.8 93.4 287.7 97.5L278.7 131.6C277.6 135.7 280.1 139.9 284.2 141C288.3 142.1 292.5 139.6 293.6 135.5L302.6 101.4Z" fill="black"/>
<path d="M323.5 107C324.6 102.9 322.1 98.7 318 97.6C313.9 96.5 309.7 99 308.6 103.1L299.6 137.2C298.5 141.3 301 145.5 305.1 146.6C309.2 147.7 313.4 145.2 314.5 141.1L323.5 107Z" fill="black"/>
</svg>
