<svg width="91" height="84" viewBox="0 0 91 84" fill="none" xmlns="http://www.w3.org/2000/svg">
<path d="M6.99999 11.52C6.15068 11.5208 5.31157 11.705 4.53999 12.06C1.25999 13.58 0.00999147 17.85 1.73999 21.6C2.00977 22.1767 2.34533 22.7203 2.73999 23.22C5.77698 27.002 8.38307 31.1107 10.51 35.47L13.51 41.94C16.3863 48.1238 19.6218 54.1341 23.2 59.94L37.64 83.46L29.07 57.28C26.9497 50.7837 24.4453 44.4192 21.57 38.22L18.57 31.75C16.6161 27.3105 15.1702 22.6643 14.26 17.9C14.1358 17.2773 13.9342 16.6727 13.66 16.1C13.3923 15.5221 13.0566 14.9783 12.66 14.48C13.02 14.13 13.39 13.78 13.76 13.48C15.0237 12.2631 16.6349 11.4698 18.37 11.21C20 11.1 21.43 11.88 22.75 13.62C25.14 16.76 25.46 21.52 25.75 25.71C26.05 30.13 26.31 33.95 28.75 35.48C29.4959 35.9235 30.3526 36.1455 31.22 36.12C32.1654 36.0911 33.1017 35.9261 34 35.63C34.5341 35.4792 35.0585 35.2955 35.57 35.08L37 36.53L31 42.53L37 48.53L31 54.53L37 60.53L43 54.53L49 60.53L55 54.53L61 60.53L67 54.53L73 60.53L79 54.53L85 60.53L91 54.53L85 48.53L91 42.53L85 36.53L91 30.53L85 24.53L91 18.53L85 12.53L91 6.53L85 0.529999L79 6.53L73 0.529999L67 6.53L61 0.529999L55 6.53L49 0.529999L43 6.53L37 0.529999L31 6.53L37 12.53L31 18.53L37 24.53L31 30.53L34.4 33.93C33.8688 34.1313 33.3241 34.295 32.77 34.42C31.7108 34.7638 30.5593 34.6813 29.56 34.19C27.73 33.06 27.49 29.43 27.23 25.59C26.93 21.19 26.59 16.19 23.93 12.69C22.31 10.55 20.4 9.54 18.25 9.69C16.1829 9.984 14.2596 10.9176 12.75 12.36C12.37 12.6933 12 13.0267 11.64 13.36C10.372 12.1973 8.72021 11.5423 6.99999 11.52ZM6.16999 19.83C5.86731 19.2097 5.77263 18.5084 5.89999 17.83C5.9373 17.5953 6.0291 17.3727 6.16803 17.1799C6.30697 16.9871 6.48916 16.8296 6.69999 16.72C6.86492 16.6393 7.04639 16.5982 7.22999 16.6C7.52419 16.6095 7.812 16.6883 8.06999 16.83C8.20115 16.9063 8.32801 16.9897 8.44999 17.08C7.53999 18.31 6.81999 19.43 6.36999 20.17C6.31136 20.0592 6.25797 19.9458 6.20999 19.83H6.16999ZM9.66999 20.31C9.63446 20.5453 9.54456 20.769 9.40742 20.9634C9.27028 21.1578 9.08969 21.3176 8.87999 21.43C8.65795 21.5175 8.41861 21.5522 8.18085 21.5314C7.9431 21.5106 7.71343 21.4348 7.50999 21.31H7.45999C7.83999 20.68 8.50999 19.6 9.40999 18.31C9.72638 18.9258 9.83178 19.6285 9.70999 20.31H9.66999ZM40 31.14C45.9954 27.5924 51.4228 23.1628 56.1 18C60.38 13.46 62.53 11.19 68.54 15.78L71.61 18.85L74.61 15.85C74.6789 15.7792 74.7614 15.723 74.8524 15.6846C74.9434 15.6462 75.0412 15.6264 75.14 15.6264C75.2388 15.6264 75.3366 15.6462 75.4276 15.6846C75.5186 15.723 75.601 15.7792 75.67 15.85C75.8104 15.9906 75.8893 16.1812 75.8893 16.38C75.8893 16.5787 75.8104 16.7694 75.67 16.91L72.67 19.91L75.67 22.91C75.7416 22.9789 75.7989 23.0613 75.8386 23.1524C75.8783 23.2435 75.8997 23.3415 75.9016 23.4409C75.9035 23.5402 75.8857 23.639 75.8494 23.7315C75.8131 23.824 75.7589 23.9084 75.69 23.98C75.6211 24.0516 75.5387 24.1089 75.4476 24.1486C75.3565 24.1883 75.2585 24.2097 75.1591 24.2116C75.0598 24.2135 74.961 24.1957 74.8685 24.1594C74.776 24.1231 74.6916 24.0689 74.62 24L71.62 21L65.62 27L68.62 30C68.7604 30.1406 68.8393 30.3312 68.8393 30.53C68.8393 30.7287 68.7604 30.9194 68.62 31.06C68.4794 31.2005 68.2887 31.2793 68.09 31.2793C67.8912 31.2793 67.7006 31.2005 67.56 31.06L64.56 28.06L58.56 34.06L61.56 37.06C61.7004 37.2006 61.7793 37.3912 61.7793 37.59C61.7793 37.7888 61.7004 37.9794 61.56 38.12C61.4907 38.1901 61.4082 38.2457 61.3172 38.2835C61.2262 38.3212 61.1285 38.3405 61.03 38.34C60.9314 38.341 60.8336 38.3221 60.7425 38.2843C60.6514 38.2465 60.5689 38.1906 60.5 38.12L57.5 35.12L51.5 41.12L54.5 44.12C54.6404 44.2606 54.7193 44.4513 54.7193 44.65C54.7193 44.8488 54.6404 45.0394 54.5 45.18C54.4307 45.2501 54.3482 45.3057 54.2572 45.3435C54.1662 45.3812 54.0685 45.4005 53.97 45.4C53.8714 45.401 53.7736 45.3821 53.6825 45.3443C53.5914 45.3064 53.5089 45.2506 53.44 45.18L50.44 42.18L47.44 45.18C47.3707 45.2501 47.2882 45.3057 47.1972 45.3435C47.1062 45.3812 47.0085 45.4005 46.91 45.4C46.8112 45.4022 46.713 45.3838 46.6218 45.3459C46.5305 45.308 46.4482 45.2515 46.38 45.18C46.3092 45.1111 46.253 45.0286 46.2146 44.9376C46.1762 44.8466 46.1564 44.7488 46.1564 44.65C46.1564 44.5512 46.1762 44.4534 46.2146 44.3624C46.253 44.2714 46.3092 44.1889 46.38 44.12L49.38 41.12L46.38 38.12C46.3092 38.0511 46.253 37.9686 46.2146 37.8776C46.1762 37.7866 46.1564 37.6888 46.1564 37.59C46.1564 37.4912 46.1762 37.3934 46.2146 37.3024C46.253 37.2114 46.3092 37.1289 46.38 37.06C46.5206 36.9196 46.7112 36.8407 46.91 36.8407C47.1087 36.8407 47.2994 36.9196 47.44 37.06L50.44 40.06L56.44 34.06L53.44 31.06C53.3692 30.9911 53.313 30.9086 53.2746 30.8176C53.2362 30.7266 53.2164 30.6288 53.2164 30.53C53.2164 30.4312 53.2362 30.3334 53.2746 30.2424C53.313 30.1514 53.3692 30.0689 53.44 30C53.5806 29.8595 53.7712 29.7807 53.97 29.7807C54.1687 29.7807 54.3594 29.8595 54.5 30L57.5 33L63.5 27L60.5 24C60.3595 23.8594 60.2807 23.6687 60.2807 23.47C60.2807 23.2712 60.3595 23.0806 60.5 22.94C60.5689 22.8692 60.6514 22.813 60.7424 22.7746C60.8334 22.7362 60.9312 22.7164 61.03 22.7164C61.1288 22.7164 61.2266 22.7362 61.3176 22.7746C61.4086 22.813 61.491 22.8692 61.56 22.94L64.56 25.94L70.56 19.94L67.56 16.94C62.7 13.23 61.56 14.46 57.2 19.06C52.4291 24.3159 46.8936 28.8231 40.78 32.43C39.2123 33.3942 37.582 34.2528 35.9 35C35.9969 34.9664 36.0858 34.9133 36.1614 34.844C36.2369 34.7746 36.2974 34.6905 36.3392 34.5969C36.3809 34.5033 36.4031 34.4021 36.4042 34.2995C36.4053 34.197 36.3853 34.0953 36.3456 34.0008C36.3059 33.9063 36.2472 33.8209 36.1732 33.75C36.0992 33.679 36.0114 33.624 35.9153 33.5883C35.8191 33.5526 35.7167 33.537 35.6143 33.5425C35.512 33.5479 35.4118 33.5743 35.32 33.62C36.9342 32.8999 38.4978 32.0714 40 31.14Z" fill="black"/>
</svg>
