<svg width="100%" height="200px" viewBox="0 0 500 200" xmlns="http://www.w3.org/2000/svg">
  <defs>
    <linearGradient id="grad1" x1="0%" y1="0%" x2="100%" y2="100%">
      <stop offset="0%" style="stop-color:rgb(255,255,255);stop-opacity:1" />
      <stop offset="100%" style="stop-color:rgb(200,200,200);stop-opacity:1" />
    </linearGradient>
  </defs>
  <rect width="100%" height="100%" fill="url(#grad1)" />
  <!-- Top Wave -->
  <path d="M0,50 Q10,30 20,50 T40,50 T60,50 T80,50 T100,50 T120,50 T140,50 T160,50 T180,50 T200,50 T220,50 T240,50 T260,50 T280,50 T300,50 T320,50 T340,50 T360,50 T380,50 T400,50 T420,50 T440,50 T460,50 T480,50 V0 H0 Z" fill="black" />
  <!-- Bottom Wave -->
  <path d="M0,150 Q10,130 20,150 T40,150 T60,150 T80,150 T100,150 T120,150 T140,150 T160,150 T180,150 T200,150 T220,150 T240,150 T260,150 T280,150 T300,150 T320,150 T340,150 T360,150 T380,150 T400,150 T420,150 T440,150 T460,150 T480,150 V200 H0 Z" fill="black" />
</svg>
