<svg width="100" height="52" viewBox="0 0 100 52" fill="none" xmlns="http://www.w3.org/2000/svg">
<path d="M98.34 37.01C97.01 35.86 84.05 27.02 81.9 26.26C81.72 26.26 81.57 26.23 81.39 26.23C81.36 26.23 81.33 26.23 81.33 26.23C78.45 26.14 75.79 25.35 73.46 24.05C73.01 26.99 70.46 29.26 67.4 29.26H67.1C67.22 29.35 67.28 29.5 67.43 29.59C69.1 30.8 70.52 32.38 71.64 34.28C71.64 34.31 71.67 34.34 71.7 34.37C71.7 34.37 71.7 34.37 71.7 34.4C72.34 35.46 72.88 36.67 73.3 38C74.72 39.82 87.08 49.45 88.56 50.38C90.68 51.71 93.59 51.08 95.16 48.96L98.98 43.69C100.55 41.55 100.28 38.61 98.34 37.01ZM93.62 43.82C92.83 44.88 91.68 45.58 90.38 45.79C90.14 45.82 89.87 45.85 89.62 45.85C88.59 45.85 87.56 45.52 86.71 44.88L84.14 43C83.08 42.24 82.38 41.09 82.17 39.79C82.14 39.52 82.11 39.28 82.11 39C82.11 37.97 82.44 36.94 83.08 36.09C84.68 33.91 87.77 33.43 89.98 35.03L92.52 36.91C93.61 37.67 94.31 38.82 94.52 40.12C94.71 41.43 94.41 42.73 93.62 43.82Z" fill="black"/>
<path d="M63.04 20.2C61.47 20.2 60.19 21.5 60.19 23.08C60.19 24.65 61.46 25.93 63.04 25.93H67.4C68.97 25.93 70.25 24.66 70.25 23.08C70.25 21.51 68.98 20.2 67.4 20.2H63.04Z" fill="black"/>
<path d="M65.46 32.25C64.4 31.46 63.58 30.43 63.07 29.25H63.04C59.65 29.25 56.86 26.46 56.86 23.07C56.86 19.68 59.65 16.89 63.04 16.89H67.4C69.55 16.89 71.46 18.01 72.55 19.71C73.06 19.89 73.55 20.16 74 20.5C75.64 21.68 77.6 22.44 79.75 22.74V15.35C74.72 15.05 69.7 13.17 65.15 9.87C63.58 8.75 61.73 8.14 59.82 8.14C54.79 8.14 50.68 12.23 50.68 17.28V28.85C50.68 33.88 54.8 37.99 59.82 37.99C61.76 37.99 63.61 37.38 65.15 36.26C66 35.62 66.88 35.08 67.75 34.56C67.09 33.71 66.34 32.89 65.46 32.25Z" fill="black"/>
<path d="M33.97 24.67L35.26 34.45C35.37 35.28 36.08 35.89 36.9 35.89C36.97 35.89 37.04 35.89 37.12 35.88C38.03 35.76 38.66 34.93 38.54 34.02L37.25 24.24C37.13 23.33 36.3 22.7 35.39 22.82C34.49 22.93 33.85 23.76 33.97 24.67Z" fill="black"/>
<path d="M29.84 23.73C28.94 23.91 28.36 24.78 28.54 25.68L30.46 35.35C30.62 36.14 31.31 36.68 32.08 36.68C32.19 36.68 32.3 36.67 32.41 36.65C33.31 36.47 33.89 35.6 33.71 34.7L31.79 25.03C31.61 24.13 30.73 23.55 29.84 23.73Z" fill="black"/>
<path d="M26.38 26.18C26.14 25.3 25.24 24.78 24.35 25.01C23.47 25.25 22.94 26.15 23.18 27.04L25.73 36.57C25.93 37.31 26.6 37.8 27.33 37.8C27.47 37.8 27.62 37.78 27.76 37.74C28.64 37.5 29.17 36.6 28.93 35.71L26.38 26.18Z" fill="black"/>
<path d="M21.07 27.68C20.78 26.82 19.84 26.35 18.97 26.65C18.11 26.94 17.64 27.88 17.94 28.75L21.11 38.09C21.34 38.78 21.99 39.21 22.68 39.21C22.86 39.21 23.04 39.18 23.21 39.12C24.07 38.83 24.54 37.89 24.24 37.02L21.07 27.68Z" fill="black"/>
<path d="M15.87 29.52C15.52 28.68 14.56 28.27 13.71 28.63C12.87 28.98 12.47 29.95 12.82 30.79L16.59 39.9C16.85 40.54 17.47 40.92 18.12 40.92C18.33 40.92 18.55 40.88 18.75 40.79C19.59 40.44 19.99 39.47 19.65 38.63L15.87 29.52Z" fill="black"/>
<path d="M10.79 31.7C10.39 30.88 9.39 30.55 8.57 30.95C7.75 31.35 7.41 32.35 7.82 33.17L12.18 42.02C12.47 42.6 13.06 42.94 13.67 42.94C13.92 42.94 14.17 42.89 14.4 42.77C15.22 42.37 15.56 41.37 15.15 40.55L10.79 31.7Z" fill="black"/>
<path d="M5.87001 34.21C5.41001 33.42 4.40001 33.15 3.61001 33.6C2.82001 34.06 2.55001 35.07 3.00001 35.86L7.93001 44.4C8.24001 44.93 8.79001 45.23 9.36001 45.23C9.64001 45.23 9.93001 45.16 10.19 45.01C10.98 44.55 11.25 43.54 10.8 42.75L5.87001 34.21Z" fill="black"/>
<path d="M38.21 23.88C38.25 23.88 38.28 23.88 38.32 23.88C38.91 23.88 39.42 23.55 39.71 23.08C39.54 23.36 39.43 23.67 39.45 24.02L40.1 33.86C40.16 34.74 40.89 35.41 41.75 35.41C41.79 35.41 41.82 35.41 41.86 35.41C42.77 35.35 43.46 34.56 43.4 33.65L42.75 23.81C42.75 23.74 42.71 23.68 42.69 23.61C42.99 23.89 43.38 24.07 43.83 24.07C44.74 24.07 45.48 23.33 45.48 22.42V12.56C45.48 11.65 44.74 10.91 43.83 10.91C42.92 10.91 42.18 11.65 42.18 12.56V22.42C42.18 22.54 42.22 22.64 42.25 22.76C41.92 22.44 41.48 22.25 41 22.28C40.52 22.31 40.11 22.55 39.83 22.9C39.9 22.73 39.96 22.55 39.97 22.35L40.62 12.51C40.68 11.6 39.99 10.81 39.08 10.75C38.17 10.69 37.38 11.38 37.32 12.29L36.67 22.13C36.61 23.03 37.3 23.82 38.21 23.88Z" fill="black"/>
<path d="M32.61 23.33C32.68 23.34 32.76 23.34 32.83 23.34C33.65 23.34 34.36 22.73 34.47 21.9L35.76 12.12C35.88 11.21 35.24 10.38 34.34 10.26C33.44 10.14 32.6 10.78 32.48 11.68L31.19 21.46C31.06 22.38 31.7 23.21 32.61 23.33Z" fill="black"/>
<path d="M27.05 22.41C27.16 22.43 27.27 22.44 27.38 22.44C28.15 22.44 28.84 21.9 29 21.11L30.92 11.44C31.1 10.54 30.52 9.67 29.62 9.49C28.73 9.31 27.85 9.89 27.67 10.79L25.75 20.46C25.58 21.36 26.16 22.23 27.05 22.41Z" fill="black"/>
<path d="M21.57 21.13C21.71 21.17 21.86 21.19 22 21.19C22.73 21.19 23.4 20.7 23.6 19.96L26.15 10.43C26.39 9.54999 25.86 8.63999 24.98 8.39999C24.1 8.16999 23.19 8.68999 22.95 9.56999L20.4 19.1C20.17 19.99 20.69 20.9 21.57 21.13Z" fill="black"/>
<path d="M16.19 19.5C16.37 19.56 16.55 19.59 16.72 19.59C17.41 19.59 18.05 19.16 18.29 18.47L21.46 9.13C21.75 8.27 21.29 7.33 20.43 7.03C19.56 6.73 18.63 7.2 18.33 8.06L15.16 17.4C14.86 18.27 15.32 19.21 16.19 19.5Z" fill="black"/>
<path d="M10.92 17.52C11.13 17.61 11.34 17.65 11.55 17.65C12.2 17.65 12.82 17.27 13.08 16.63L16.85 7.52C17.2 6.68 16.8 5.71 15.96 5.36C15.11 5.01 14.15 5.41 13.8 6.25L10.03 15.36C9.66999 16.2 10.07 17.17 10.92 17.52Z" fill="black"/>
<path d="M5.78999 15.2C6.01999 15.32 6.26999 15.37 6.51999 15.37C7.12999 15.37 7.71999 15.03 8.00999 14.45L12.37 5.6C12.77 4.78 12.44 3.79 11.62 3.38C10.8 2.98 9.80999 3.31 9.39999 4.13L5.03999 12.98C4.63999 13.8 4.96999 14.79 5.78999 15.2Z" fill="black"/>
<path d="M8.02001 3.39C8.48001 2.6 8.21001 1.59 7.41001 1.13C6.62001 0.669995 5.61001 0.939996 5.15001 1.74L0.220007 10.28C-0.239993 11.07 0.030007 12.08 0.830007 12.54C1.09001 12.69 1.38001 12.76 1.66001 12.76C2.23001 12.76 2.79001 12.46 3.09001 11.93L8.02001 3.39Z" fill="black"/>
</svg>
