<svg width="57" height="57" viewBox="0 0 57 57" fill="none" xmlns="http://www.w3.org/2000/svg">
<path d="M48.9844 6.23438H8.01562C7.03037 6.23438 6.23438 7.03037 6.23438 8.01562V48.9844C6.23438 49.9696 7.03037 50.7656 8.01562 50.7656H48.9844C49.9696 50.7656 50.7656 49.9696 50.7656 48.9844V8.01562C50.7656 7.03037 49.9696 6.23438 48.9844 6.23438ZM43.841 19.2319H40.2841C37.4953 19.2319 36.9554 20.5567 36.9554 22.505V26.7967H43.6128L42.7444 33.5153H36.9554V50.7656H30.0141V33.5209H24.2083V26.7967H30.0141V21.8426C30.0141 16.0925 33.5265 12.9586 38.6587 12.9586C41.119 12.9586 43.2287 13.1423 43.8466 13.2258V19.2319H43.841Z" fill="#2E201C" fill-opacity="0.2"/>
</svg>
