<svg width="59" height="59" viewBox="0 0 59 59" fill="none" xmlns="http://www.w3.org/2000/svg">
<path d="M29.5 21.8197C25.2709 21.8197 21.8197 25.271 21.8197 29.5001C21.8197 33.7292 25.2709 37.1804 29.5 37.1804C33.7291 37.1804 37.1804 33.7292 37.1804 29.5001C37.1804 25.271 33.7291 21.8197 29.5 21.8197ZM52.5354 29.5001C52.5354 26.3196 52.5642 23.1679 52.3856 19.9932C52.207 16.3057 51.3658 13.0331 48.6693 10.3366C45.967 7.63433 42.7001 6.79888 39.0126 6.62027C35.8322 6.44166 32.6805 6.47046 29.5058 6.47046C26.3253 6.47046 23.1737 6.44166 19.999 6.62027C16.3115 6.79888 13.0388 7.64009 10.3423 10.3366C7.64007 13.0388 6.80462 16.3057 6.62601 19.9932C6.44739 23.1737 6.4762 26.3253 6.4762 29.5001C6.4762 32.6748 6.44739 35.8322 6.62601 39.0069C6.80462 42.6944 7.64583 45.967 10.3423 48.6635C13.0446 51.3658 16.3115 52.2012 19.999 52.3798C23.1794 52.5585 26.3311 52.5296 29.5058 52.5296C32.6863 52.5296 35.8379 52.5585 39.0126 52.3798C42.7001 52.2012 45.9728 51.36 48.6693 48.6635C51.3715 45.9613 52.207 42.6944 52.3856 39.0069C52.57 35.8322 52.5354 32.6805 52.5354 29.5001V29.5001ZM29.5 41.3173C22.9605 41.3173 17.6827 36.0396 17.6827 29.5001C17.6827 22.9605 22.9605 17.6828 29.5 17.6828C36.0396 17.6828 41.3173 22.9605 41.3173 29.5001C41.3173 36.0396 36.0396 41.3173 29.5 41.3173ZM41.8013 19.9586C40.2744 19.9586 39.0414 18.7256 39.0414 17.1988C39.0414 15.6719 40.2744 14.4389 41.8013 14.4389C43.3282 14.4389 44.5612 15.6719 44.5612 17.1988C44.5616 17.5613 44.4905 17.9204 44.352 18.2555C44.2135 18.5905 44.0102 18.8949 43.7538 19.1513C43.4975 19.4077 43.193 19.611 42.858 19.7495C42.5229 19.888 42.1639 19.9591 41.8013 19.9586V19.9586Z" fill="#2E201C" fill-opacity="0.2"/>
</svg>
