<svg width="333" height="193" viewBox="0 0 333 193" fill="none" xmlns="http://www.w3.org/2000/svg">
<g filter="url(#filter0_d_119_75)">
<path d="M55.6358 77.0911V124.436C55.6358 124.909 55.8798 125.349 56.2797 125.593C56.4956 125.725 56.7396 125.797 56.9875 125.797C57.1915 125.797 57.4075 125.745 57.6034 125.653L83.414 112.57L109.133 125.612H109.165L109.205 125.644C109.205 125.644 109.296 125.676 109.348 125.696C109.38 125.708 109.42 125.728 109.452 125.736C109.564 125.768 109.676 125.788 109.788 125.788C109.9 125.788 110.012 125.768 110.124 125.736C110.164 125.736 110.196 125.716 110.228 125.696C110.268 125.684 110.308 125.676 110.352 125.656H110.364L110.404 125.624H110.436L136.767 112.253C137.227 112.017 137.515 111.556 137.515 111.044L137.507 64.5788C137.507 64.1186 137.271 63.6783 136.871 63.4302C136.483 63.186 135.979 63.154 135.559 63.3501L130.08 65.9435C128.605 58.5755 122.974 53.0762 116.259 53.0762C108.417 53.0762 102.05 60.5562 102.05 69.7456C102.05 70.482 102.142 71.2423 102.306 72.0188L83.9701 63.3421C83.9701 63.3421 83.9182 63.3221 83.8902 63.3101C83.8582 63.2981 83.8182 63.2901 83.7862 63.2781C83.6542 63.2381 83.5182 63.2181 83.3783 63.2181H83.3263C83.1743 63.2181 83.0183 63.2701 82.8664 63.3301C82.8464 63.3301 82.8264 63.3301 82.8144 63.3421L56.3915 75.8529C55.9196 76.077 55.6117 76.5613 55.6117 77.0815L55.6358 77.0911ZM134.815 66.7339V110.205L111.197 122.183L111.165 87.6572C113.356 90.3427 115.128 92.1757 115.32 92.3798C115.576 92.6479 115.924 92.788 116.292 92.788C116.659 92.788 117.007 92.6439 117.263 92.3798C117.807 91.8275 130.501 78.6601 130.501 69.7598C130.501 69.4316 130.469 69.1155 130.461 68.7953L134.812 66.7342L134.815 66.7339ZM116.295 55.7999C122.634 55.7999 127.792 62.0593 127.792 69.7553C127.792 76.2628 119.234 86.2198 116.295 89.4461C113.96 86.8847 108.085 80.0731 105.77 74.1178V74.0858C105.166 72.561 104.798 71.0842 104.798 69.7634C104.798 62.0674 109.957 55.8081 116.295 55.8081L116.295 55.7999ZM84.7737 66.7339L103.446 75.5746C104.665 78.4962 106.537 81.4978 108.44 84.1392L108.472 122.232L84.7616 110.214V66.7342L84.7737 66.7339ZM58.3509 77.9517L82.0617 66.7339V110.205L58.3509 122.223L58.3469 77.9517H58.3509Z" fill="white"/>
<path d="M116.295 76.3227C121.178 76.3227 125.149 72.3486 125.149 67.462C125.149 62.5754 121.178 58.6013 116.295 58.6013C111.412 58.6013 107.441 62.5754 107.441 67.462C107.441 72.3486 111.412 76.3227 116.295 76.3227ZM116.295 61.3223C119.682 61.3223 122.426 64.0798 122.426 67.4696C122.426 70.8594 119.67 73.6049 116.295 73.6049C112.916 73.6049 110.152 70.8474 110.152 67.4696C110.152 64.0878 112.908 61.3223 116.295 61.3223Z" fill="white"/>
<path d="M188.419 92.2093C188.419 143.135 147.135 184.419 96.2093 184.419C45.2835 184.419 4 143.135 4 92.2093C4 41.2835 45.2835 0 96.2093 0C147.135 0 188.419 41.2835 188.419 92.2093ZM11.7849 92.2093C11.7849 138.836 49.583 176.634 96.2093 176.634C142.836 176.634 180.634 138.836 180.634 92.2093C180.634 45.583 142.836 7.78492 96.2093 7.78492C49.583 7.78492 11.7849 45.583 11.7849 92.2093Z" fill="#D05151"/>
<path fill-rule="evenodd" clip-rule="evenodd" d="M329 58.9535H177.837C186.259 90.9666 184.956 107.129 177.837 134.535H329L308.297 97.1221L329 58.9535Z" fill="#D05151"/>
<path d="M212.06 90.9186H220.74V92.9386H214.14V97.3386H219.9V99.3386H214.14V105.419H212.06V90.9186ZM223.876 90.9186H225.956V105.419H223.876V90.9186ZM242.688 105.919L232.128 95.3786L232.168 105.419H230.068V90.4586H230.148L240.708 101.139L240.668 90.9186H242.748V105.919H242.688ZM246.865 105.419V90.9186H250.885C252.325 90.9186 253.545 91.1386 254.545 91.5786C255.545 92.0052 256.358 92.5852 256.985 93.3186C257.611 94.0386 258.065 94.8386 258.345 95.7186C258.638 96.5986 258.785 97.4786 258.785 98.3586C258.785 99.4386 258.591 100.419 258.205 101.299C257.831 102.165 257.305 102.905 256.625 103.519C255.958 104.132 255.191 104.605 254.325 104.939C253.458 105.259 252.545 105.419 251.585 105.419H246.865ZM248.945 103.399H251.185C252.238 103.399 253.171 103.199 253.985 102.799C254.798 102.399 255.438 101.812 255.905 101.039C256.385 100.265 256.625 99.3252 256.625 98.2186C256.625 97.3119 256.471 96.5319 256.165 95.8786C255.871 95.2119 255.478 94.6652 254.985 94.2386C254.491 93.7986 253.938 93.4719 253.325 93.2586C252.711 93.0452 252.085 92.9386 251.445 92.9386H248.945V103.399ZM266.46 100.239C266.46 100.852 266.606 101.412 266.9 101.919C267.206 102.412 267.62 102.805 268.14 103.099C268.66 103.392 269.233 103.539 269.86 103.539C270.526 103.539 271.12 103.392 271.64 103.099C272.16 102.805 272.566 102.412 272.86 101.919C273.166 101.412 273.32 100.852 273.32 100.239V90.9186H275.38V100.299C275.38 101.352 275.133 102.279 274.64 103.079C274.146 103.865 273.48 104.479 272.64 104.919C271.813 105.359 270.886 105.579 269.86 105.579C268.833 105.579 267.9 105.359 267.06 104.919C266.233 104.479 265.573 103.865 265.08 103.079C264.6 102.279 264.36 101.352 264.36 100.299V90.9186H266.46V100.239ZM286.827 93.6586C286.32 93.3919 285.773 93.1652 285.187 92.9786C284.6 92.7919 284.033 92.6986 283.487 92.6986C282.727 92.6986 282.127 92.8719 281.687 93.2186C281.247 93.5519 281.027 94.0186 281.027 94.6186C281.027 95.0319 281.173 95.3919 281.467 95.6986C281.76 96.0052 282.14 96.2719 282.607 96.4986C283.073 96.7252 283.567 96.9386 284.087 97.1386C284.687 97.3519 285.267 97.6252 285.827 97.9586C286.387 98.2786 286.847 98.7119 287.207 99.2586C287.567 99.8052 287.747 100.539 287.747 101.459C287.747 102.219 287.553 102.912 287.167 103.539C286.78 104.165 286.227 104.665 285.507 105.039C284.8 105.399 283.947 105.579 282.947 105.579C282.013 105.579 281.127 105.432 280.287 105.139C279.46 104.832 278.747 104.472 278.147 104.059L279.087 102.399C279.553 102.759 280.127 103.072 280.807 103.339C281.487 103.605 282.133 103.739 282.747 103.739C283.2 103.739 283.64 103.665 284.067 103.519C284.493 103.359 284.847 103.112 285.127 102.779C285.42 102.445 285.567 102.005 285.567 101.459C285.567 101.005 285.44 100.619 285.187 100.299C284.933 99.9786 284.6 99.7052 284.187 99.4786C283.787 99.2519 283.353 99.0519 282.887 98.8786C282.433 98.7052 281.967 98.5186 281.487 98.3186C281.02 98.1052 280.587 97.8452 280.187 97.5386C279.8 97.2319 279.48 96.8586 279.227 96.4186C278.987 95.9652 278.867 95.4186 278.867 94.7786C278.867 93.9919 279.047 93.3119 279.407 92.7386C279.78 92.1652 280.293 91.7119 280.947 91.3786C281.6 91.0452 282.347 90.8652 283.187 90.8386C284.147 90.8386 284.987 90.9586 285.707 91.1986C286.427 91.4252 287.06 91.7052 287.607 92.0386L286.827 93.6586Z" fill="white"/>
</g>
<defs>
<filter id="filter0_d_119_75" x="0" y="0" width="333" height="192.419" filterUnits="userSpaceOnUse" color-interpolation-filters="sRGB">
<feFlood flood-opacity="0" result="BackgroundImageFix"/>
<feColorMatrix in="SourceAlpha" type="matrix" values="0 0 0 0 0 0 0 0 0 0 0 0 0 0 0 0 0 0 127 0" result="hardAlpha"/>
<feOffset dy="4"/>
<feGaussianBlur stdDeviation="2"/>
<feComposite in2="hardAlpha" operator="out"/>
<feColorMatrix type="matrix" values="0 0 0 0 0 0 0 0 0 0 0 0 0 0 0 0 0 0 0.25 0"/>
<feBlend mode="normal" in2="BackgroundImageFix" result="effect1_dropShadow_119_75"/>
<feBlend mode="normal" in="SourceGraphic" in2="effect1_dropShadow_119_75" result="shape"/>
</filter>
</defs>
</svg>
