<svg width="715" height="489" viewBox="0 0 715 489" fill="none" xmlns="http://www.w3.org/2000/svg">
<g filter="url(#filter0_d_5_50)">
<path d="M522.928 150.289C531.919 123.946 553.723 116.831 576.025 111.235C594.974 106.48 694.299 132.845 694.299 132.845C694.299 132.845 639.218 146.369 626.511 155.153C603.603 170.989 546.161 165.645 522.928 150.289L496.47 151.687C491.579 153.45 486.688 155.213 470.011 153.086C490.673 167.69 546.366 185.784 553.874 214.12C560.206 238.014 554.544 278.542 554.544 278.542C554.544 278.542 524.359 253.241 515.94 227.977C507.189 201.712 461.807 179.527 470.011 153.086L425.37 154.181L388.583 148.574C400.006 172.021 445.043 184.416 445.329 211.883C445.614 239.349 431.185 279.825 431.185 279.825C431.185 279.825 408.947 236.221 410.231 205.516C411.31 179.721 375.218 168.057 388.583 148.574C385.101 149.387 382.128 149.943 379.515 150.314C355.514 155.673 341.958 164.517 311.563 160.903C329.15 179.876 375.099 200.37 376.971 229.422C378.654 255.549 362.792 293.998 362.792 293.998C362.792 293.998 347.683 259.424 344.663 235.047C341.194 207.043 304.05 187.543 311.563 160.903C311.563 160.903 274.849 174.755 269.951 178.841L228.339 196.779C228.339 196.779 293.174 211.296 295.167 235.561C297.167 259.907 279.41 294.865 279.41 294.865C279.41 294.865 261.331 260.746 260.139 235.925C259.091 214.101 228.339 196.779 228.339 196.779C193.269 226.608 184.926 222.514 149.221 242.413C149.221 242.413 203.779 258.637 209.595 282.128C216.899 311.631 199.744 360.123 199.744 360.123C199.744 360.123 172.842 324.811 169.376 296.009C166.367 271 149.221 242.413 149.221 242.413C113.516 262.313 87.0624 291.261 51.3573 311.16C51.3573 311.16 123.355 302.537 130.876 328.624C139.547 358.701 113.034 407.182 113.034 407.182C113.034 407.182 94.1986 381.609 88.1872 361.283C79.7468 332.742 51.3573 311.16 51.3573 311.16C23.6468 341.961 4.53367 361.005 -23.1768 391.805C-23.1768 391.805 45.041 384.386 49.8317 407.84C55.2048 434.144 33.0024 473.886 33.0024 473.886C33.0024 473.886 16.6824 440.459 13.7465 416.389C11.191 395.437 -23.1768 391.805 -23.1768 391.805C-23.1907 390.464 -23.0926 389.07 -22.8942 387.629C-22.0852 374.437 -20.2071 333.164 -26.5792 310.067C-31.9191 290.711 -27.124 257.664 -27.124 257.664C-27.124 257.664 15.4857 272.354 15.7482 297.606C15.9968 321.517 -19.3591 361.962 -22.8942 387.629C-23.0572 390.287 -23.1768 391.805 -23.1768 391.805C4.53367 361.005 23.6468 341.961 51.3573 311.16C51.3573 311.16 59.8085 259.77 48.0673 238.13C37.7905 219.189 29.9885 183.986 29.9885 183.986C29.9885 183.986 67.4377 192.015 80.1852 214.236C92.863 236.336 51.3573 311.16 51.3573 311.16C87.0624 291.261 113.516 262.313 149.221 242.413C149.221 242.413 154.057 197.496 144.085 170.779C133.935 143.582 128.462 96.4155 128.462 96.4155C128.462 96.4155 168.295 126.476 178.039 158.646C186.206 185.609 149.221 242.413 149.221 242.413L228.339 196.779C228.339 196.779 249.204 148.736 241.46 124.09C232.465 95.4603 231.513 46.3009 231.513 46.3009C231.513 46.3009 269.884 75.5929 277.456 106.887C284.26 135.012 228.339 196.779 228.339 196.779L269.951 178.841C274.849 174.755 311.563 160.903 311.563 160.903C297.212 142.639 329.164 130.963 323.144 106.412C316.011 77.3159 322.335 28.5282 322.335 28.5282C322.335 28.5282 355.954 62.81 360.712 94.0009C364.826 120.963 323.43 137.997 311.563 160.903C360.774 144.59 358.751 153.266 379.515 150.314C382.374 149.676 385.382 149.087 388.583 148.574C376.763 124.478 413.109 104.473 408.891 76.6715C404.831 49.9091 408.167 6.96082 408.167 6.96082C408.167 6.96082 444.492 34.6341 450.267 64.221C456.508 96.1944 408.434 127.396 388.583 148.574C421.937 152.828 436.657 148.832 470.011 153.086C456.486 126.269 497.981 107.114 501.411 75.7096C504.263 49.6023 523.621 14.4152 523.621 14.4152C523.621 14.4152 555.869 58.8419 552.605 92.0059C549.591 122.62 492.404 140.837 470.011 153.086L496.47 151.687C501.36 149.925 506.251 148.162 522.928 150.289Z" fill="url(#paint0_angular_5_50)"/>
<path d="M-54.5366 441.139C-26.8262 410.338 -50.8873 422.606 -23.1768 391.805M51.3573 311.16C87.0624 291.261 113.516 262.313 149.221 242.413M51.3573 311.16C51.3573 311.16 92.8631 236.336 80.1852 214.236C67.4377 192.015 29.9885 183.986 29.9885 183.986C29.9885 183.986 37.7905 219.189 48.0673 238.13C59.8085 259.769 51.3573 311.16 51.3573 311.16ZM51.3573 311.16C51.3573 311.16 123.355 302.537 130.876 328.624C139.547 358.701 113.034 407.182 113.034 407.182C113.034 407.182 94.1986 381.609 88.1872 361.283C79.7468 332.742 51.3573 311.16 51.3573 311.16ZM51.3573 311.16C23.6468 341.961 4.53367 361.005 -23.1768 391.805M228.339 196.779C228.339 196.779 284.26 135.012 277.456 106.887C269.885 75.5929 231.513 46.3009 231.513 46.3009C231.513 46.3009 232.465 95.4603 241.46 124.09C249.204 148.736 228.339 196.779 228.339 196.779ZM228.339 196.779C228.339 196.779 259.091 214.101 260.139 235.925C261.331 260.746 279.41 294.865 279.41 294.865C279.41 294.865 297.167 259.907 295.167 235.561C293.174 211.296 228.339 196.779 228.339 196.779ZM228.339 196.779C193.269 226.608 184.926 222.514 149.221 242.413M228.339 196.779L149.221 242.413M228.339 196.779L269.951 178.841C274.849 174.755 311.563 160.903 311.563 160.903M388.583 148.574C421.937 152.828 436.657 148.832 470.011 153.086M388.583 148.574C408.434 127.396 456.508 96.1944 450.267 64.221C444.492 34.6341 408.167 6.96082 408.167 6.96082C408.167 6.96082 404.831 49.9091 408.891 76.6715C413.109 104.473 376.763 124.478 388.583 148.574ZM388.583 148.574C375.218 168.057 411.31 179.721 410.231 205.516C408.947 236.221 431.185 279.825 431.185 279.825C431.185 279.825 445.614 239.349 445.329 211.883C445.043 184.416 400.006 172.021 388.583 148.574ZM388.583 148.574C357.431 155.846 366.966 142.537 311.563 160.903M388.583 148.574C358.505 153.389 345.579 164.947 311.563 160.903M388.583 148.574L425.37 154.181L470.011 153.086M522.928 150.289C531.92 123.946 553.723 116.831 576.025 111.235C594.974 106.48 694.299 132.845 694.299 132.845C694.299 132.845 639.218 146.369 626.511 155.153C603.603 170.989 546.161 165.645 522.928 150.289ZM522.928 150.289C489.574 146.035 503.365 157.34 470.011 153.086M522.928 150.289L470.011 153.086M470.011 153.086C490.673 167.69 546.366 185.784 553.874 214.12C560.206 238.014 554.544 278.542 554.544 278.542C554.544 278.542 524.359 253.241 515.94 227.977C507.189 201.712 461.807 179.527 470.011 153.086ZM470.011 153.086C492.404 140.837 549.591 122.62 552.605 92.0059C555.869 58.8419 523.621 14.4152 523.621 14.4152C523.621 14.4152 504.263 49.6023 501.411 75.7096C497.981 107.114 456.486 126.269 470.011 153.086ZM311.563 160.903C323.43 137.997 364.826 120.963 360.712 94.0009C355.954 62.81 322.335 28.5282 322.335 28.5282C322.335 28.5282 316.011 77.3159 323.144 106.412C329.164 130.963 297.212 142.639 311.563 160.903ZM311.563 160.903C329.15 179.876 375.099 200.37 376.971 229.422C378.654 255.549 362.792 293.998 362.792 293.998C362.792 293.998 347.683 259.424 344.663 235.047C341.194 207.043 304.05 187.543 311.563 160.903ZM149.221 242.413C149.221 242.413 186.206 185.609 178.039 158.646C168.295 126.476 128.462 96.4155 128.462 96.4155C128.462 96.4155 133.935 143.582 144.085 170.779C154.057 197.496 149.221 242.413 149.221 242.413ZM149.221 242.413C149.221 242.413 203.779 258.637 209.595 282.128C216.899 311.631 199.744 360.123 199.744 360.123C199.744 360.123 172.842 324.811 169.376 296.009C166.367 271 149.221 242.413 149.221 242.413ZM-23.1768 391.805C-23.4393 366.553 16.0107 322.859 15.7482 297.606C15.4857 272.354 -27.124 257.664 -27.124 257.664C-27.124 257.664 -31.9191 290.711 -26.5792 310.067C-18.9233 337.818 -23.1768 391.805 -23.1768 391.805ZM-23.1768 391.805C-23.1768 391.805 45.041 384.386 49.8317 407.84C55.2048 434.144 33.0024 473.886 33.0024 473.886C33.0024 473.886 16.6824 440.459 13.7465 416.389C11.191 395.437 -23.1768 391.805 -23.1768 391.805Z" stroke="#C7BB49"/>
</g>
<defs>
<filter id="filter0_d_5_50" x="-54.9083" y="0.0065918" width="769.335" height="488.958" filterUnits="userSpaceOnUse" color-interpolation-filters="sRGB">
<feFlood flood-opacity="0" result="BackgroundImageFix"/>
<feColorMatrix in="SourceAlpha" type="matrix" values="0 0 0 0 0 0 0 0 0 0 0 0 0 0 0 0 0 0 127 0" result="hardAlpha"/>
<feOffset dx="10" dy="4"/>
<feGaussianBlur stdDeviation="5"/>
<feComposite in2="hardAlpha" operator="out"/>
<feColorMatrix type="matrix" values="0 0 0 0 0 0 0 0 0 0 0 0 0 0 0 0 0 0 0.25 0"/>
<feBlend mode="normal" in2="BackgroundImageFix" result="effect1_dropShadow_5_50"/>
<feBlend mode="normal" in="SourceGraphic" in2="effect1_dropShadow_5_50" result="shape"/>
</filter>
<radialGradient id="paint0_angular_5_50" cx="0" cy="0" r="1" gradientUnits="userSpaceOnUse" gradientTransform="translate(308.107 239.514) rotate(89.4044) scale(231.5 364.72)">
<stop offset="0.055" stop-color="#E3A455"/>
<stop offset="0.125" stop-color="#E9B56E"/>
<stop offset="0.19" stop-color="#F0C98C"/>
<stop offset="0.244792" stop-color="#F6DBA6"/>
<stop offset="0.434957" stop-color="#FFEBC4"/>
<stop offset="0.532623" stop-color="#F0BE79"/>
<stop offset="0.593311" stop-color="#8F653B"/>
<stop offset="0.627652" stop-color="#673D22"/>
<stop offset="0.708863" stop-color="#BA7F3B"/>
<stop offset="0.773898" stop-color="#EEBC70"/>
<stop offset="0.921875" stop-color="#3F1F0F"/>
</radialGradient>
</defs>
</svg>
