<svg width="762" height="480" viewBox="0 0 762 480" fill="none" xmlns="http://www.w3.org/2000/svg">
<g filter="url(#filter0_d_26_26)">
<path d="M172.538 318.844C162.909 344.96 140.938 351.542 118.507 356.595C99.4478 360.887 0.793646 332.116 0.793646 332.116C0.793646 332.116 56.1868 319.935 69.1034 311.463C92.3903 296.188 149.685 302.927 172.538 318.844L199.023 318.089C203.955 316.445 208.887 314.802 225.507 317.334C205.207 302.231 149.97 282.789 143.153 254.279C137.404 230.238 144.049 189.86 144.049 189.86C144.049 189.86 173.611 215.887 181.412 241.348C189.523 267.818 234.352 291.1 225.507 317.334L270.162 317.324L306.801 323.824C295.952 300.107 251.229 286.62 251.612 259.155C251.994 231.689 267.404 191.577 267.404 191.577C267.404 191.577 288.575 235.708 286.544 266.373C284.839 292.134 320.636 304.671 306.801 323.824C310.302 323.096 313.288 322.613 315.909 322.305C340.033 317.531 353.8 309.02 384.098 313.371C366.978 293.976 321.541 272.371 320.376 243.283C319.328 217.123 336.121 179.07 336.121 179.07C336.121 179.07 350.384 214.001 352.811 238.445C355.599 266.525 392.257 286.922 384.098 313.371C384.098 313.371 421.138 300.416 426.134 296.45L468.17 279.529C468.17 279.529 403.707 263.44 402.305 239.134C400.898 214.747 419.499 180.231 419.499 180.231C419.499 180.231 436.743 214.779 437.331 239.622C437.849 261.465 468.17 279.529 468.17 279.529C503.955 250.562 512.196 254.858 548.374 235.832C548.374 235.832 494.227 218.287 488.984 194.661C482.4 164.99 500.728 116.929 500.728 116.929C500.728 116.929 526.763 152.885 529.528 181.762C531.929 206.837 548.374 235.832 548.374 235.832C584.553 216.807 611.702 188.511 647.881 169.485C647.881 169.485 575.694 176.355 568.81 150.093C560.873 119.815 588.556 71.9917 588.556 71.9917C588.556 71.9917 606.765 98.0155 612.28 118.482C620.024 147.219 647.881 169.485 647.881 169.485C676.332 139.367 695.902 120.794 724.353 90.676C724.353 90.676 655.975 96.4344 651.756 72.8715C647.024 46.4437 670.186 7.25356 670.186 7.25356C670.186 7.25356 685.689 41.0676 688.039 65.2024C690.084 86.2094 724.353 90.676 724.353 90.676C724.335 92.0177 724.203 93.4088 723.969 94.8439C722.84 108.013 719.959 149.228 725.767 172.473C730.635 191.953 725.038 224.874 725.038 224.874C725.038 224.874 682.798 209.152 683.15 183.901C683.482 159.991 719.811 120.418 723.969 94.8439C724.197 92.1908 724.353 90.676 724.353 90.676C695.902 120.794 676.332 139.367 647.881 169.485C647.881 169.485 638.182 220.655 649.394 242.574C659.207 261.759 666.151 297.141 666.151 297.141C666.151 297.141 628.908 288.204 616.705 265.68C604.568 243.278 647.881 169.485 647.881 169.485C611.702 188.511 584.553 216.807 548.374 235.832C548.374 235.832 542.448 280.619 551.767 307.57C561.253 335.006 565.578 382.292 565.578 382.292C565.578 382.292 526.487 351.271 517.528 318.874C510.019 291.72 548.374 235.832 548.374 235.832L468.17 279.529C468.17 279.529 446.143 327.051 453.285 351.878C461.582 380.718 461.339 429.886 461.339 429.886C461.339 429.886 423.691 399.67 416.883 368.201C410.764 339.919 468.17 279.529 468.17 279.529L426.134 296.45C421.138 300.416 384.098 313.371 384.098 313.371C398.001 331.979 365.775 342.875 371.196 367.565C377.62 396.826 370.112 445.445 370.112 445.445C370.112 445.445 337.336 410.356 333.337 379.059C329.88 352.004 371.678 335.983 384.098 313.371C334.506 328.483 336.738 319.859 315.909 322.305C313.035 322.874 310.015 323.39 306.801 323.824C318.032 348.2 281.21 367.316 284.751 395.212C288.159 422.065 283.781 464.919 283.781 464.919C283.781 464.919 248.139 436.371 243.085 406.653C237.623 374.537 286.441 344.513 306.801 323.824C273.561 318.761 258.748 322.397 225.507 317.334C238.376 344.472 196.428 362.613 192.235 393.924C188.75 419.954 168.542 454.66 168.542 454.66C168.542 454.66 137.383 409.463 141.453 376.388C145.21 345.856 202.823 329.035 225.507 317.334L199.023 318.089C194.09 319.732 189.158 321.375 172.538 318.844Z" fill="url(#paint0_angular_26_26)"/>
<path d="M756.903 42.1192C728.452 72.2371 752.805 60.5581 724.353 90.676M647.881 169.485C611.702 188.511 584.553 216.807 548.374 235.832M647.881 169.485C647.881 169.485 604.568 243.278 616.705 265.68C628.908 288.204 666.151 297.141 666.151 297.141C666.151 297.141 659.207 261.759 649.394 242.574C638.182 220.655 647.881 169.485 647.881 169.485ZM647.881 169.485C647.881 169.485 575.694 176.355 568.81 150.093C560.873 119.815 588.556 71.9917 588.556 71.9917C588.556 71.9917 606.765 98.0155 612.28 118.482C620.024 147.219 647.881 169.485 647.881 169.485ZM647.881 169.485C676.332 139.367 695.902 120.794 724.353 90.676M468.17 279.529C468.17 279.529 410.764 339.919 416.883 368.201C423.691 399.67 461.339 429.886 461.339 429.886C461.339 429.886 461.582 380.718 453.285 351.878C446.143 327.051 468.17 279.529 468.17 279.529ZM468.17 279.529C468.17 279.529 437.849 261.465 437.331 239.622C436.743 214.779 419.499 180.231 419.499 180.231C419.499 180.231 400.898 214.747 402.305 239.134C403.707 263.44 468.17 279.529 468.17 279.529ZM468.17 279.529C503.955 250.562 512.196 254.858 548.374 235.832M468.17 279.529L548.374 235.832M468.17 279.529L426.134 296.45C421.138 300.416 384.098 313.371 384.098 313.371M306.801 323.824C273.561 318.761 258.748 322.397 225.507 317.334M306.801 323.824C286.441 344.513 237.623 374.537 243.085 406.653C248.139 436.371 283.781 464.919 283.781 464.919C283.781 464.919 288.159 422.065 284.751 395.212C281.21 367.316 318.032 348.2 306.801 323.824ZM306.801 323.824C320.636 304.671 284.839 292.134 286.544 266.373C288.575 235.708 267.404 191.577 267.404 191.577C267.404 191.577 251.994 231.689 251.612 259.155C251.229 286.62 295.952 300.107 306.801 323.824ZM306.801 323.824C338.121 317.312 328.265 330.385 384.098 313.371M306.801 323.824C336.988 319.742 350.191 308.501 384.098 313.371M306.801 323.824L270.162 317.324L225.507 317.334M172.538 318.844C162.909 344.96 140.938 351.542 118.507 356.595C99.4478 360.887 0.793646 332.116 0.793646 332.116C0.793646 332.116 56.1868 319.935 69.1034 311.463C92.3903 296.188 149.685 302.927 172.538 318.844ZM172.538 318.844C205.779 323.907 192.267 312.271 225.507 317.334M172.538 318.844L225.507 317.334M225.507 317.334C205.207 302.231 149.97 282.789 143.153 254.279C137.404 230.238 144.049 189.86 144.049 189.86C144.049 189.86 173.611 215.887 181.412 241.348C189.523 267.818 234.352 291.1 225.507 317.334ZM225.507 317.334C202.823 329.035 145.21 345.856 141.453 376.388C137.383 409.463 168.542 454.66 168.542 454.66C168.542 454.66 188.75 419.954 192.235 393.924C196.428 362.613 238.376 344.472 225.507 317.334ZM384.098 313.371C371.678 335.983 329.88 352.004 333.337 379.059C337.336 410.356 370.112 445.445 370.112 445.445C370.112 445.445 377.62 396.826 371.196 367.565C365.775 342.875 398.001 331.979 384.098 313.371ZM384.098 313.371C366.978 293.976 321.541 272.371 320.376 243.283C319.328 217.123 336.121 179.07 336.121 179.07C336.121 179.07 350.384 214.001 352.811 238.445C355.599 266.525 392.257 286.922 384.098 313.371ZM548.374 235.832C548.374 235.832 510.019 291.72 517.528 318.874C526.487 351.271 565.578 382.292 565.578 382.292C565.578 382.292 561.253 335.006 551.767 307.57C542.448 280.619 548.374 235.832 548.374 235.832ZM548.374 235.832C548.374 235.832 494.227 218.287 488.984 194.661C482.4 164.99 500.728 116.929 500.728 116.929C500.728 116.929 526.763 152.885 529.528 181.762C531.929 206.837 548.374 235.832 548.374 235.832ZM724.353 90.676C724.002 115.927 683.501 158.649 683.15 183.901C682.798 209.152 725.038 224.874 725.038 224.874C725.038 224.874 730.635 191.953 725.767 172.473C718.788 144.544 724.353 90.676 724.353 90.676ZM724.353 90.676C724.353 90.676 655.975 96.4344 651.756 72.8715C647.024 46.4437 670.186 7.25356 670.186 7.25356C670.186 7.25356 685.689 41.0676 688.039 65.2024C690.084 86.2094 724.353 90.676 724.353 90.676Z" stroke="#C7BB49"/>
</g>
<defs>
<filter id="filter0_d_26_26" x="0.653652" y="0.176025" width="776.613" height="479.708" filterUnits="userSpaceOnUse" color-interpolation-filters="sRGB">
<feFlood flood-opacity="0" result="BackgroundImageFix"/>
<feColorMatrix in="SourceAlpha" type="matrix" values="0 0 0 0 0 0 0 0 0 0 0 0 0 0 0 0 0 0 127 0" result="hardAlpha"/>
<feOffset dx="10" dy="4"/>
<feGaussianBlur stdDeviation="5"/>
<feComposite in2="hardAlpha" operator="out"/>
<feColorMatrix type="matrix" values="0 0 0 0 0 0 0 0 0 0 0 0 0 0 0 0 0 0 0.25 0"/>
<feBlend mode="normal" in2="BackgroundImageFix" result="effect1_dropShadow_26_26"/>
<feBlend mode="normal" in="SourceGraphic" in2="effect1_dropShadow_26_26" result="shape"/>
</filter>
<radialGradient id="paint0_angular_26_26" cx="0" cy="0" r="1" gradientUnits="userSpaceOnUse" gradientTransform="translate(389.465 234.868) rotate(-89.2025) scale(231.5 364.72)">
<stop offset="0.055" stop-color="#E3A455"/>
<stop offset="0.125" stop-color="#E9B56E"/>
<stop offset="0.19" stop-color="#F0C98C"/>
<stop offset="0.244792" stop-color="#F6DBA6"/>
<stop offset="0.434957" stop-color="#FFEBC4"/>
<stop offset="0.532623" stop-color="#F0BE79"/>
<stop offset="0.593311" stop-color="#8F653B"/>
<stop offset="0.627652" stop-color="#673D22"/>
<stop offset="0.708863" stop-color="#BA7F3B"/>
<stop offset="0.773898" stop-color="#EEBC70"/>
<stop offset="0.921875" stop-color="#3F1F0F"/>
</radialGradient>
</defs>
</svg>
