<svg width="453" height="161" viewBox="0 0 453 161" fill="none" xmlns="http://www.w3.org/2000/svg">
<rect x="4.00006" width="443.999" height="161" rx="10" fill="#2C2726"/>
<g filter="url(#filter0_d_46_210)">
<mask id="path-2-inside-1_46_210" fill="white">
<path d="M4.66275 13H448.662V146H4.66275V13Z"/>
</mask>
<path d="M4.66275 10.5C3.28204 10.5 2.16275 11.6193 2.16275 13C2.16275 14.3807 3.28204 15.5 4.66275 15.5V10.5ZM448.662 15.5C450.042 15.5 451.162 14.3807 451.162 13C451.162 11.6193 450.042 10.5 448.662 10.5V15.5ZM448.662 148.5C450.042 148.5 451.162 147.381 451.162 146C451.162 144.619 450.042 143.5 448.662 143.5V148.5ZM4.66275 143.5C3.28204 143.5 2.16275 144.619 2.16275 146C2.16275 147.381 3.28204 148.5 4.66275 148.5V143.5ZM9.70819 148.5C11.0889 148.5 12.2082 147.381 12.2082 146C12.2082 144.619 11.0889 143.5 9.70819 143.5V148.5ZM19.7991 143.5C18.4184 143.5 17.2991 144.619 17.2991 146C17.2991 147.381 18.4184 148.5 19.7991 148.5V143.5ZM29.89 148.5C31.2707 148.5 32.39 147.381 32.39 146C32.39 144.619 31.2707 143.5 29.89 143.5V148.5ZM39.9809 143.5C38.6001 143.5 37.4809 144.619 37.4809 146C37.4809 147.381 38.6001 148.5 39.9809 148.5V143.5ZM50.0717 148.5C51.4525 148.5 52.5717 147.381 52.5717 146C52.5717 144.619 51.4525 143.5 50.0717 143.5V148.5ZM60.1626 143.5C58.7819 143.5 57.6626 144.619 57.6626 146C57.6626 147.381 58.7819 148.5 60.1626 148.5V143.5ZM70.2535 148.5C71.6342 148.5 72.7535 147.381 72.7535 146C72.7535 144.619 71.6342 143.5 70.2535 143.5V148.5ZM80.3444 143.5C78.9637 143.5 77.8444 144.619 77.8444 146C77.8444 147.381 78.9637 148.5 80.3444 148.5V143.5ZM90.4353 148.5C91.816 148.5 92.9353 147.381 92.9353 146C92.9353 144.619 91.816 143.5 90.4353 143.5V148.5ZM100.526 143.5C99.1455 143.5 98.0262 144.619 98.0262 146C98.0262 147.381 99.1455 148.5 100.526 148.5V143.5ZM110.617 148.5C111.998 148.5 113.117 147.381 113.117 146C113.117 144.619 111.998 143.5 110.617 143.5V148.5ZM120.708 143.5C119.327 143.5 118.208 144.619 118.208 146C118.208 147.381 119.327 148.5 120.708 148.5V143.5ZM130.799 148.5C132.18 148.5 133.299 147.381 133.299 146C133.299 144.619 132.18 143.5 130.799 143.5V148.5ZM140.89 143.5C139.509 143.5 138.39 144.619 138.39 146C138.39 147.381 139.509 148.5 140.89 148.5V143.5ZM150.981 148.5C152.361 148.5 153.481 147.381 153.481 146C153.481 144.619 152.361 143.5 150.981 143.5V148.5ZM161.072 143.5C159.691 143.5 158.572 144.619 158.572 146C158.572 147.381 159.691 148.5 161.072 148.5V143.5ZM171.162 148.5C172.543 148.5 173.662 147.381 173.662 146C173.662 144.619 172.543 143.5 171.162 143.5V148.5ZM181.253 143.5C179.873 143.5 178.753 144.619 178.753 146C178.753 147.381 179.873 148.5 181.253 148.5V143.5ZM191.344 148.5C192.725 148.5 193.844 147.381 193.844 146C193.844 144.619 192.725 143.5 191.344 143.5V148.5ZM201.435 143.5C200.054 143.5 198.935 144.619 198.935 146C198.935 147.381 200.054 148.5 201.435 148.5V143.5ZM211.526 148.5C212.907 148.5 214.026 147.381 214.026 146C214.026 144.619 212.907 143.5 211.526 143.5V148.5ZM221.617 143.5C220.236 143.5 219.117 144.619 219.117 146C219.117 147.381 220.236 148.5 221.617 148.5V143.5ZM231.708 148.5C233.088 148.5 234.208 147.381 234.208 146C234.208 144.619 233.088 143.5 231.708 143.5V148.5ZM241.799 143.5C240.418 143.5 239.299 144.619 239.299 146C239.299 147.381 240.418 148.5 241.799 148.5V143.5ZM251.889 148.5C253.27 148.5 254.389 147.381 254.389 146C254.389 144.619 253.27 143.5 251.889 143.5V148.5ZM261.98 143.5C260.6 143.5 259.48 144.619 259.48 146C259.48 147.381 260.6 148.5 261.98 148.5V143.5ZM272.071 148.5C273.452 148.5 274.571 147.381 274.571 146C274.571 144.619 273.452 143.5 272.071 143.5V148.5ZM282.162 143.5C280.781 143.5 279.662 144.619 279.662 146C279.662 147.381 280.781 148.5 282.162 148.5V143.5ZM292.253 148.5C293.634 148.5 294.753 147.381 294.753 146C294.753 144.619 293.634 143.5 292.253 143.5V148.5ZM302.344 143.5C300.963 143.5 299.844 144.619 299.844 146C299.844 147.381 300.963 148.5 302.344 148.5V143.5ZM312.435 148.5C313.815 148.5 314.935 147.381 314.935 146C314.935 144.619 313.815 143.5 312.435 143.5V148.5ZM322.526 143.5C321.145 143.5 320.026 144.619 320.026 146C320.026 147.381 321.145 148.5 322.526 148.5V143.5ZM332.616 148.5C333.997 148.5 335.116 147.381 335.116 146C335.116 144.619 333.997 143.5 332.616 143.5V148.5ZM342.707 143.5C341.327 143.5 340.207 144.619 340.207 146C340.207 147.381 341.327 148.5 342.707 148.5V143.5ZM352.798 148.5C354.179 148.5 355.298 147.381 355.298 146C355.298 144.619 354.179 143.5 352.798 143.5V148.5ZM362.889 143.5C361.508 143.5 360.389 144.619 360.389 146C360.389 147.381 361.508 148.5 362.889 148.5V143.5ZM372.98 148.5C374.361 148.5 375.48 147.381 375.48 146C375.48 144.619 374.361 143.5 372.98 143.5V148.5ZM383.071 143.5C381.69 143.5 380.571 144.619 380.571 146C380.571 147.381 381.69 148.5 383.071 148.5V143.5ZM393.162 148.5C394.542 148.5 395.662 147.381 395.662 146C395.662 144.619 394.542 143.5 393.162 143.5V148.5ZM403.253 143.5C401.872 143.5 400.753 144.619 400.753 146C400.753 147.381 401.872 148.5 403.253 148.5V143.5ZM413.344 148.5C414.724 148.5 415.844 147.381 415.844 146C415.844 144.619 414.724 143.5 413.344 143.5V148.5ZM423.434 143.5C422.054 143.5 420.934 144.619 420.934 146C420.934 147.381 422.054 148.5 423.434 148.5V143.5ZM433.525 148.5C434.906 148.5 436.025 147.381 436.025 146C436.025 144.619 434.906 143.5 433.525 143.5V148.5ZM443.616 143.5C442.235 143.5 441.116 144.619 441.116 146C441.116 147.381 442.235 148.5 443.616 148.5V143.5ZM443.616 10.5C442.236 10.5 441.116 11.6193 441.116 13C441.116 14.3807 442.236 15.5 443.616 15.5V10.5ZM433.525 15.5C434.906 15.5 436.025 14.3807 436.025 13C436.025 11.6193 434.906 10.5 433.525 10.5V15.5ZM423.435 10.5C422.054 10.5 420.935 11.6193 420.935 13C420.935 14.3807 422.054 15.5 423.435 15.5V10.5ZM413.344 15.5C414.724 15.5 415.844 14.3807 415.844 13C415.844 11.6193 414.724 10.5 413.344 10.5V15.5ZM403.253 10.5C401.872 10.5 400.753 11.6193 400.753 13C400.753 14.3807 401.872 15.5 403.253 15.5V10.5ZM393.162 15.5C394.543 15.5 395.662 14.3807 395.662 13C395.662 11.6193 394.543 10.5 393.162 10.5V15.5ZM383.071 10.5C381.69 10.5 380.571 11.6193 380.571 13C380.571 14.3807 381.69 15.5 383.071 15.5V10.5ZM372.98 15.5C374.361 15.5 375.48 14.3807 375.48 13C375.48 11.6193 374.361 10.5 372.98 10.5V15.5ZM362.889 10.5C361.509 10.5 360.389 11.6193 360.389 13C360.389 14.3807 361.509 15.5 362.889 15.5V10.5ZM352.798 15.5C354.179 15.5 355.298 14.3807 355.298 13C355.298 11.6193 354.179 10.5 352.798 10.5V15.5ZM342.707 10.5C341.327 10.5 340.207 11.6193 340.207 13C340.207 14.3807 341.327 15.5 342.707 15.5V10.5ZM332.617 15.5C333.997 15.5 335.117 14.3807 335.117 13C335.117 11.6193 333.997 10.5 332.617 10.5V15.5ZM322.526 10.5C321.145 10.5 320.026 11.6193 320.026 13C320.026 14.3807 321.145 15.5 322.526 15.5V10.5ZM312.435 15.5C313.815 15.5 314.935 14.3807 314.935 13C314.935 11.6193 313.815 10.5 312.435 10.5V15.5ZM302.344 10.5C300.963 10.5 299.844 11.6193 299.844 13C299.844 14.3807 300.963 15.5 302.344 15.5V10.5ZM292.253 15.5C293.634 15.5 294.753 14.3807 294.753 13C294.753 11.6193 293.634 10.5 292.253 10.5V15.5ZM282.162 10.5C280.781 10.5 279.662 11.6193 279.662 13C279.662 14.3807 280.781 15.5 282.162 15.5V10.5ZM272.071 15.5C273.452 15.5 274.571 14.3807 274.571 13C274.571 11.6193 273.452 10.5 272.071 10.5V15.5ZM261.98 10.5C260.6 10.5 259.48 11.6193 259.48 13C259.48 14.3807 260.6 15.5 261.98 15.5V10.5ZM251.889 15.5C253.27 15.5 254.389 14.3807 254.389 13C254.389 11.6193 253.27 10.5 251.889 10.5V15.5ZM241.799 10.5C240.418 10.5 239.299 11.6193 239.299 13C239.299 14.3807 240.418 15.5 241.799 15.5V10.5ZM231.708 15.5C233.088 15.5 234.208 14.3807 234.208 13C234.208 11.6193 233.088 10.5 231.708 10.5V15.5ZM221.617 10.5C220.236 10.5 219.117 11.6193 219.117 13C219.117 14.3807 220.236 15.5 221.617 15.5V10.5ZM211.526 15.5C212.907 15.5 214.026 14.3807 214.026 13C214.026 11.6193 212.907 10.5 211.526 10.5V15.5ZM201.435 10.5C200.054 10.5 198.935 11.6193 198.935 13C198.935 14.3807 200.054 15.5 201.435 15.5V10.5ZM191.344 15.5C192.725 15.5 193.844 14.3807 193.844 13C193.844 11.6193 192.725 10.5 191.344 10.5V15.5ZM181.253 10.5C179.873 10.5 178.753 11.6193 178.753 13C178.753 14.3807 179.873 15.5 181.253 15.5V10.5ZM171.162 15.5C172.543 15.5 173.662 14.3807 173.662 13C173.662 11.6193 172.543 10.5 171.162 10.5V15.5ZM161.072 10.5C159.691 10.5 158.572 11.6193 158.572 13C158.572 14.3807 159.691 15.5 161.072 15.5V10.5ZM150.981 15.5C152.361 15.5 153.481 14.3807 153.481 13C153.481 11.6193 152.361 10.5 150.981 10.5V15.5ZM140.89 10.5C139.509 10.5 138.39 11.6193 138.39 13C138.39 14.3807 139.509 15.5 140.89 15.5V10.5ZM130.799 15.5C132.18 15.5 133.299 14.3807 133.299 13C133.299 11.6193 132.18 10.5 130.799 10.5V15.5ZM120.708 10.5C119.327 10.5 118.208 11.6193 118.208 13C118.208 14.3807 119.327 15.5 120.708 15.5V10.5ZM110.617 15.5C111.998 15.5 113.117 14.3807 113.117 13C113.117 11.6193 111.998 10.5 110.617 10.5V15.5ZM100.526 10.5C99.1456 10.5 98.0263 11.6193 98.0263 13C98.0263 14.3807 99.1456 15.5 100.526 15.5V10.5ZM90.4354 15.5C91.8161 15.5 92.9354 14.3807 92.9354 13C92.9354 11.6193 91.8161 10.5 90.4354 10.5V15.5ZM80.3445 10.5C78.9638 10.5 77.8445 11.6193 77.8445 13C77.8445 14.3807 78.9638 15.5 80.3445 15.5V10.5ZM70.2536 15.5C71.6343 15.5 72.7536 14.3807 72.7536 13C72.7536 11.6193 71.6343 10.5 70.2536 10.5V15.5ZM60.1628 10.5C58.782 10.5 57.6628 11.6193 57.6628 13C57.6628 14.3807 58.782 15.5 60.1628 15.5V10.5ZM50.0719 15.5C51.4526 15.5 52.5719 14.3807 52.5719 13C52.5719 11.6193 51.4526 10.5 50.0719 10.5V15.5ZM39.981 10.5C38.6003 10.5 37.481 11.6193 37.481 13C37.481 14.3807 38.6003 15.5 39.981 15.5V10.5ZM29.8901 15.5C31.2708 15.5 32.3901 14.3807 32.3901 13C32.3901 11.6193 31.2708 10.5 29.8901 10.5V15.5ZM19.7992 10.5C18.4185 10.5 17.2992 11.6193 17.2992 13C17.2992 14.3807 18.4185 15.5 19.7992 15.5V10.5ZM9.70835 15.5C11.0891 15.5 12.2083 14.3807 12.2083 13C12.2083 11.6193 11.0891 10.5 9.70835 10.5V15.5ZM4.66275 148.5H9.70819V143.5H4.66275V148.5ZM19.7991 148.5H29.89V143.5H19.7991V148.5ZM39.9809 148.5H50.0717V143.5H39.9809V148.5ZM60.1626 148.5H70.2535V143.5H60.1626V148.5ZM80.3444 148.5H90.4353V143.5H80.3444V148.5ZM100.526 148.5H110.617V143.5H100.526V148.5ZM120.708 148.5H130.799V143.5H120.708V148.5ZM140.89 148.5H150.981V143.5H140.89V148.5ZM161.072 148.5H171.162V143.5H161.072V148.5ZM181.253 148.5H191.344V143.5H181.253V148.5ZM201.435 148.5H211.526V143.5H201.435V148.5ZM221.617 148.5H231.708V143.5H221.617V148.5ZM241.799 148.5H251.889V143.5H241.799V148.5ZM261.98 148.5H272.071V143.5H261.98V148.5ZM282.162 148.5H292.253V143.5H282.162V148.5ZM302.344 148.5H312.435V143.5H302.344V148.5ZM322.526 148.5H332.616V143.5H322.526V148.5ZM342.707 148.5H352.798V143.5H342.707V148.5ZM362.889 148.5H372.98V143.5H362.889V148.5ZM383.071 148.5H393.162V143.5H383.071V148.5ZM403.253 148.5H413.344V143.5H403.253V148.5ZM423.434 148.5H433.525V143.5H423.434V148.5ZM443.616 148.5H448.662V143.5H443.616V148.5ZM448.662 10.5H443.616V15.5H448.662V10.5ZM433.525 10.5H423.435V15.5H433.525V10.5ZM413.344 10.5H403.253V15.5H413.344V10.5ZM393.162 10.5H383.071V15.5H393.162V10.5ZM372.98 10.5H362.889V15.5H372.98V10.5ZM352.798 10.5H342.707V15.5H352.798V10.5ZM332.617 10.5H322.526V15.5H332.617V10.5ZM312.435 10.5H302.344V15.5H312.435V10.5ZM292.253 10.5H282.162V15.5H292.253V10.5ZM272.071 10.5H261.98V15.5H272.071V10.5ZM251.889 10.5H241.799V15.5H251.889V10.5ZM231.708 10.5H221.617V15.5H231.708V10.5ZM211.526 10.5H201.435V15.5H211.526V10.5ZM191.344 10.5H181.253V15.5H191.344V10.5ZM171.162 10.5H161.072V15.5H171.162V10.5ZM150.981 10.5H140.89V15.5H150.981V10.5ZM130.799 10.5H120.708V15.5H130.799V10.5ZM110.617 10.5H100.526V15.5H110.617V10.5ZM90.4354 10.5H80.3445V15.5H90.4354V10.5ZM70.2536 10.5H60.1628V15.5H70.2536V10.5ZM50.0719 10.5H39.981V15.5H50.0719V10.5ZM29.8901 10.5H19.7992V15.5H29.8901V10.5ZM9.70835 10.5H4.66275V15.5H9.70835V10.5ZM4.66275 8C1.90133 8 -0.33725 10.2386 -0.33725 13C-0.33725 15.7614 1.90133 18 4.66275 18V8ZM448.662 18C451.423 18 453.662 15.7614 453.662 13C453.662 10.2386 451.423 8 448.662 8V18ZM448.662 151C451.423 151 453.662 148.761 453.662 146C453.662 143.239 451.423 141 448.662 141V151ZM4.66275 141C1.90133 141 -0.33725 143.239 -0.33725 146C-0.33725 148.761 1.90133 151 4.66275 151V141ZM9.70819 151C12.4696 151 14.7082 148.761 14.7082 146C14.7082 143.239 12.4696 141 9.70819 141V151ZM19.7991 141C17.0377 141 14.7991 143.239 14.7991 146C14.7991 148.761 17.0377 151 19.7991 151V141ZM29.89 151C32.6514 151 34.89 148.761 34.89 146C34.89 143.239 32.6514 141 29.89 141V151ZM39.9809 141C37.2194 141 34.9809 143.239 34.9809 146C34.9809 148.761 37.2194 151 39.9809 151V141ZM50.0717 151C52.8332 151 55.0717 148.761 55.0717 146C55.0717 143.239 52.8332 141 50.0717 141V151ZM60.1626 141C57.4012 141 55.1626 143.239 55.1626 146C55.1626 148.761 57.4012 151 60.1626 151V141ZM70.2535 151C73.0149 151 75.2535 148.761 75.2535 146C75.2535 143.239 73.0149 141 70.2535 141V151ZM80.3444 141C77.583 141 75.3444 143.239 75.3444 146C75.3444 148.761 77.583 151 80.3444 151V141ZM90.4353 151C93.1967 151 95.4353 148.761 95.4353 146C95.4353 143.239 93.1967 141 90.4353 141V151ZM100.526 141C97.7648 141 95.5262 143.239 95.5262 146C95.5262 148.761 97.7648 151 100.526 151V141ZM110.617 151C113.379 151 115.617 148.761 115.617 146C115.617 143.239 113.379 141 110.617 141V151ZM120.708 141C117.947 141 115.708 143.239 115.708 146C115.708 148.761 117.947 151 120.708 151V141ZM130.799 151C133.56 151 135.799 148.761 135.799 146C135.799 143.239 133.56 141 130.799 141V151ZM140.89 141C138.128 141 135.89 143.239 135.89 146C135.89 148.761 138.128 151 140.89 151V141ZM150.981 151C153.742 151 155.981 148.761 155.981 146C155.981 143.239 153.742 141 150.981 141V151ZM161.072 141C158.31 141 156.072 143.239 156.072 146C156.072 148.761 158.31 151 161.072 151V141ZM171.162 151C173.924 151 176.162 148.761 176.162 146C176.162 143.239 173.924 141 171.162 141V151ZM181.253 141C178.492 141 176.253 143.239 176.253 146C176.253 148.761 178.492 151 181.253 151V141ZM191.344 151C194.106 151 196.344 148.761 196.344 146C196.344 143.239 194.106 141 191.344 141V151ZM201.435 141C198.674 141 196.435 143.239 196.435 146C196.435 148.761 198.674 151 201.435 151V141ZM211.526 151C214.287 151 216.526 148.761 216.526 146C216.526 143.239 214.287 141 211.526 141V151ZM221.617 141C218.855 141 216.617 143.239 216.617 146C216.617 148.761 218.855 151 221.617 151V141ZM231.708 151C234.469 151 236.708 148.761 236.708 146C236.708 143.239 234.469 141 231.708 141V151ZM241.799 141C239.037 141 236.799 143.239 236.799 146C236.799 148.761 239.037 151 241.799 151V141ZM251.889 151C254.651 151 256.889 148.761 256.889 146C256.889 143.239 254.651 141 251.889 141V151ZM261.98 141C259.219 141 256.98 143.239 256.98 146C256.98 148.761 259.219 151 261.98 151V141ZM272.071 151C274.833 151 277.071 148.761 277.071 146C277.071 143.239 274.833 141 272.071 141V151ZM282.162 141C279.401 141 277.162 143.239 277.162 146C277.162 148.761 279.401 151 282.162 151V141ZM292.253 151C295.014 151 297.253 148.761 297.253 146C297.253 143.239 295.014 141 292.253 141V151ZM302.344 141C299.582 141 297.344 143.239 297.344 146C297.344 148.761 299.582 151 302.344 151V141ZM312.435 151C315.196 151 317.435 148.761 317.435 146C317.435 143.239 315.196 141 312.435 141V151ZM322.526 141C319.764 141 317.526 143.239 317.526 146C317.526 148.761 319.764 151 322.526 151V141ZM332.616 151C335.378 151 337.616 148.761 337.616 146C337.616 143.239 335.378 141 332.616 141V151ZM342.707 141C339.946 141 337.707 143.239 337.707 146C337.707 148.761 339.946 151 342.707 151V141ZM352.798 151C355.56 151 357.798 148.761 357.798 146C357.798 143.239 355.56 141 352.798 141V151ZM362.889 141C360.128 141 357.889 143.239 357.889 146C357.889 148.761 360.128 151 362.889 151V141ZM372.98 151C375.741 151 377.98 148.761 377.98 146C377.98 143.239 375.741 141 372.98 141V151ZM383.071 141C380.309 141 378.071 143.239 378.071 146C378.071 148.761 380.309 151 383.071 151V141ZM393.162 151C395.923 151 398.162 148.761 398.162 146C398.162 143.239 395.923 141 393.162 141V151ZM403.253 141C400.491 141 398.253 143.239 398.253 146C398.253 148.761 400.491 151 403.253 151V141ZM413.344 151C416.105 151 418.344 148.761 418.344 146C418.344 143.239 416.105 141 413.344 141V151ZM423.434 141C420.673 141 418.434 143.239 418.434 146C418.434 148.761 420.673 151 423.434 151V141ZM433.525 151C436.287 151 438.525 148.761 438.525 146C438.525 143.239 436.287 141 433.525 141V151ZM443.616 141C440.855 141 438.616 143.239 438.616 146C438.616 148.761 440.855 151 443.616 151V141ZM443.616 8C440.855 8 438.616 10.2386 438.616 13C438.616 15.7614 440.855 18 443.616 18V8ZM433.525 18C436.287 18 438.525 15.7614 438.525 13C438.525 10.2386 436.287 8 433.525 8V18ZM423.435 8C420.673 8 418.435 10.2386 418.435 13C418.435 15.7614 420.673 18 423.435 18V8ZM413.344 18C416.105 18 418.344 15.7614 418.344 13C418.344 10.2386 416.105 8 413.344 8V18ZM403.253 8C400.491 8 398.253 10.2386 398.253 13C398.253 15.7614 400.491 18 403.253 18V8ZM393.162 18C395.923 18 398.162 15.7614 398.162 13C398.162 10.2386 395.923 8 393.162 8V18ZM383.071 8C380.31 8 378.071 10.2386 378.071 13C378.071 15.7614 380.31 18 383.071 18V8ZM372.98 18C375.742 18 377.98 15.7614 377.98 13C377.98 10.2386 375.742 8 372.98 8V18ZM362.889 8C360.128 8 357.889 10.2386 357.889 13C357.889 15.7614 360.128 18 362.889 18V8ZM352.798 18C355.56 18 357.798 15.7614 357.798 13C357.798 10.2386 355.56 8 352.798 8V18ZM342.707 8C339.946 8 337.707 10.2386 337.707 13C337.707 15.7614 339.946 18 342.707 18V8ZM332.617 18C335.378 18 337.617 15.7614 337.617 13C337.617 10.2386 335.378 8 332.617 8V18ZM322.526 8C319.764 8 317.526 10.2386 317.526 13C317.526 15.7614 319.764 18 322.526 18V8ZM312.435 18C315.196 18 317.435 15.7614 317.435 13C317.435 10.2386 315.196 8 312.435 8V18ZM302.344 8C299.582 8 297.344 10.2386 297.344 13C297.344 15.7614 299.582 18 302.344 18V8ZM292.253 18C295.014 18 297.253 15.7614 297.253 13C297.253 10.2386 295.014 8 292.253 8V18ZM282.162 8C279.401 8 277.162 10.2386 277.162 13C277.162 15.7614 279.401 18 282.162 18V8ZM272.071 18C274.833 18 277.071 15.7614 277.071 13C277.071 10.2386 274.833 8 272.071 8V18ZM261.98 8C259.219 8 256.98 10.2386 256.98 13C256.98 15.7614 259.219 18 261.98 18V8ZM251.889 18C254.651 18 256.889 15.7614 256.889 13C256.889 10.2386 254.651 8 251.889 8V18ZM241.799 8C239.037 8 236.799 10.2386 236.799 13C236.799 15.7614 239.037 18 241.799 18V8ZM231.708 18C234.469 18 236.708 15.7614 236.708 13C236.708 10.2386 234.469 8 231.708 8V18ZM221.617 8C218.855 8 216.617 10.2386 216.617 13C216.617 15.7614 218.855 18 221.617 18V8ZM211.526 18C214.287 18 216.526 15.7614 216.526 13C216.526 10.2386 214.287 8 211.526 8V18ZM201.435 8C198.674 8 196.435 10.2386 196.435 13C196.435 15.7614 198.674 18 201.435 18V8ZM191.344 18C194.106 18 196.344 15.7614 196.344 13C196.344 10.2386 194.106 8 191.344 8V18ZM181.253 8C178.492 8 176.253 10.2386 176.253 13C176.253 15.7614 178.492 18 181.253 18V8ZM171.162 18C173.924 18 176.162 15.7614 176.162 13C176.162 10.2386 173.924 8 171.162 8V18ZM161.072 8C158.31 8 156.072 10.2386 156.072 13C156.072 15.7614 158.31 18 161.072 18V8ZM150.981 18C153.742 18 155.981 15.7614 155.981 13C155.981 10.2386 153.742 8 150.981 8V18ZM140.89 8C138.128 8 135.89 10.2386 135.89 13C135.89 15.7614 138.128 18 140.89 18V8ZM130.799 18C133.56 18 135.799 15.7614 135.799 13C135.799 10.2386 133.56 8 130.799 8V18ZM120.708 8C117.947 8 115.708 10.2386 115.708 13C115.708 15.7614 117.947 18 120.708 18V8ZM110.617 18C113.379 18 115.617 15.7614 115.617 13C115.617 10.2386 113.379 8 110.617 8V18ZM100.526 8C97.7648 8 95.5263 10.2386 95.5263 13C95.5263 15.7614 97.7648 18 100.526 18V8ZM90.4354 18C93.1968 18 95.4354 15.7614 95.4354 13C95.4354 10.2386 93.1968 8 90.4354 8V18ZM80.3445 8C77.5831 8 75.3445 10.2386 75.3445 13C75.3445 15.7614 77.5831 18 80.3445 18V8ZM70.2536 18C73.0151 18 75.2536 15.7614 75.2536 13C75.2536 10.2386 73.0151 8 70.2536 8V18ZM60.1628 8C57.4013 8 55.1628 10.2386 55.1628 13C55.1628 15.7614 57.4013 18 60.1628 18V8ZM50.0719 18C52.8333 18 55.0719 15.7614 55.0719 13C55.0719 10.2386 52.8333 8 50.0719 8V18ZM39.981 8C37.2196 8 34.981 10.2386 34.981 13C34.981 15.7614 37.2196 18 39.981 18V8ZM29.8901 18C32.6515 18 34.8901 15.7614 34.8901 13C34.8901 10.2386 32.6515 8 29.8901 8V18ZM19.7992 8C17.0378 8 14.7992 10.2386 14.7992 13C14.7992 15.7614 17.0378 18 19.7992 18V8ZM9.70835 18C12.4698 18 14.7083 15.7614 14.7083 13C14.7083 10.2386 12.4698 8 9.70835 8V18ZM4.66275 151H9.70819V141H4.66275V151ZM19.7991 151H29.89V141H19.7991V151ZM39.9809 151H50.0717V141H39.9809V151ZM60.1626 151H70.2535V141H60.1626V151ZM80.3444 151H90.4353V141H80.3444V151ZM100.526 151H110.617V141H100.526V151ZM120.708 151H130.799V141H120.708V151ZM140.89 151H150.981V141H140.89V151ZM161.072 151H171.162V141H161.072V151ZM181.253 151H191.344V141H181.253V151ZM201.435 151H211.526V141H201.435V151ZM221.617 151H231.708V141H221.617V151ZM241.799 151H251.889V141H241.799V151ZM261.98 151H272.071V141H261.98V151ZM282.162 151H292.253V141H282.162V151ZM302.344 151H312.435V141H302.344V151ZM322.526 151H332.616V141H322.526V151ZM342.707 151H352.798V141H342.707V151ZM362.889 151H372.98V141H362.889V151ZM383.071 151H393.162V141H383.071V151ZM403.253 151H413.344V141H403.253V151ZM423.434 151H433.525V141H423.434V151ZM443.616 151H448.662V141H443.616V151ZM448.662 8H443.616V18H448.662V8ZM433.525 8H423.435V18H433.525V8ZM413.344 8H403.253V18H413.344V8ZM393.162 8H383.071V18H393.162V8ZM372.98 8H362.889V18H372.98V8ZM352.798 8H342.707V18H352.798V8ZM332.617 8H322.526V18H332.617V8ZM312.435 8H302.344V18H312.435V8ZM292.253 8H282.162V18H292.253V8ZM272.071 8H261.98V18H272.071V8ZM251.889 8H241.799V18H251.889V8ZM231.708 8H221.617V18H231.708V8ZM211.526 8H201.435V18H211.526V8ZM191.344 8H181.253V18H191.344V8ZM171.162 8H161.072V18H171.162V8ZM150.981 8H140.89V18H150.981V8ZM130.799 8H120.708V18H130.799V8ZM110.617 8H100.526V18H110.617V8ZM90.4354 8H80.3445V18H90.4354V8ZM70.2536 8H60.1628V18H70.2536V8ZM50.0719 8H39.981V18H50.0719V8ZM29.8901 8H19.7992V18H29.8901V8ZM9.70835 8H4.66275V18H9.70835V8Z" fill="url(#paint0_angular_46_210)" mask="url(#path-2-inside-1_46_210)"/>
</g>
<path d="M56.6401 93.52C54.5334 93.52 52.8534 93.2933 51.6001 92.84C50.6134 92.4667 49.6934 91.88 48.8401 91.08C47.9867 90.28 47.1867 89.5733 46.4401 88.96L46.2001 88.36L46.9601 85.32C47.1467 85.3733 47.3334 85.56 47.5201 85.88C47.7334 86.2 47.8934 86.4 48.0001 86.48C48.6934 87.0667 49.3867 87.6933 50.0801 88.36C50.7734 89.0267 51.5467 89.52 52.4001 89.84C52.7201 89.9467 53.2001 90.0533 53.8401 90.16C54.5067 90.2667 55.4401 90.32 56.6401 90.32C57.5201 90.32 58.2401 90.24 58.8001 90.08C59.3601 89.8933 59.8801 89.6 60.3601 89.2C60.7601 88.88 61.0934 88.4533 61.3601 87.92C61.6534 87.36 61.8001 86.8667 61.8001 86.44C61.8001 86.0933 61.7734 85.76 61.7201 85.44C61.6667 85.12 61.4401 84.72 61.0401 84.24C60.6667 83.7333 59.9601 83.0933 58.9201 82.32C58.2267 81.7867 57.4534 81.36 56.6001 81.04C55.7467 80.6933 54.8534 80.32 53.9201 79.92C53.0134 79.4933 52.1067 78.92 51.2001 78.2C50.2934 77.48 49.4401 76.4667 48.6401 75.16C48.0534 74.1467 47.7601 73.1867 47.7601 72.28C47.7601 71.0533 48.0134 70.08 48.5201 69.36C49.0267 68.6133 49.8401 68.0267 50.9601 67.6C51.8934 67.28 52.7867 67.04 53.6401 66.88C54.5201 66.6933 55.3734 66.6 56.2001 66.6C57.3467 66.6 58.4134 66.76 59.4001 67.08C60.4134 67.4 61.4667 67.92 62.5601 68.64L61.2801 71.32C60.4534 70.7867 59.6401 70.4 58.8401 70.16C58.0401 69.92 57.1601 69.8 56.2001 69.8C54.7334 69.8 53.2667 70.0667 51.8001 70.6C51.0001 70.8933 50.5201 71.12 50.3601 71.28C50.2267 71.44 50.1601 71.7733 50.1601 72.28C50.1601 72.3867 50.1867 72.52 50.2401 72.68C50.2934 72.8133 50.4534 73.0933 50.7201 73.52C51.3067 74.48 51.9334 75.2 52.6001 75.68C53.2934 76.16 54.0401 76.56 54.8401 76.88C55.6401 77.2 56.4934 77.5733 57.4001 78C58.3334 78.4 59.3201 79 60.3601 79.8C61.4801 80.6533 62.3067 81.5067 62.8401 82.36C63.4001 83.2133 63.7601 84 63.9201 84.72C64.1067 85.4133 64.2001 85.9867 64.2001 86.44C64.2001 87.3467 63.9601 88.32 63.4801 89.36C63.0267 90.3733 62.4934 91.1467 61.8801 91.68C61.0267 92.3733 60.2267 92.8533 59.4801 93.12C58.7601 93.3867 57.8134 93.52 56.6401 93.52ZM73.7569 92.96C71.3036 92.96 69.7169 92.76 68.9969 92.36C68.8103 92.2267 68.6903 92.1067 68.6369 92C68.6103 91.8667 68.6369 91.6533 68.7169 91.36C68.7969 91.04 68.8903 90.5467 68.9969 89.88C69.1303 88.9733 69.2369 87.9467 69.3169 86.8C69.4236 85.6267 69.5036 84.48 69.5569 83.36C69.5836 83.0933 69.5969 82.8267 69.5969 82.56C69.6236 82.2667 69.6369 81.9733 69.6369 81.68C69.6369 80.5867 69.5836 79.4933 69.4769 78.4C69.3969 77.28 69.2903 76.1733 69.1569 75.08C69.0503 74.0933 68.9836 73.12 68.9569 72.16C68.9303 71.1733 68.8769 70.2133 68.7969 69.28L69.5969 69.2V67.16C71.4369 67.16 73.3036 67.1333 75.1969 67.08C77.0903 67.0267 79.0236 66.9067 80.9969 66.72C81.1303 66.72 81.2636 66.72 81.3969 66.72C81.5303 66.6933 81.6636 66.68 81.7969 66.68C82.5703 66.68 83.2769 66.72 83.9169 66.8C84.5569 66.88 85.1569 66.8267 85.7169 66.64V69.84C85.0236 70.0267 84.3569 70.08 83.7169 70C83.0769 69.92 82.4369 69.88 81.7969 69.88C81.6903 69.88 81.5836 69.8933 81.4769 69.92C81.3969 69.92 81.3169 69.92 81.2369 69.92C79.6636 70.0533 78.0769 70.16 76.4769 70.24C74.8769 70.2933 73.2769 70.3333 71.6769 70.36C71.7303 71.1067 71.7569 71.8533 71.7569 72.6C71.7836 73.32 71.8369 74.0267 71.9169 74.72C71.9703 75.1733 72.0236 75.64 72.0769 76.12C72.1303 76.6 72.1703 77.08 72.1969 77.56C72.3569 77.5333 72.5169 77.52 72.6769 77.52C72.8369 77.52 72.9969 77.52 73.1569 77.52C74.1703 77.52 75.2103 77.5733 76.2769 77.68C77.3436 77.76 78.3436 77.8 79.2769 77.8C79.5169 77.8 79.7436 77.8 79.9569 77.8C80.1703 77.7733 80.3569 77.76 80.5169 77.76C81.1303 77.7067 81.6103 77.6267 81.9569 77.52C82.3303 77.4133 82.5703 77.3867 82.6769 77.44C82.8103 77.4667 82.8369 77.6533 82.7569 78L83.9569 80.24C83.7703 80.4267 83.4236 80.5733 82.9169 80.68C82.4369 80.76 81.7169 80.84 80.7569 80.92C80.5169 80.9467 80.2769 80.9733 80.0369 81C79.7969 81 79.5436 81 79.2769 81C78.2903 81 77.2636 80.96 76.1969 80.88C75.1303 80.7733 74.1169 80.72 73.1569 80.72H72.3969C72.4236 80.88 72.4369 81.04 72.4369 81.2C72.4369 81.36 72.4369 81.52 72.4369 81.68C72.4369 82 72.4236 82.32 72.3969 82.64C72.3969 82.9333 72.3836 83.2267 72.3569 83.52C72.3036 84.5867 72.2369 85.6667 72.1569 86.76C72.0769 87.8267 71.9703 88.8 71.8369 89.68C72.1303 89.7067 72.4503 89.7333 72.7969 89.76C73.1436 89.76 73.4636 89.76 73.7569 89.76C74.4236 89.76 75.1836 89.7467 76.0369 89.72C76.9169 89.6933 77.7969 89.68 78.6769 89.68C79.5569 89.6533 80.3569 89.6267 81.0769 89.6C81.8236 89.5733 82.3836 89.56 82.7569 89.56L84.2769 89.88L86.6769 91.88C86.6769 92.3333 86.3703 92.6 85.7569 92.68C85.1436 92.7333 84.1436 92.76 82.7569 92.76C82.4103 92.76 81.8769 92.7733 81.1569 92.8C80.4369 92.8267 79.6369 92.8533 78.7569 92.88C77.8769 92.88 76.9969 92.8933 76.1169 92.92C75.2369 92.9467 74.4503 92.96 73.7569 92.96ZM96.9601 92.96C94.5067 92.96 92.9201 92.76 92.2001 92.36C92.0134 92.2267 91.8934 92.1067 91.8401 92C91.8134 91.8667 91.8401 91.6533 91.9201 91.36C92.0001 91.04 92.0934 90.5467 92.2001 89.88C92.3334 88.9733 92.4401 87.9467 92.5201 86.8C92.6267 85.6267 92.7067 84.48 92.7601 83.36C92.7867 83.0933 92.8001 82.8267 92.8001 82.56C92.8267 82.2667 92.8401 81.9733 92.8401 81.68C92.8401 80.5867 92.7867 79.4933 92.6801 78.4C92.6001 77.28 92.4934 76.1733 92.3601 75.08C92.2534 74.0933 92.1867 73.12 92.1601 72.16C92.1334 71.1733 92.0801 70.2133 92.0001 69.28L92.8001 69.2V67.16C94.6401 67.16 96.5067 67.1333 98.4001 67.08C100.293 67.0267 102.227 66.9067 104.2 66.72C104.333 66.72 104.467 66.72 104.6 66.72C104.733 66.6933 104.867 66.68 105 66.68C105.773 66.68 106.48 66.72 107.12 66.8C107.76 66.88 108.36 66.8267 108.92 66.64V69.84C108.227 70.0267 107.56 70.08 106.92 70C106.28 69.92 105.64 69.88 105 69.88C104.893 69.88 104.787 69.8933 104.68 69.92C104.6 69.92 104.52 69.92 104.44 69.92C102.867 70.0533 101.28 70.16 99.6801 70.24C98.0801 70.2933 96.4801 70.3333 94.8801 70.36C94.9334 71.1067 94.9601 71.8533 94.9601 72.6C94.9867 73.32 95.0401 74.0267 95.1201 74.72C95.1734 75.1733 95.2267 75.64 95.2801 76.12C95.3334 76.6 95.3734 77.08 95.4001 77.56C95.5601 77.5333 95.7201 77.52 95.8801 77.52C96.0401 77.52 96.2001 77.52 96.3601 77.52C97.3734 77.52 98.4134 77.5733 99.4801 77.68C100.547 77.76 101.547 77.8 102.48 77.8C102.72 77.8 102.947 77.8 103.16 77.8C103.373 77.7733 103.56 77.76 103.72 77.76C104.333 77.7067 104.813 77.6267 105.16 77.52C105.533 77.4133 105.773 77.3867 105.88 77.44C106.013 77.4667 106.04 77.6533 105.96 78L107.16 80.24C106.973 80.4267 106.627 80.5733 106.12 80.68C105.64 80.76 104.92 80.84 103.96 80.92C103.72 80.9467 103.48 80.9733 103.24 81C103 81 102.747 81 102.48 81C101.493 81 100.467 80.96 99.4001 80.88C98.3334 80.7733 97.3201 80.72 96.3601 80.72H95.6001C95.6267 80.88 95.6401 81.04 95.6401 81.2C95.6401 81.36 95.6401 81.52 95.6401 81.68C95.6401 82 95.6267 82.32 95.6001 82.64C95.6001 82.9333 95.5867 83.2267 95.5601 83.52C95.5067 84.5867 95.4401 85.6667 95.3601 86.76C95.2801 87.8267 95.1734 88.8 95.0401 89.68C95.3334 89.7067 95.6534 89.7333 96.0001 89.76C96.3467 89.76 96.6667 89.76 96.9601 89.76C97.6267 89.76 98.3867 89.7467 99.2401 89.72C100.12 89.6933 101 89.68 101.88 89.68C102.76 89.6533 103.56 89.6267 104.28 89.6C105.027 89.5733 105.587 89.56 105.96 89.56L107.48 89.88L109.88 91.88C109.88 92.3333 109.573 92.6 108.96 92.68C108.347 92.7333 107.347 92.76 105.96 92.76C105.613 92.76 105.08 92.7733 104.36 92.8C103.64 92.8267 102.84 92.8533 101.96 92.88C101.08 92.88 100.2 92.8933 99.3201 92.92C98.4401 92.9467 97.6534 92.96 96.9601 92.96ZM152.243 93.4V92.16C151.897 92.16 151.683 92.0667 151.603 91.88C151.55 91.6933 151.563 91.3333 151.643 90.8C151.723 90.2667 151.777 89.48 151.803 88.44C151.857 87.1067 151.923 85.7733 152.003 84.44C152.083 83.08 152.123 81.7467 152.123 80.44C152.123 79.6667 152.11 78.96 152.083 78.32C152.057 77.68 152.003 76.9867 151.923 76.24C151.71 74.5867 151.55 72.8533 151.443 71.04C151.443 70.8267 151.443 70.6133 151.443 70.4C151.443 70.1867 151.43 69.9867 151.403 69.8C151.137 70.2533 150.883 70.7333 150.643 71.24C150.43 71.72 150.257 72.0533 150.123 72.24C149.457 73.3867 148.91 74.5067 148.483 75.6C148.083 76.6667 147.657 77.6667 147.203 78.6C146.803 79.5067 146.417 80.44 146.043 81.4C145.697 82.36 145.337 83.3067 144.963 84.24C144.59 85.1733 144.203 86.0667 143.803 86.92C143.43 87.7733 142.95 88.6267 142.363 89.48C142.417 89.5333 142.457 89.6133 142.483 89.72C142.537 89.8 142.59 89.88 142.643 89.96L141.603 91.68C141.443 92.32 141.203 92.7467 140.883 92.96C140.59 93.1467 140.27 93.2 139.923 93.12C139.603 93.0667 139.31 92.96 139.043 92.8C138.803 92.6133 138.643 92.4533 138.563 92.32C138.457 92.08 138.43 91.72 138.483 91.24C138.563 90.7333 138.55 90.32 138.443 90L138.403 89.84C137.897 88.88 137.403 88 136.923 87.2C136.47 86.4 135.99 85.4667 135.483 84.4C134.923 83.2 134.297 81.9867 133.603 80.76C132.91 79.5333 132.177 78.3067 131.403 77.08C130.95 76.3867 130.55 75.6267 130.203 74.8C129.883 73.9733 129.523 73.2 129.123 72.48C128.99 72.2133 128.843 71.9333 128.683 71.64C128.523 71.3467 128.35 71.0533 128.163 70.76C128.137 72.4667 128.083 74.1733 128.003 75.88C127.95 77.56 127.91 79.2267 127.883 80.88C127.857 81.4133 127.843 81.96 127.843 82.52C127.843 83.0533 127.843 83.6267 127.843 84.24C127.843 85.12 127.843 86.0267 127.843 86.96C127.87 87.8667 127.897 88.8133 127.923 89.8C127.923 90.2267 127.923 90.7467 127.923 91.36C127.95 91.9467 127.963 92.4933 127.963 93H125.163C125.163 92.68 125.163 92.2267 125.163 91.64C125.163 91.0533 125.15 90.4667 125.123 89.88C125.097 88.92 125.07 87.9733 125.043 87.04C125.043 86.08 125.043 85.1467 125.043 84.24C125.043 83.6533 125.043 83.08 125.043 82.52C125.043 81.96 125.057 81.4 125.083 80.84C125.137 78.5467 125.203 76.2667 125.283 74C125.363 71.7333 125.403 69.48 125.403 67.24H128.003L129.203 66.64C129.443 67.2 129.79 67.8667 130.243 68.64C130.723 69.4133 131.177 70.1867 131.603 70.96C132.003 71.7067 132.35 72.4533 132.643 73.2C132.963 73.9467 133.337 74.6667 133.763 75.36C134.457 76.5333 135.11 77.7333 135.723 78.96C136.337 80.1867 137.043 81.4267 137.843 82.68C138.217 83.2667 138.657 83.88 139.163 84.52C139.697 85.1333 140.217 85.8267 140.723 86.6C140.99 86.1467 141.243 85.6533 141.483 85.12C141.75 84.56 142.043 83.8667 142.363 83.04C142.737 82.1333 143.097 81.2133 143.443 80.28C143.817 79.32 144.203 78.3867 144.603 77.48C145.137 76.3067 145.643 75.1333 146.123 73.96C146.603 72.76 147.137 71.6533 147.723 70.64C147.803 70.48 147.95 70.1867 148.163 69.76C148.377 69.3333 148.617 68.8667 148.883 68.36C149.177 67.8533 149.483 67.3733 149.803 66.92C150.15 66.4667 150.497 66.1467 150.843 65.96L154.203 68.4V69.12C154.203 69.4133 154.203 69.7067 154.203 70C154.23 70.2933 154.243 70.5867 154.243 70.88C154.297 71.5467 154.35 72.2933 154.403 73.12C154.483 73.9467 154.577 74.8667 154.683 75.88C154.763 76.6267 154.817 77.3467 154.843 78.04C154.897 78.7067 154.923 79.5067 154.923 80.44C154.923 81.8267 154.897 83.2133 154.843 84.6C154.79 85.96 154.71 87.2933 154.603 88.6C154.523 89.7733 154.47 90.72 154.443 91.44C154.443 92.1333 154.297 92.64 154.003 92.96C153.71 93.2533 153.123 93.4 152.243 93.4ZM170.413 93.36C169.56 93.36 168.693 93.1733 167.813 92.8C166.96 92.4267 166.013 91.8533 164.973 91.08C164.067 90.4133 163.48 89.64 163.213 88.76C162.973 87.88 162.747 86.9867 162.533 86.08C162.32 85.12 162.12 84.16 161.933 83.2C161.773 82.24 161.613 81.2667 161.453 80.28C161.427 80.1733 161.347 79.9733 161.213 79.68C161.107 79.36 161.08 79.0533 161.133 78.76C161.293 77.9867 161.573 77.0933 161.973 76.08C162.373 75.0667 162.853 74.04 163.413 73C164 71.9333 164.653 70.9467 165.373 70.04C166.12 69.1333 166.92 68.3867 167.773 67.8C168.627 67.1867 169.507 66.84 170.413 66.76C170.547 66.7333 170.68 66.72 170.813 66.72C170.947 66.72 171.067 66.72 171.173 66.72C171.947 66.72 172.84 66.8267 173.853 67.04C174.867 67.2533 175.867 67.56 176.853 67.96C177.867 68.36 178.693 68.84 179.333 69.4C179.973 69.9333 180.467 70.3733 180.813 70.72C181.16 71.04 181.347 71.32 181.373 71.56C181.613 71.5067 181.787 71.6 181.893 71.84C182.027 72.08 182.12 72.36 182.173 72.68C182.227 73 182.253 73.2933 182.253 73.56C182.28 73.8 182.293 73.9333 182.293 73.96C182.507 75.1067 182.64 76.2533 182.693 77.4C182.773 78.5467 182.773 79.6667 182.693 80.76C182.64 81.6667 182.453 82.72 182.133 83.92C181.84 85.12 181.427 86.32 180.893 87.52C180.36 88.72 179.72 89.7867 178.973 90.72C178.227 91.6533 177.373 92.32 176.413 92.72C176.093 92.8267 175.573 92.9333 174.853 93.04C174.133 93.1467 173.36 93.2267 172.533 93.28C171.733 93.3333 171.027 93.36 170.413 93.36ZM170.413 90.16C170.92 90.16 171.52 90.1467 172.213 90.12C172.933 90.0667 173.587 90.0133 174.173 89.96C174.787 89.88 175.187 89.8 175.373 89.72C176.067 89.4267 176.747 88.8 177.413 87.84C178.08 86.88 178.64 85.7467 179.093 84.44C179.547 83.1333 179.813 81.8267 179.893 80.52C180.053 78.6533 179.933 76.6533 179.533 74.52L177.533 71.84C177.08 71.4667 176.453 71.1333 175.653 70.84C174.88 70.5467 174.08 70.32 173.253 70.16C172.427 70 171.733 69.92 171.173 69.92H170.733C170.147 69.9733 169.52 70.2667 168.853 70.8C168.213 71.3333 167.573 72.0267 166.933 72.88C166.32 73.7067 165.76 74.6133 165.253 75.6C164.747 76.5867 164.347 77.5867 164.053 78.6C164.08 78.7067 164.107 78.8533 164.133 79.04C164.16 79.2267 164.187 79.4667 164.213 79.76C164.373 80.6933 164.533 81.6267 164.693 82.56C164.853 83.4933 165.04 84.4267 165.253 85.36C165.467 86.1867 165.613 86.8 165.693 87.2C165.8 87.5733 165.92 87.84 166.053 88C166.187 88.16 166.373 88.3333 166.613 88.52C167.387 89.08 168.067 89.4933 168.653 89.76C169.267 90.0267 169.853 90.16 170.413 90.16ZM210.55 97.04C209.296 97.04 208.203 96.7467 207.27 96.16C206.896 95.8933 206.47 95.48 205.99 94.92C205.536 94.3867 205.11 93.84 204.71 93.28C204.336 92.7467 204.043 92.36 203.83 92.12C203.376 91.56 202.803 90.8533 202.11 90C201.416 89.1467 200.723 88.24 200.03 87.28C199.336 86.2933 198.736 85.3733 198.23 84.52C198.15 84.36 198.03 84.24 197.87 84.16C197.71 84.08 197.576 84 197.47 83.92L197.99 83.12C197.936 83.1467 197.87 83.1733 197.79 83.2C197.71 83.2267 197.643 83.2667 197.59 83.32C196.763 83.6933 196.11 84.0533 195.63 84.4C195.15 84.7467 194.803 84.9467 194.59 85C194.376 85.0267 194.27 84.7467 194.27 84.16H191.91V84.76C191.91 85.9867 191.883 87.0933 191.83 88.08C191.803 89.04 191.79 90.12 191.79 91.32C191.79 92.04 191.696 92.5867 191.51 92.96C191.323 93.3333 191.003 93.52 190.55 93.52L188.99 92.68L189.11 84.76C189.11 83.16 189.083 81.56 189.03 79.96C188.976 78.3333 188.95 76.7067 188.95 75.08C188.95 74.4667 188.95 73.88 188.95 73.32C188.976 72.7333 189.003 72.1733 189.03 71.64C189.03 71.5067 189.03 71.3733 189.03 71.24C189.056 71.1067 189.083 70.9867 189.11 70.88C188.923 70.9067 188.723 70.9333 188.51 70.96C188.296 70.9867 188.083 71.0267 187.87 71.08C186.563 71.3467 185.616 71.4133 185.03 71.28C184.47 71.1467 184.19 70.5467 184.19 69.48L187.39 67.96C188.083 67.8267 188.776 67.7067 189.47 67.6C190.163 67.4933 190.87 67.4267 191.59 67.4C192.07 67.3467 192.536 67.32 192.99 67.32C193.47 67.32 193.95 67.32 194.43 67.32C196.323 67.32 198.363 67.44 200.55 67.68C200.763 67.7067 201.043 67.7333 201.39 67.76C201.763 67.76 202.123 67.8533 202.47 68.04C203.883 68.7067 205.03 69.8667 205.91 71.52C206.043 71.76 206.136 72.0667 206.19 72.44C206.27 72.7867 206.31 73.1467 206.31 73.52C206.31 74.24 206.19 75.0267 205.95 75.88C205.71 76.7333 205.39 77.5333 204.99 78.28C204.59 79 204.163 79.5467 203.71 79.92C203.15 80.3733 202.536 80.8 201.87 81.2C201.23 81.5733 200.576 81.92 199.91 82.24C200.016 82.3467 200.11 82.4667 200.19 82.6C200.27 82.7333 200.336 82.8267 200.39 82.88C200.896 83.4933 201.51 84.28 202.23 85.24C202.976 86.2 203.71 87.16 204.43 88.12C205.15 89.08 205.763 89.88 206.27 90.52C206.456 90.76 206.71 91.1333 207.03 91.64C207.376 92.12 207.71 92.5733 208.03 93C208.376 93.4533 208.643 93.7467 208.83 93.88C209.203 94.12 209.776 94.24 210.55 94.24C211.11 94.24 211.563 94.1733 211.91 94.04L212.83 96.68C212.163 96.92 211.403 97.04 210.55 97.04ZM191.91 82.88C192.23 82.48 192.75 82.1067 193.47 81.76C194.216 81.4133 195.19 80.96 196.39 80.4C197.43 79.92 198.443 79.4533 199.43 79C200.416 78.5467 201.256 78.0267 201.95 77.44C202.323 77.12 202.67 76.56 202.99 75.76C203.336 74.9333 203.51 74.1867 203.51 73.52C203.51 73.28 203.483 73.1067 203.43 73C203.163 72.4667 202.87 72.0533 202.55 71.76C202.23 71.44 201.803 71.16 201.27 70.92C201.35 70.9467 201.243 70.9467 200.95 70.92C200.656 70.8933 200.416 70.8667 200.23 70.84C199.19 70.7067 198.19 70.6267 197.23 70.6C196.296 70.5467 195.363 70.52 194.43 70.52C194.03 70.52 193.616 70.52 193.19 70.52C192.79 70.52 192.39 70.5467 191.99 70.6C191.963 70.8133 191.923 71.0267 191.87 71.24C191.843 71.4267 191.83 71.6 191.83 71.76C191.803 72.32 191.776 72.88 191.75 73.44C191.75 73.9733 191.75 74.52 191.75 75.08C191.75 76.36 191.763 77.6533 191.79 78.96C191.843 80.2667 191.883 81.5733 191.91 82.88ZM217.702 92.96C215.249 92.96 213.662 92.76 212.942 92.36C212.756 92.2267 212.636 92.1067 212.582 92C212.556 91.8667 212.582 91.6533 212.662 91.36C212.742 91.04 212.836 90.5467 212.942 89.88C213.076 88.9733 213.182 87.9467 213.262 86.8C213.369 85.6267 213.449 84.48 213.502 83.36C213.529 83.0933 213.542 82.8267 213.542 82.56C213.569 82.2667 213.582 81.9733 213.582 81.68C213.582 80.5867 213.529 79.4933 213.422 78.4C213.342 77.28 213.236 76.1733 213.102 75.08C212.996 74.0933 212.929 73.12 212.902 72.16C212.876 71.1733 212.822 70.2133 212.742 69.28L213.542 69.2V67.16C215.382 67.16 217.249 67.1333 219.142 67.08C221.036 67.0267 222.969 66.9067 224.942 66.72C225.076 66.72 225.209 66.72 225.342 66.72C225.476 66.6933 225.609 66.68 225.742 66.68C226.516 66.68 227.222 66.72 227.862 66.8C228.502 66.88 229.102 66.8267 229.662 66.64V69.84C228.969 70.0267 228.302 70.08 227.662 70C227.022 69.92 226.382 69.88 225.742 69.88C225.636 69.88 225.529 69.8933 225.422 69.92C225.342 69.92 225.262 69.92 225.182 69.92C223.609 70.0533 222.022 70.16 220.422 70.24C218.822 70.2933 217.222 70.3333 215.622 70.36C215.676 71.1067 215.702 71.8533 215.702 72.6C215.729 73.32 215.782 74.0267 215.862 74.72C215.916 75.1733 215.969 75.64 216.022 76.12C216.076 76.6 216.116 77.08 216.142 77.56C216.302 77.5333 216.462 77.52 216.622 77.52C216.782 77.52 216.942 77.52 217.102 77.52C218.116 77.52 219.156 77.5733 220.222 77.68C221.289 77.76 222.289 77.8 223.222 77.8C223.462 77.8 223.689 77.8 223.902 77.8C224.116 77.7733 224.302 77.76 224.462 77.76C225.076 77.7067 225.556 77.6267 225.902 77.52C226.276 77.4133 226.516 77.3867 226.622 77.44C226.756 77.4667 226.782 77.6533 226.702 78L227.902 80.24C227.716 80.4267 227.369 80.5733 226.862 80.68C226.382 80.76 225.662 80.84 224.702 80.92C224.462 80.9467 224.222 80.9733 223.982 81C223.742 81 223.489 81 223.222 81C222.236 81 221.209 80.96 220.142 80.88C219.076 80.7733 218.062 80.72 217.102 80.72H216.342C216.369 80.88 216.382 81.04 216.382 81.2C216.382 81.36 216.382 81.52 216.382 81.68C216.382 82 216.369 82.32 216.342 82.64C216.342 82.9333 216.329 83.2267 216.302 83.52C216.249 84.5867 216.182 85.6667 216.102 86.76C216.022 87.8267 215.916 88.8 215.782 89.68C216.076 89.7067 216.396 89.7333 216.742 89.76C217.089 89.76 217.409 89.76 217.702 89.76C218.369 89.76 219.129 89.7467 219.982 89.72C220.862 89.6933 221.742 89.68 222.622 89.68C223.502 89.6533 224.302 89.6267 225.022 89.6C225.769 89.5733 226.329 89.56 226.702 89.56L228.222 89.88L230.622 91.88C230.622 92.3333 230.316 92.6 229.702 92.68C229.089 92.7333 228.089 92.76 226.702 92.76C226.356 92.76 225.822 92.7733 225.102 92.8C224.382 92.8267 223.582 92.8533 222.702 92.88C221.822 92.88 220.942 92.8933 220.062 92.92C219.182 92.9467 218.396 92.96 217.702 92.96ZM255.585 93.52C253.479 93.52 251.799 93.2933 250.545 92.84C249.559 92.4667 248.639 91.88 247.785 91.08C246.932 90.28 246.132 89.5733 245.385 88.96L245.145 88.36L245.905 85.32C246.092 85.3733 246.279 85.56 246.465 85.88C246.679 86.2 246.839 86.4 246.945 86.48C247.639 87.0667 248.332 87.6933 249.025 88.36C249.719 89.0267 250.492 89.52 251.345 89.84C251.665 89.9467 252.145 90.0533 252.785 90.16C253.452 90.2667 254.385 90.32 255.585 90.32C256.465 90.32 257.185 90.24 257.745 90.08C258.305 89.8933 258.825 89.6 259.305 89.2C259.705 88.88 260.039 88.4533 260.305 87.92C260.599 87.36 260.745 86.8667 260.745 86.44C260.745 86.0933 260.719 85.76 260.665 85.44C260.612 85.12 260.385 84.72 259.985 84.24C259.612 83.7333 258.905 83.0933 257.865 82.32C257.172 81.7867 256.399 81.36 255.545 81.04C254.692 80.6933 253.799 80.32 252.865 79.92C251.959 79.4933 251.052 78.92 250.145 78.2C249.239 77.48 248.385 76.4667 247.585 75.16C246.999 74.1467 246.705 73.1867 246.705 72.28C246.705 71.0533 246.959 70.08 247.465 69.36C247.972 68.6133 248.785 68.0267 249.905 67.6C250.839 67.28 251.732 67.04 252.585 66.88C253.465 66.6933 254.319 66.6 255.145 66.6C256.292 66.6 257.359 66.76 258.345 67.08C259.359 67.4 260.412 67.92 261.505 68.64L260.225 71.32C259.399 70.7867 258.585 70.4 257.785 70.16C256.985 69.92 256.105 69.8 255.145 69.8C253.679 69.8 252.212 70.0667 250.745 70.6C249.945 70.8933 249.465 71.12 249.305 71.28C249.172 71.44 249.105 71.7733 249.105 72.28C249.105 72.3867 249.132 72.52 249.185 72.68C249.239 72.8133 249.399 73.0933 249.665 73.52C250.252 74.48 250.879 75.2 251.545 75.68C252.239 76.16 252.985 76.56 253.785 76.88C254.585 77.2 255.439 77.5733 256.345 78C257.279 78.4 258.265 79 259.305 79.8C260.425 80.6533 261.252 81.5067 261.785 82.36C262.345 83.2133 262.705 84 262.865 84.72C263.052 85.4133 263.145 85.9867 263.145 86.44C263.145 87.3467 262.905 88.32 262.425 89.36C261.972 90.3733 261.439 91.1467 260.825 91.68C259.972 92.3733 259.172 92.8533 258.425 93.12C257.705 93.3867 256.759 93.52 255.585 93.52ZM272.702 92.96C270.249 92.96 268.662 92.76 267.942 92.36C267.756 92.2267 267.636 92.1067 267.582 92C267.556 91.8667 267.582 91.6533 267.662 91.36C267.742 91.04 267.836 90.5467 267.942 89.88C268.076 88.9733 268.182 87.9467 268.262 86.8C268.369 85.6267 268.449 84.48 268.502 83.36C268.529 83.0933 268.542 82.8267 268.542 82.56C268.569 82.2667 268.582 81.9733 268.582 81.68C268.582 80.5867 268.529 79.4933 268.422 78.4C268.342 77.28 268.236 76.1733 268.102 75.08C267.996 74.0933 267.929 73.12 267.902 72.16C267.876 71.1733 267.822 70.2133 267.742 69.28L268.542 69.2V67.16C270.382 67.16 272.249 67.1333 274.142 67.08C276.036 67.0267 277.969 66.9067 279.942 66.72C280.076 66.72 280.209 66.72 280.342 66.72C280.476 66.6933 280.609 66.68 280.742 66.68C281.516 66.68 282.222 66.72 282.862 66.8C283.502 66.88 284.102 66.8267 284.662 66.64V69.84C283.969 70.0267 283.302 70.08 282.662 70C282.022 69.92 281.382 69.88 280.742 69.88C280.636 69.88 280.529 69.8933 280.422 69.92C280.342 69.92 280.262 69.92 280.182 69.92C278.609 70.0533 277.022 70.16 275.422 70.24C273.822 70.2933 272.222 70.3333 270.622 70.36C270.676 71.1067 270.702 71.8533 270.702 72.6C270.729 73.32 270.782 74.0267 270.862 74.72C270.916 75.1733 270.969 75.64 271.022 76.12C271.076 76.6 271.116 77.08 271.142 77.56C271.302 77.5333 271.462 77.52 271.622 77.52C271.782 77.52 271.942 77.52 272.102 77.52C273.116 77.52 274.156 77.5733 275.222 77.68C276.289 77.76 277.289 77.8 278.222 77.8C278.462 77.8 278.689 77.8 278.902 77.8C279.116 77.7733 279.302 77.76 279.462 77.76C280.076 77.7067 280.556 77.6267 280.902 77.52C281.276 77.4133 281.516 77.3867 281.622 77.44C281.756 77.4667 281.782 77.6533 281.702 78L282.902 80.24C282.716 80.4267 282.369 80.5733 281.862 80.68C281.382 80.76 280.662 80.84 279.702 80.92C279.462 80.9467 279.222 80.9733 278.982 81C278.742 81 278.489 81 278.222 81C277.236 81 276.209 80.96 275.142 80.88C274.076 80.7733 273.062 80.72 272.102 80.72H271.342C271.369 80.88 271.382 81.04 271.382 81.2C271.382 81.36 271.382 81.52 271.382 81.68C271.382 82 271.369 82.32 271.342 82.64C271.342 82.9333 271.329 83.2267 271.302 83.52C271.249 84.5867 271.182 85.6667 271.102 86.76C271.022 87.8267 270.916 88.8 270.782 89.68C271.076 89.7067 271.396 89.7333 271.742 89.76C272.089 89.76 272.409 89.76 272.702 89.76C273.369 89.76 274.129 89.7467 274.982 89.72C275.862 89.6933 276.742 89.68 277.622 89.68C278.502 89.6533 279.302 89.6267 280.022 89.6C280.769 89.5733 281.329 89.56 281.702 89.56L283.222 89.88L285.622 91.88C285.622 92.3333 285.316 92.6 284.702 92.68C284.089 92.7333 283.089 92.76 281.702 92.76C281.356 92.76 280.822 92.7733 280.102 92.8C279.382 92.8267 278.582 92.8533 277.702 92.88C276.822 92.88 275.942 92.8933 275.062 92.92C274.182 92.9467 273.396 92.96 272.702 92.96ZM314.065 97.04C312.812 97.04 311.719 96.7467 310.785 96.16C310.412 95.8933 309.985 95.48 309.505 94.92C309.052 94.3867 308.625 93.84 308.225 93.28C307.852 92.7467 307.559 92.36 307.345 92.12C306.892 91.56 306.319 90.8533 305.625 90C304.932 89.1467 304.239 88.24 303.545 87.28C302.852 86.2933 302.252 85.3733 301.745 84.52C301.665 84.36 301.545 84.24 301.385 84.16C301.225 84.08 301.092 84 300.985 83.92L301.505 83.12C301.452 83.1467 301.385 83.1733 301.305 83.2C301.225 83.2267 301.159 83.2667 301.105 83.32C300.279 83.6933 299.625 84.0533 299.145 84.4C298.665 84.7467 298.319 84.9467 298.105 85C297.892 85.0267 297.785 84.7467 297.785 84.16H295.425V84.76C295.425 85.9867 295.399 87.0933 295.345 88.08C295.319 89.04 295.305 90.12 295.305 91.32C295.305 92.04 295.212 92.5867 295.025 92.96C294.839 93.3333 294.519 93.52 294.065 93.52L292.505 92.68L292.625 84.76C292.625 83.16 292.599 81.56 292.545 79.96C292.492 78.3333 292.465 76.7067 292.465 75.08C292.465 74.4667 292.465 73.88 292.465 73.32C292.492 72.7333 292.519 72.1733 292.545 71.64C292.545 71.5067 292.545 71.3733 292.545 71.24C292.572 71.1067 292.599 70.9867 292.625 70.88C292.439 70.9067 292.239 70.9333 292.025 70.96C291.812 70.9867 291.599 71.0267 291.385 71.08C290.079 71.3467 289.132 71.4133 288.545 71.28C287.985 71.1467 287.705 70.5467 287.705 69.48L290.905 67.96C291.599 67.8267 292.292 67.7067 292.985 67.6C293.679 67.4933 294.385 67.4267 295.105 67.4C295.585 67.3467 296.052 67.32 296.505 67.32C296.985 67.32 297.465 67.32 297.945 67.32C299.839 67.32 301.879 67.44 304.065 67.68C304.279 67.7067 304.559 67.7333 304.905 67.76C305.279 67.76 305.639 67.8533 305.985 68.04C307.399 68.7067 308.545 69.8667 309.425 71.52C309.559 71.76 309.652 72.0667 309.705 72.44C309.785 72.7867 309.825 73.1467 309.825 73.52C309.825 74.24 309.705 75.0267 309.465 75.88C309.225 76.7333 308.905 77.5333 308.505 78.28C308.105 79 307.679 79.5467 307.225 79.92C306.665 80.3733 306.052 80.8 305.385 81.2C304.745 81.5733 304.092 81.92 303.425 82.24C303.532 82.3467 303.625 82.4667 303.705 82.6C303.785 82.7333 303.852 82.8267 303.905 82.88C304.412 83.4933 305.025 84.28 305.745 85.24C306.492 86.2 307.225 87.16 307.945 88.12C308.665 89.08 309.279 89.88 309.785 90.52C309.972 90.76 310.225 91.1333 310.545 91.64C310.892 92.12 311.225 92.5733 311.545 93C311.892 93.4533 312.159 93.7467 312.345 93.88C312.719 94.12 313.292 94.24 314.065 94.24C314.625 94.24 315.079 94.1733 315.425 94.04L316.345 96.68C315.679 96.92 314.919 97.04 314.065 97.04ZM295.425 82.88C295.745 82.48 296.265 82.1067 296.985 81.76C297.732 81.4133 298.705 80.96 299.905 80.4C300.945 79.92 301.959 79.4533 302.945 79C303.932 78.5467 304.772 78.0267 305.465 77.44C305.839 77.12 306.185 76.56 306.505 75.76C306.852 74.9333 307.025 74.1867 307.025 73.52C307.025 73.28 306.999 73.1067 306.945 73C306.679 72.4667 306.385 72.0533 306.065 71.76C305.745 71.44 305.319 71.16 304.785 70.92C304.865 70.9467 304.759 70.9467 304.465 70.92C304.172 70.8933 303.932 70.8667 303.745 70.84C302.705 70.7067 301.705 70.6267 300.745 70.6C299.812 70.5467 298.879 70.52 297.945 70.52C297.545 70.52 297.132 70.52 296.705 70.52C296.305 70.52 295.905 70.5467 295.505 70.6C295.479 70.8133 295.439 71.0267 295.385 71.24C295.359 71.4267 295.345 71.6 295.345 71.76C295.319 72.32 295.292 72.88 295.265 73.44C295.265 73.9733 295.265 74.52 295.265 75.08C295.265 76.36 295.279 77.6533 295.305 78.96C295.359 80.2667 295.399 81.5733 295.425 82.88ZM322.466 93.28C322.226 92.8 322.026 92.3067 321.866 91.8C321.732 91.2667 321.559 90.7467 321.346 90.24C321.052 89.5733 320.732 88.9067 320.386 88.24C320.039 87.5733 319.732 86.8667 319.466 86.12C319.306 85.64 319.172 85.16 319.066 84.68C318.959 84.2 318.839 83.7333 318.706 83.28C318.092 81.2267 317.506 79.2 316.946 77.2C316.412 75.2 315.946 73.1467 315.546 71.04C315.519 70.9333 315.479 70.7067 315.426 70.36C315.372 69.9867 315.306 69.5733 315.226 69.12C315.172 68.6667 315.119 68.2533 315.066 67.88C315.012 67.5067 314.986 67.2667 314.986 67.16H317.786C317.786 67.1867 317.812 67.44 317.866 67.92C317.946 68.3733 318.026 68.8667 318.106 69.4C318.186 69.9067 318.239 70.2533 318.266 70.44C318.666 72.44 319.132 74.4133 319.666 76.36C320.199 78.28 320.772 80.2667 321.386 82.32C321.546 82.8267 321.666 83.3067 321.746 83.76C321.852 84.2133 321.972 84.64 322.106 85.04C322.239 85.3867 322.399 85.7733 322.586 86.2C322.799 86.6 323.012 87.0267 323.226 87.48C323.466 86.68 323.706 85.8933 323.946 85.12C324.212 84.3467 324.466 83.5867 324.706 82.84C324.919 82.1733 325.106 81.44 325.266 80.64C325.452 79.84 325.719 79.0267 326.066 78.2C326.919 76.2533 327.799 74.3733 328.706 72.56C329.612 70.7467 330.359 69.0267 330.946 67.4C331.132 66.8933 331.212 66.6267 331.186 66.6C331.186 66.5467 331.186 66.7333 331.186 67.16H333.986C333.986 67.4 333.932 67.6533 333.826 67.92C333.719 68.1867 333.639 68.3867 333.586 68.52C332.892 70.44 332.079 72.32 331.146 74.16C330.212 76 329.372 77.7733 328.626 79.48C328.359 80.1467 328.146 80.8533 327.986 81.6C327.826 82.3467 327.626 83.0933 327.386 83.84C326.959 85.12 326.532 86.4267 326.106 87.76C325.706 89.0667 325.292 90.3467 324.866 91.6C324.892 91.68 324.932 91.7733 324.986 91.88L324.706 92.04L324.586 92.44L324.226 92.32L322.466 93.28ZM338.162 93.04C338.162 90.5867 338.135 88.0267 338.082 85.36C338.029 82.6667 337.935 79.9067 337.802 77.08C337.775 76.84 337.762 76.5867 337.762 76.32C337.762 76.0533 337.762 75.8 337.762 75.56C337.762 74.12 337.802 72.68 337.882 71.24C337.989 69.7733 338.042 68.36 338.042 67H340.842C340.842 68.4133 340.789 69.8533 340.682 71.32C340.602 72.7867 340.562 74.2 340.562 75.56C340.562 75.8267 340.562 76.08 340.562 76.32C340.562 76.5333 340.575 76.7467 340.602 76.96C340.735 79.7867 340.829 82.56 340.882 85.28C340.935 88 340.962 90.5867 340.962 93.04H338.162ZM357.637 93.44C357.424 93.44 357.064 93.4267 356.557 93.4C356.051 93.4 355.677 93.3867 355.437 93.36C355.331 93.36 355.091 93.36 354.717 93.36C354.344 93.36 353.957 93.32 353.557 93.24C353.157 93.16 352.851 93.0133 352.637 92.8C352.291 92.4267 351.997 91.9867 351.757 91.48C351.517 90.9733 351.251 90.52 350.957 90.12C349.917 88.7333 349.104 87.4533 348.517 86.28C347.931 85.08 347.517 83.9067 347.277 82.76C347.064 81.6133 346.957 80.4 346.957 79.12C346.957 77.04 347.304 75.12 347.997 73.36C348.264 72.6667 348.771 71.9333 349.517 71.16C350.291 70.36 351.157 69.6133 352.117 68.92C353.104 68.2267 354.064 67.6667 354.997 67.24C355.931 66.8133 356.691 66.6 357.277 66.6C357.811 66.6 358.411 66.72 359.077 66.96C359.771 67.1733 360.331 67.36 360.757 67.52C361.264 67.7067 361.851 67.9333 362.517 68.2C363.184 68.44 363.731 68.8533 364.157 69.44L362.237 71.36L359.917 70.52C359.571 70.3867 359.117 70.1733 358.557 69.88C358.024 69.56 357.597 69.4 357.277 69.4C356.717 69.4 356.064 69.5867 355.317 69.96C354.597 70.3333 353.864 70.8 353.117 71.36C352.397 71.92 351.771 72.4933 351.237 73.08C350.704 73.64 350.371 74.1067 350.237 74.48C349.917 75.28 349.691 76.04 349.557 76.76C349.424 77.48 349.357 78.2667 349.357 79.12C349.357 80.2133 349.451 81.2533 349.637 82.24C349.824 83.2267 350.184 84.2533 350.717 85.32C351.251 86.3867 352.024 87.5867 353.037 88.92C353.411 89.4 353.651 89.76 353.757 90C353.864 90.2133 353.944 90.3867 353.997 90.52C354.077 90.6533 354.211 90.8267 354.397 91.04C354.211 90.5867 354.184 90.3867 354.317 90.44C354.451 90.4933 354.891 90.5467 355.637 90.6C355.851 90.6 356.184 90.6133 356.637 90.64C357.117 90.64 357.451 90.64 357.637 90.64C358.651 90.64 359.544 90.5067 360.317 90.24C361.117 89.9733 361.637 89.6267 361.877 89.2C362.171 88.6133 362.344 88.24 362.397 88.08C362.477 87.8933 362.517 87.9733 362.517 88.32L364.917 87.92C364.917 88.32 364.784 88.7733 364.517 89.28C364.251 89.7867 364.077 90.1333 363.997 90.32C363.411 91.3867 362.571 92.1733 361.477 92.68C360.384 93.1867 359.104 93.44 357.637 93.44ZM374.694 92.96C372.241 92.96 370.654 92.76 369.934 92.36C369.748 92.2267 369.628 92.1067 369.574 92C369.548 91.8667 369.574 91.6533 369.654 91.36C369.734 91.04 369.828 90.5467 369.934 89.88C370.068 88.9733 370.174 87.9467 370.254 86.8C370.361 85.6267 370.441 84.48 370.494 83.36C370.521 83.0933 370.534 82.8267 370.534 82.56C370.561 82.2667 370.574 81.9733 370.574 81.68C370.574 80.5867 370.521 79.4933 370.414 78.4C370.334 77.28 370.228 76.1733 370.094 75.08C369.988 74.0933 369.921 73.12 369.894 72.16C369.868 71.1733 369.814 70.2133 369.734 69.28L370.534 69.2V67.16C372.374 67.16 374.241 67.1333 376.134 67.08C378.028 67.0267 379.961 66.9067 381.934 66.72C382.068 66.72 382.201 66.72 382.334 66.72C382.468 66.6933 382.601 66.68 382.734 66.68C383.508 66.68 384.214 66.72 384.854 66.8C385.494 66.88 386.094 66.8267 386.654 66.64V69.84C385.961 70.0267 385.294 70.08 384.654 70C384.014 69.92 383.374 69.88 382.734 69.88C382.628 69.88 382.521 69.8933 382.414 69.92C382.334 69.92 382.254 69.92 382.174 69.92C380.601 70.0533 379.014 70.16 377.414 70.24C375.814 70.2933 374.214 70.3333 372.614 70.36C372.668 71.1067 372.694 71.8533 372.694 72.6C372.721 73.32 372.774 74.0267 372.854 74.72C372.908 75.1733 372.961 75.64 373.014 76.12C373.068 76.6 373.108 77.08 373.134 77.56C373.294 77.5333 373.454 77.52 373.614 77.52C373.774 77.52 373.934 77.52 374.094 77.52C375.108 77.52 376.148 77.5733 377.214 77.68C378.281 77.76 379.281 77.8 380.214 77.8C380.454 77.8 380.681 77.8 380.894 77.8C381.108 77.7733 381.294 77.76 381.454 77.76C382.068 77.7067 382.548 77.6267 382.894 77.52C383.268 77.4133 383.508 77.3867 383.614 77.44C383.748 77.4667 383.774 77.6533 383.694 78L384.894 80.24C384.708 80.4267 384.361 80.5733 383.854 80.68C383.374 80.76 382.654 80.84 381.694 80.92C381.454 80.9467 381.214 80.9733 380.974 81C380.734 81 380.481 81 380.214 81C379.228 81 378.201 80.96 377.134 80.88C376.068 80.7733 375.054 80.72 374.094 80.72H373.334C373.361 80.88 373.374 81.04 373.374 81.2C373.374 81.36 373.374 81.52 373.374 81.68C373.374 82 373.361 82.32 373.334 82.64C373.334 82.9333 373.321 83.2267 373.294 83.52C373.241 84.5867 373.174 85.6667 373.094 86.76C373.014 87.8267 372.908 88.8 372.774 89.68C373.068 89.7067 373.388 89.7333 373.734 89.76C374.081 89.76 374.401 89.76 374.694 89.76C375.361 89.76 376.121 89.7467 376.974 89.72C377.854 89.6933 378.734 89.68 379.614 89.68C380.494 89.6533 381.294 89.6267 382.014 89.6C382.761 89.5733 383.321 89.56 383.694 89.56L385.214 89.88L387.614 91.88C387.614 92.3333 387.308 92.6 386.694 92.68C386.081 92.7333 385.081 92.76 383.694 92.76C383.348 92.76 382.814 92.7733 382.094 92.8C381.374 92.8267 380.574 92.8533 379.694 92.88C378.814 92.88 377.934 92.8933 377.054 92.92C376.174 92.9467 375.388 92.96 374.694 92.96ZM402.578 93.52C400.471 93.52 398.791 93.2933 397.538 92.84C396.551 92.4667 395.631 91.88 394.778 91.08C393.924 90.28 393.124 89.5733 392.378 88.96L392.138 88.36L392.898 85.32C393.084 85.3733 393.271 85.56 393.458 85.88C393.671 86.2 393.831 86.4 393.938 86.48C394.631 87.0667 395.324 87.6933 396.018 88.36C396.711 89.0267 397.484 89.52 398.338 89.84C398.658 89.9467 399.138 90.0533 399.778 90.16C400.444 90.2667 401.378 90.32 402.578 90.32C403.458 90.32 404.178 90.24 404.738 90.08C405.298 89.8933 405.818 89.6 406.298 89.2C406.698 88.88 407.031 88.4533 407.298 87.92C407.591 87.36 407.738 86.8667 407.738 86.44C407.738 86.0933 407.711 85.76 407.658 85.44C407.604 85.12 407.378 84.72 406.978 84.24C406.604 83.7333 405.898 83.0933 404.858 82.32C404.164 81.7867 403.391 81.36 402.538 81.04C401.684 80.6933 400.791 80.32 399.858 79.92C398.951 79.4933 398.044 78.92 397.138 78.2C396.231 77.48 395.378 76.4667 394.578 75.16C393.991 74.1467 393.698 73.1867 393.698 72.28C393.698 71.0533 393.951 70.08 394.458 69.36C394.964 68.6133 395.778 68.0267 396.898 67.6C397.831 67.28 398.724 67.04 399.578 66.88C400.458 66.6933 401.311 66.6 402.138 66.6C403.284 66.6 404.351 66.76 405.338 67.08C406.351 67.4 407.404 67.92 408.498 68.64L407.218 71.32C406.391 70.7867 405.578 70.4 404.778 70.16C403.978 69.92 403.098 69.8 402.138 69.8C400.671 69.8 399.204 70.0667 397.738 70.6C396.938 70.8933 396.458 71.12 396.298 71.28C396.164 71.44 396.098 71.7733 396.098 72.28C396.098 72.3867 396.124 72.52 396.178 72.68C396.231 72.8133 396.391 73.0933 396.658 73.52C397.244 74.48 397.871 75.2 398.538 75.68C399.231 76.16 399.978 76.56 400.778 76.88C401.578 77.2 402.431 77.5733 403.338 78C404.271 78.4 405.258 79 406.298 79.8C407.418 80.6533 408.244 81.5067 408.778 82.36C409.338 83.2133 409.698 84 409.858 84.72C410.044 85.4133 410.138 85.9867 410.138 86.44C410.138 87.3467 409.898 88.32 409.418 89.36C408.964 90.3733 408.431 91.1467 407.818 91.68C406.964 92.3733 406.164 92.8533 405.418 93.12C404.698 93.3867 403.751 93.52 402.578 93.52Z" fill="url(#paint1_angular_46_210)"/>
<defs>
<filter id="filter0_d_46_210" x="0.66275" y="13" width="451.999" height="141" filterUnits="userSpaceOnUse" color-interpolation-filters="sRGB">
<feFlood flood-opacity="0" result="BackgroundImageFix"/>
<feColorMatrix in="SourceAlpha" type="matrix" values="0 0 0 0 0 0 0 0 0 0 0 0 0 0 0 0 0 0 127 0" result="hardAlpha"/>
<feOffset dy="4"/>
<feGaussianBlur stdDeviation="2"/>
<feComposite in2="hardAlpha" operator="out"/>
<feColorMatrix type="matrix" values="0 0 0 0 0 0 0 0 0 0 0 0 0 0 0 0 0 0 0.25 0"/>
<feBlend mode="normal" in2="BackgroundImageFix" result="effect1_dropShadow_46_210"/>
<feBlend mode="normal" in="SourceGraphic" in2="effect1_dropShadow_46_210" result="shape"/>
</filter>
<radialGradient id="paint0_angular_46_210" cx="0" cy="0" r="1" gradientUnits="userSpaceOnUse" gradientTransform="translate(220.002 79.5) rotate(90) scale(66.5 215.34)">
<stop offset="0.055" stop-color="#E3A455"/>
<stop offset="0.125" stop-color="#E9B56E"/>
<stop offset="0.19" stop-color="#F0C98C"/>
<stop offset="0.244792" stop-color="#F6DBA6"/>
<stop offset="0.434957" stop-color="#FFEBC4"/>
<stop offset="0.532623" stop-color="#F0BE79"/>
<stop offset="0.593311" stop-color="#8F653B"/>
<stop offset="0.627652" stop-color="#673D22"/>
<stop offset="0.708863" stop-color="#BA7F3B"/>
<stop offset="0.773898" stop-color="#EEBC70"/>
<stop offset="0.921875" stop-color="#3F1F0F"/>
</radialGradient>
<radialGradient id="paint1_angular_46_210" cx="0" cy="0" r="1" gradientUnits="userSpaceOnUse" gradientTransform="translate(222.48 80) rotate(90) scale(24 178.48)">
<stop offset="0.00628023" stop-color="#E3A455"/>
<stop offset="0.0360757" stop-color="#3F1F0F"/>
<stop offset="0.244792" stop-color="#F6DBA6"/>
<stop offset="0.418536" stop-color="#673D22"/>
<stop offset="0.434957" stop-color="#FFEBC4"/>
<stop offset="0.532623" stop-color="#F0BE79"/>
<stop offset="0.593311" stop-color="#8F653B"/>
<stop offset="0.708863" stop-color="#BA7F3B"/>
<stop offset="0.773898" stop-color="#EEBC70"/>
</radialGradient>
</defs>
</svg>
