<svg width="239" height="73" viewBox="0 0 239 73" fill="none" xmlns="http://www.w3.org/2000/svg">
<path fill-rule="evenodd" clip-rule="evenodd" d="M239 0H0L13.4919 36.5L0 73H239L224.866 36.5L239 0ZM224.866 8.32456H13.4919L25.6989 36.5L13.4919 63.7149H224.866L213.944 36.5L224.866 8.32456Z" fill="#EEBC70"/>
<path d="M57.2 33.18C56.82 32.98 56.41 32.81 55.97 32.67C55.53 32.53 55.105 32.46 54.695 32.46C54.125 32.46 53.675 32.59 53.345 32.85C53.015 33.1 52.85 33.45 52.85 33.9C52.85 34.21 52.96 34.48 53.18 34.71C53.4 34.94 53.685 35.14 54.035 35.31C54.385 35.48 54.755 35.64 55.145 35.79C55.595 35.95 56.03 36.155 56.45 36.405C56.87 36.645 57.215 36.97 57.485 37.38C57.755 37.79 57.89 38.34 57.89 39.03C57.89 39.6 57.745 40.12 57.455 40.59C57.165 41.06 56.75 41.435 56.21 41.715C55.68 41.985 55.04 42.12 54.29 42.12C53.59 42.12 52.925 42.01 52.295 41.79C51.675 41.56 51.14 41.29 50.69 40.98L51.395 39.735C51.745 40.005 52.175 40.24 52.685 40.44C53.195 40.64 53.68 40.74 54.14 40.74C54.48 40.74 54.81 40.685 55.13 40.575C55.45 40.455 55.715 40.27 55.925 40.02C56.145 39.77 56.255 39.44 56.255 39.03C56.255 38.69 56.16 38.4 55.97 38.16C55.78 37.92 55.53 37.715 55.22 37.545C54.92 37.375 54.595 37.225 54.245 37.095C53.905 36.965 53.555 36.825 53.195 36.675C52.845 36.515 52.52 36.32 52.22 36.09C51.93 35.86 51.69 35.58 51.5 35.25C51.32 34.91 51.23 34.5 51.23 34.02C51.23 33.43 51.365 32.92 51.635 32.49C51.915 32.06 52.3 31.72 52.79 31.47C53.28 31.22 53.84 31.085 54.47 31.065C55.19 31.065 55.82 31.155 56.36 31.335C56.9 31.505 57.375 31.715 57.785 31.965L57.2 33.18Z" fill="white"/>
<path d="M60.2755 31.125H67.4005V32.64H61.8355V35.775H66.8005V37.29H61.8355V40.485H67.6105V42H60.2755V31.125Z" fill="white"/>
<path d="M70.1046 31.125H77.2296V32.64H71.6646V35.775H76.6296V37.29H71.6646V40.485H77.4396V42H70.1046V31.125Z" fill="white"/>
<path d="M81.2069 36.57C81.2069 35.82 81.3469 35.11 81.6269 34.44C81.9169 33.77 82.3169 33.18 82.8269 32.67C83.3369 32.15 83.9269 31.745 84.5969 31.455C85.2669 31.155 85.9819 31.005 86.7419 31.005C87.5019 31.005 88.2169 31.155 88.8869 31.455C89.5669 31.745 90.1619 32.15 90.6719 32.67C91.1919 33.18 91.5969 33.77 91.8869 34.44C92.1769 35.11 92.3219 35.82 92.3219 36.57C92.3219 37.34 92.1769 38.06 91.8869 38.73C91.5969 39.4 91.1919 39.99 90.6719 40.5C90.1619 41.01 89.5669 41.41 88.8869 41.7C88.2169 41.98 87.5019 42.12 86.7419 42.12C85.9819 42.12 85.2669 41.98 84.5969 41.7C83.9269 41.41 83.3369 41.015 82.8269 40.515C82.3169 40.015 81.9169 39.43 81.6269 38.76C81.3469 38.08 81.2069 37.35 81.2069 36.57ZM82.8269 36.585C82.8269 37.325 83.0019 38 83.3519 38.61C83.7019 39.22 84.1769 39.705 84.7769 40.065C85.3769 40.425 86.0469 40.605 86.7869 40.605C87.5169 40.605 88.1769 40.425 88.7669 40.065C89.3569 39.705 89.8269 39.22 90.1769 38.61C90.5269 38 90.7019 37.32 90.7019 36.57C90.7019 35.82 90.5219 35.14 90.1619 34.53C89.8119 33.91 89.3369 33.42 88.7369 33.06C88.1469 32.7 87.4869 32.52 86.7569 32.52C86.0169 32.52 85.3469 32.705 84.7469 33.075C84.1569 33.435 83.6869 33.925 83.3369 34.545C82.9969 35.155 82.8269 35.835 82.8269 36.585Z" fill="white"/>
<path d="M96.1386 38.115C96.1386 38.575 96.2486 38.995 96.4686 39.375C96.6986 39.745 97.0086 40.04 97.3986 40.26C97.7886 40.48 98.2186 40.59 98.6886 40.59C99.1886 40.59 99.6336 40.48 100.024 40.26C100.414 40.04 100.719 39.745 100.939 39.375C101.169 38.995 101.284 38.575 101.284 38.115V31.125H102.829V38.16C102.829 38.95 102.644 39.645 102.274 40.245C101.904 40.835 101.404 41.295 100.774 41.625C100.154 41.955 99.4586 42.12 98.6886 42.12C97.9186 42.12 97.2186 41.955 96.5886 41.625C95.9686 41.295 95.4736 40.835 95.1036 40.245C94.7436 39.645 94.5636 38.95 94.5636 38.16V31.125H96.1386V38.115Z" fill="white"/>
<path d="M108.714 31.125C109.474 31.125 110.149 31.26 110.739 31.53C111.329 31.79 111.789 32.175 112.119 32.685C112.459 33.185 112.629 33.805 112.629 34.545C112.629 35.165 112.494 35.77 112.224 36.36C111.954 36.94 111.494 37.385 110.844 37.695L113.544 42H111.714L109.194 38.085C109.104 38.085 109.014 38.085 108.924 38.085H107.319V42H105.759V31.125H108.714ZM108.894 36.57C109.454 36.57 109.884 36.465 110.184 36.255C110.494 36.035 110.709 35.775 110.829 35.475C110.949 35.165 111.009 34.875 111.009 34.605C111.009 34.335 110.944 34.05 110.814 33.75C110.694 33.44 110.484 33.18 110.184 32.97C109.894 32.75 109.494 32.64 108.984 32.64H107.319V36.57H108.894Z" fill="white"/>
<path d="M123.323 33.18C122.943 32.98 122.533 32.81 122.093 32.67C121.653 32.53 121.228 32.46 120.818 32.46C120.248 32.46 119.798 32.59 119.468 32.85C119.138 33.1 118.973 33.45 118.973 33.9C118.973 34.21 119.083 34.48 119.303 34.71C119.523 34.94 119.808 35.14 120.158 35.31C120.508 35.48 120.878 35.64 121.268 35.79C121.718 35.95 122.153 36.155 122.573 36.405C122.993 36.645 123.338 36.97 123.608 37.38C123.878 37.79 124.013 38.34 124.013 39.03C124.013 39.6 123.868 40.12 123.578 40.59C123.288 41.06 122.873 41.435 122.333 41.715C121.803 41.985 121.163 42.12 120.413 42.12C119.713 42.12 119.048 42.01 118.418 41.79C117.798 41.56 117.263 41.29 116.813 40.98L117.518 39.735C117.868 40.005 118.298 40.24 118.808 40.44C119.318 40.64 119.803 40.74 120.263 40.74C120.603 40.74 120.933 40.685 121.253 40.575C121.573 40.455 121.838 40.27 122.048 40.02C122.268 39.77 122.378 39.44 122.378 39.03C122.378 38.69 122.283 38.4 122.093 38.16C121.903 37.92 121.653 37.715 121.343 37.545C121.043 37.375 120.718 37.225 120.368 37.095C120.028 36.965 119.678 36.825 119.318 36.675C118.968 36.515 118.643 36.32 118.343 36.09C118.053 35.86 117.813 35.58 117.623 35.25C117.443 34.91 117.353 34.5 117.353 34.02C117.353 33.43 117.488 32.92 117.758 32.49C118.038 32.06 118.423 31.72 118.913 31.47C119.403 31.22 119.963 31.085 120.593 31.065C121.313 31.065 121.943 31.155 122.483 31.335C123.023 31.505 123.498 31.715 123.908 31.965L123.323 33.18Z" fill="white"/>
<path d="M126.399 31.125H133.524V32.64H127.959V35.775H132.924V37.29H127.959V40.485H133.734V42H126.399V31.125Z" fill="white"/>
<path d="M139.183 31.125C139.943 31.125 140.618 31.26 141.208 31.53C141.798 31.79 142.258 32.175 142.588 32.685C142.928 33.185 143.098 33.805 143.098 34.545C143.098 35.165 142.963 35.77 142.693 36.36C142.423 36.94 141.963 37.385 141.313 37.695L144.013 42H142.183L139.663 38.085C139.573 38.085 139.483 38.085 139.393 38.085H137.788V42H136.228V31.125H139.183ZM139.363 36.57C139.923 36.57 140.353 36.465 140.653 36.255C140.963 36.035 141.178 35.775 141.298 35.475C141.418 35.165 141.478 34.875 141.478 34.605C141.478 34.335 141.413 34.05 141.283 33.75C141.163 33.44 140.953 33.18 140.653 32.97C140.363 32.75 139.963 32.64 139.453 32.64H137.788V36.57H139.363Z" fill="white"/>
<path d="M146.679 31.125L149.709 38.7L152.604 31.125H154.464L149.634 42.51L144.804 31.125H146.679Z" fill="white"/>
<path d="M156.589 31.125H158.149V42H156.589V31.125Z" fill="white"/>
<path d="M169.243 41.175C169.073 41.285 168.828 41.42 168.508 41.58C168.198 41.73 167.828 41.86 167.398 41.97C166.978 42.08 166.518 42.13 166.018 42.12C165.168 42.11 164.408 41.96 163.738 41.67C163.068 41.38 162.492 40.985 162.012 40.485C161.542 39.975 161.182 39.395 160.932 38.745C160.682 38.085 160.557 37.385 160.557 36.645C160.557 35.825 160.687 35.075 160.947 34.395C161.217 33.705 161.592 33.11 162.072 32.61C162.552 32.1 163.118 31.705 163.768 31.425C164.428 31.145 165.148 31.005 165.928 31.005C166.588 31.005 167.187 31.095 167.727 31.275C168.267 31.455 168.722 31.66 169.092 31.89L168.462 33.36C168.172 33.16 167.813 32.97 167.383 32.79C166.963 32.61 166.493 32.52 165.973 32.52C165.293 32.52 164.663 32.7 164.083 33.06C163.513 33.42 163.052 33.905 162.702 34.515C162.362 35.125 162.193 35.81 162.193 36.57C162.193 37.34 162.348 38.03 162.658 38.64C162.978 39.25 163.428 39.73 164.008 40.08C164.588 40.43 165.268 40.605 166.048 40.605C166.608 40.605 167.098 40.52 167.518 40.35C167.948 40.18 168.298 39.985 168.568 39.765L169.243 41.175Z" fill="white"/>
<path d="M171.648 31.125H178.773V32.64H173.208V35.775H178.173V37.29H173.208V40.485H178.983V42H171.648V31.125Z" fill="white"/>
<path d="M187.132 33.18C186.752 32.98 186.342 32.81 185.902 32.67C185.462 32.53 185.037 32.46 184.627 32.46C184.057 32.46 183.607 32.59 183.277 32.85C182.947 33.1 182.782 33.45 182.782 33.9C182.782 34.21 182.892 34.48 183.112 34.71C183.332 34.94 183.617 35.14 183.967 35.31C184.317 35.48 184.687 35.64 185.077 35.79C185.527 35.95 185.962 36.155 186.382 36.405C186.802 36.645 187.147 36.97 187.417 37.38C187.687 37.79 187.822 38.34 187.822 39.03C187.822 39.6 187.677 40.12 187.387 40.59C187.097 41.06 186.682 41.435 186.142 41.715C185.612 41.985 184.972 42.12 184.222 42.12C183.522 42.12 182.857 42.01 182.227 41.79C181.607 41.56 181.072 41.29 180.622 40.98L181.327 39.735C181.677 40.005 182.107 40.24 182.617 40.44C183.127 40.64 183.612 40.74 184.072 40.74C184.412 40.74 184.742 40.685 185.062 40.575C185.382 40.455 185.647 40.27 185.857 40.02C186.077 39.77 186.187 39.44 186.187 39.03C186.187 38.69 186.092 38.4 185.902 38.16C185.712 37.92 185.462 37.715 185.152 37.545C184.852 37.375 184.527 37.225 184.177 37.095C183.837 36.965 183.487 36.825 183.127 36.675C182.777 36.515 182.452 36.32 182.152 36.09C181.862 35.86 181.622 35.58 181.432 35.25C181.252 34.91 181.162 34.5 181.162 34.02C181.162 33.43 181.297 32.92 181.567 32.49C181.847 32.06 182.232 31.72 182.722 31.47C183.212 31.22 183.772 31.085 184.402 31.065C185.122 31.065 185.752 31.155 186.292 31.335C186.832 31.505 187.307 31.715 187.717 31.965L187.132 33.18Z" fill="white"/>
</svg>
