<svg width="125" height="121" viewBox="0 0 125 121" fill="none" xmlns="http://www.w3.org/2000/svg">
<path fill-rule="evenodd" clip-rule="evenodd" d="M69.0625 94.5313C88.0469 82.7338 97.2656 70.5582 97.2656 50.215C96.0156 50.5932 94.9219 50.5932 93.8281 50.5932C83.9062 50.5932 74.2969 44.0894 74.2969 32.3675C74.2969 20.1919 82.3437 12.6294 93.8281 12.6294C108.672 12.6294 117.188 24.1244 117.188 44.77C117.188 73.5075 103.516 94.1532 77.9687 108.446L69.0625 94.5313ZM14.375 94.5313C33.3594 82.7338 42.5781 70.5582 42.5781 50.215C41.3281 50.5932 40.2344 50.5932 39.1406 50.5932C29.2188 50.5932 19.6094 44.0894 19.6094 32.3675C19.6094 20.1919 27.6562 12.6294 39.1406 12.6294C53.9062 12.6294 62.4219 24.1244 62.4219 44.77C62.4219 73.5075 48.75 94.1532 23.2031 108.446L14.2969 94.5313H14.375Z" fill="#F0BE79"/>
</svg>
