<svg width="537" height="75" viewBox="0 0 537 75" fill="none" xmlns="http://www.w3.org/2000/svg">
<rect width="537" height="75" rx="10" fill="#F0BE79"/>
<path d="M38.1484 48.668V25.8555L41.2734 24.4883L41.2539 48.5898C41.2539 49.2409 41.4688 49.7943 41.8984 50.25C42.3281 50.7057 42.8359 50.9336 43.4219 50.9336C44.0339 50.9336 44.5547 50.7057 44.9844 50.25C45.4271 49.7812 45.6484 49.2344 45.6484 48.6094C45.6484 48.6094 45.6484 48.6029 45.6484 48.5898L45.668 25.8555L48.793 24.4883L48.7734 48.5898C48.7734 49.2409 48.9883 49.7943 49.418 50.25C49.8477 50.7057 50.3555 50.9336 50.9414 50.9336C51.5404 50.9336 52.0612 50.7057 52.5039 50.25C52.9466 49.7943 53.168 49.2409 53.168 48.5898L53.1875 25.8555L56.3125 24.4883V48.6875C56.3125 50.1458 55.7917 51.3958 54.75 52.4375C53.7083 53.4792 52.4518 54 50.9805 54C49.457 54 48.2005 53.4922 47.2109 52.4766C46.1693 53.4922 44.9193 54 43.4609 54C41.8984 54 40.6289 53.4922 39.6523 52.4766C38.6628 51.4479 38.1615 50.1784 38.1484 48.668ZM62.3281 54V39.4688C62.3281 37.4375 63.0443 35.7057 64.4766 34.2734C65.9089 32.8411 67.6406 32.125 69.6719 32.125C71.7422 32.125 73.4805 32.8411 74.8867 34.2734C76.332 35.7578 77.0547 37.4896 77.0547 39.4688V39.5469L73.9297 40.9141V39.5273C73.9036 38.3164 73.487 37.3138 72.6797 36.5195C71.8464 35.6992 70.8633 35.2891 69.7305 35.2891C68.5456 35.2891 67.5365 35.6992 66.7031 36.5195C65.8698 37.3398 65.4531 38.3229 65.4531 39.4688C65.4531 39.4948 65.4531 39.5143 65.4531 39.5273V52.6328L62.3281 54ZM96.3906 46.4609L99.5156 45.0938V46.6562C99.5156 48.6875 98.7995 50.4193 97.3672 51.8516C95.9349 53.2839 94.2031 54 92.1719 54C90.1406 54 88.4023 53.2839 86.957 51.8516C85.5117 50.4193 84.7891 48.6875 84.7891 46.6562V33.4922L87.9141 32.125V46.5977C87.9401 47.8086 88.3568 48.8112 89.1641 49.6055C89.9974 50.4258 91.0391 50.8359 92.2891 50.8359C93.3828 50.8359 94.3398 50.3932 95.1602 49.5078C95.9805 48.6224 96.3906 47.6068 96.3906 46.4609ZM84.5156 28.9023C84.0208 28.3945 83.7734 27.7826 83.7734 27.0664C83.7734 26.3503 84.0208 25.7448 84.5156 25.25C85.0104 24.7422 85.6094 24.4883 86.3125 24.4883C87.0156 24.4883 87.6146 24.7422 88.1094 25.25C88.6042 25.7448 88.8516 26.3503 88.8516 27.0664C88.8516 27.7826 88.6042 28.3945 88.1094 28.9023C87.6146 29.3971 87.0156 29.6445 86.3125 29.6445C85.6094 29.6445 85.0104 29.3971 84.5156 28.9023ZM118.852 46.4609C118.852 46.4609 119.893 46.0052 121.977 45.0938V46.6562C121.977 48.6875 121.26 50.4193 119.828 51.8516C118.396 53.2839 116.664 54 114.633 54C112.602 54 110.863 53.2839 109.418 51.8516C107.973 50.4193 107.25 48.6875 107.25 46.6562V35.6406H104.828L106.195 32.5156H107.25V25.8555L110.375 24.4883V32.5156H120.297L118.93 35.6406H110.375V46.5977C110.401 47.8216 110.818 48.8242 111.625 49.6055C112.471 50.4258 113.461 50.8359 114.594 50.8359C115.753 50.8359 116.755 50.4193 117.602 49.5859C118.435 48.7786 118.852 47.737 118.852 46.4609ZM137.172 50.8359C138.266 50.8359 139.229 50.4258 140.062 49.6055C140.87 48.8112 141.286 47.8086 141.312 46.5977V46.3242L144.438 44.9375V46.6562C144.438 48.4792 143.656 50.224 142.094 51.8906C140.766 53.2969 139.086 54 137.055 54C135.023 54 133.292 53.2839 131.859 51.8516C130.427 50.4193 129.711 48.6875 129.711 46.6562V39.4688C129.711 37.4375 130.427 35.7057 131.859 34.2734C133.292 32.8411 135.023 32.125 137.055 32.125C139.008 32.125 140.746 32.8411 142.27 34.2734C143.715 35.6276 144.438 37.3594 144.438 39.4688V41.3047L132.836 46.4609C132.836 47.6979 133.246 48.7396 134.066 49.5859C134.887 50.4193 135.922 50.8359 137.172 50.8359ZM136.938 35.2891C135.844 35.2891 134.887 35.6992 134.066 36.5195C133.246 37.3398 132.836 38.3229 132.836 39.4688C132.836 39.4948 132.836 39.5143 132.836 39.5273V43.043L141.293 39.2734C141.228 38.1797 140.818 37.2617 140.062 36.5195C139.229 35.6992 138.188 35.2891 136.938 35.2891ZM182.133 50.8359C183.227 50.8359 184.184 50.4258 185.004 49.6055C185.824 48.7852 186.234 47.8021 186.234 46.6562C186.234 46.6302 186.234 46.6107 186.234 46.5977V33.4922C186.234 33.4922 187.276 33.0365 189.359 32.125V46.6562C189.359 48.6875 188.643 50.4193 187.211 51.8516C185.779 53.2839 184.047 54 182.016 54C179.984 54 178.246 53.2839 176.801 51.8516C175.355 50.4193 174.633 48.6875 174.633 46.6562V33.4922L177.758 32.125V46.5977C177.784 47.8086 178.201 48.8112 179.008 49.6055C179.841 50.4258 180.883 50.8359 182.133 50.8359ZM204.594 50.8359C205.753 50.8359 206.71 50.4453 207.465 49.6641C208.22 48.8568 208.598 47.9583 208.598 46.9688C208.598 46.0964 208.22 45.2695 207.465 44.4883C206.697 43.707 205.655 43.2839 204.34 43.2188C202.725 43.1406 201.443 42.6523 200.492 41.7539C199.568 40.8815 199.014 39.6315 198.832 38.0039C198.819 37.8867 198.812 37.7695 198.812 37.6523C198.878 36.2331 199.451 34.9701 200.531 33.8633C201.638 32.7044 202.986 32.125 204.574 32.125C206.254 32.125 207.602 32.7044 208.617 33.8633C209.294 34.6445 209.822 35.6797 210.199 36.9688L207.367 38.2188C207.159 37.3594 206.84 36.6758 206.41 36.168C205.928 35.6341 205.31 35.3672 204.555 35.3672C203.839 35.3672 203.214 35.6341 202.68 36.168C202.185 36.6628 201.938 37.2227 201.938 37.8477C201.938 37.8737 201.938 37.9062 201.938 37.9453C201.938 38.5703 202.172 39.1107 202.641 39.5664C203.07 39.9961 203.695 40.2565 204.516 40.3477C206.781 40.6081 208.52 41.3047 209.73 42.4375C211.059 43.7135 211.723 45.2695 211.723 47.1055V47.1641C211.697 48.9089 211.052 50.4714 209.789 51.8516C208.461 53.2839 206.729 54 204.594 54C202.549 54 200.87 53.2969 199.555 51.8906C198.083 50.3411 197.302 48.5964 197.211 46.6562L197.191 46.4609L200.316 45.0938L200.336 46.5977C200.349 47.8086 200.759 48.8112 201.566 49.6055C202.4 50.4258 203.409 50.8359 204.594 50.8359ZM245.16 48.2578C245.16 48.6875 245.329 49.1302 245.668 49.5859C246.293 50.4193 247.289 50.8359 248.656 50.8359C249.49 50.8359 250.225 50.6406 250.863 50.25L252.035 53.1992C251.02 53.7331 249.893 54 248.656 54C246.703 54 244.971 53.2839 243.461 51.8516C242.445 50.8099 241.938 49.612 241.938 48.2578C241.938 48.2057 241.938 48.1536 241.938 48.1016C241.938 45.6667 243.181 43.9414 245.668 42.9258L253.617 39.6641C253.617 38.4271 253.207 37.3919 252.387 36.5586C251.566 35.7122 250.531 35.2891 249.281 35.2891C248.188 35.2891 247.224 35.6992 246.391 36.5195C245.583 37.3138 245.167 38.3164 245.141 39.5273V39.8008L242.016 41.1875V39.4688C242.016 37.6458 242.797 35.901 244.359 34.2344C245.688 32.8281 247.367 32.125 249.398 32.125C251.43 32.125 253.161 32.8411 254.594 34.2734C256.026 35.7057 256.742 37.4375 256.742 39.4688V52.6328L253.617 54V43.082L247.191 45.6992C245.837 46.3372 245.16 47.1901 245.16 48.2578ZM286.938 54V39.4688C286.938 37.4375 287.654 35.7057 289.086 34.2734C290.518 32.8411 292.25 32.125 294.281 32.125C296.352 32.125 298.09 32.8411 299.496 34.2734C300.941 35.7578 301.664 37.4896 301.664 39.4688V39.5469L298.539 40.9141V39.5273C298.513 38.3164 298.096 37.3138 297.289 36.5195C296.456 35.6992 295.473 35.2891 294.34 35.2891C293.155 35.2891 292.146 35.6992 291.312 36.5195C290.479 37.3398 290.062 38.3229 290.062 39.4688C290.062 39.4948 290.062 39.5143 290.062 39.5273V52.6328L286.938 54ZM316.859 50.8359C317.953 50.8359 318.917 50.4258 319.75 49.6055C320.557 48.8112 320.974 47.8086 321 46.5977V46.3242L324.125 44.9375V46.6562C324.125 48.4792 323.344 50.224 321.781 51.8906C320.453 53.2969 318.773 54 316.742 54C314.711 54 312.979 53.2839 311.547 51.8516C310.115 50.4193 309.398 48.6875 309.398 46.6562V39.4688C309.398 37.4375 310.115 35.7057 311.547 34.2734C312.979 32.8411 314.711 32.125 316.742 32.125C318.695 32.125 320.434 32.8411 321.957 34.2734C323.402 35.6276 324.125 37.3594 324.125 39.4688V41.3047L312.523 46.4609C312.523 47.6979 312.934 48.7396 313.754 49.5859C314.574 50.4193 315.609 50.8359 316.859 50.8359ZM316.625 35.2891C315.531 35.2891 314.574 35.6992 313.754 36.5195C312.934 37.3398 312.523 38.3229 312.523 39.4688C312.523 39.4948 312.523 39.5143 312.523 39.5273V43.043L320.98 39.2734C320.915 38.1797 320.505 37.2617 319.75 36.5195C318.917 35.6992 317.875 35.2891 316.625 35.2891ZM337.602 54L329.457 33.4922L332.309 32.125L339.223 49.5469L346.176 32.0859L348.988 33.4531L341.117 52.6328L337.602 54ZM365.922 46.4609L369.047 45.0938V46.6562C369.047 48.6875 368.331 50.4193 366.898 51.8516C365.466 53.2839 363.734 54 361.703 54C359.672 54 357.934 53.2839 356.488 51.8516C355.043 50.4193 354.32 48.6875 354.32 46.6562V33.4922L357.445 32.125V46.5977C357.471 47.8086 357.888 48.8112 358.695 49.6055C359.529 50.4258 360.57 50.8359 361.82 50.8359C362.914 50.8359 363.871 50.3932 364.691 49.5078C365.512 48.6224 365.922 47.6068 365.922 46.4609ZM354.047 28.9023C353.552 28.3945 353.305 27.7826 353.305 27.0664C353.305 26.3503 353.552 25.7448 354.047 25.25C354.542 24.7422 355.141 24.4883 355.844 24.4883C356.547 24.4883 357.146 24.7422 357.641 25.25C358.135 25.7448 358.383 26.3503 358.383 27.0664C358.383 27.7826 358.135 28.3945 357.641 28.9023C357.146 29.3971 356.547 29.6445 355.844 29.6445C355.141 29.6445 354.542 29.3971 354.047 28.9023ZM384.242 50.8359C385.336 50.8359 386.299 50.4258 387.133 49.6055C387.94 48.8112 388.357 47.8086 388.383 46.5977V46.3242L391.508 44.9375V46.6562C391.508 48.4792 390.727 50.224 389.164 51.8906C387.836 53.2969 386.156 54 384.125 54C382.094 54 380.362 53.2839 378.93 51.8516C377.497 50.4193 376.781 48.6875 376.781 46.6562V39.4688C376.781 37.4375 377.497 35.7057 378.93 34.2734C380.362 32.8411 382.094 32.125 384.125 32.125C386.078 32.125 387.816 32.8411 389.34 34.2734C390.785 35.6276 391.508 37.3594 391.508 39.4688V41.3047L379.906 46.4609C379.906 47.6979 380.316 48.7396 381.137 49.5859C381.957 50.4193 382.992 50.8359 384.242 50.8359ZM384.008 35.2891C382.914 35.2891 381.957 35.6992 381.137 36.5195C380.316 37.3398 379.906 38.3229 379.906 39.4688C379.906 39.4948 379.906 39.5143 379.906 39.5273V43.043L388.363 39.2734C388.298 38.1797 387.888 37.2617 387.133 36.5195C386.299 35.6992 385.258 35.2891 384.008 35.2891ZM397.523 48.668V33.4922L400.648 32.125L400.629 48.5898C400.629 49.2409 400.844 49.7943 401.273 50.25C401.703 50.7057 402.211 50.9336 402.797 50.9336C403.409 50.9336 403.93 50.7057 404.359 50.25C404.802 49.7812 405.023 49.2344 405.023 48.6094C405.023 48.6094 405.023 48.6029 405.023 48.5898L405.043 33.4922L408.168 32.125L408.148 48.5898C408.148 49.2409 408.363 49.7943 408.793 50.25C409.223 50.7057 409.73 50.9336 410.316 50.9336C410.915 50.9336 411.436 50.7057 411.879 50.25C412.322 49.7943 412.543 49.2409 412.543 48.5898L412.562 33.4922L415.688 32.125V48.6875C415.688 50.1458 415.167 51.3958 414.125 52.4375C413.083 53.4792 411.827 54 410.355 54C408.832 54 407.576 53.4922 406.586 52.4766C405.544 53.4922 404.294 54 402.836 54C401.273 54 400.004 53.4922 399.027 52.4766C398.038 51.4479 397.536 50.1784 397.523 48.668ZM427.504 25.8555L430.629 24.4883V45.7969L427.504 47.1641V25.8555ZM427.27 53.2578C426.775 52.75 426.527 52.138 426.527 51.4219C426.527 50.7057 426.775 50.1003 427.27 49.6055C427.764 49.0977 428.363 48.8438 429.066 48.8438C429.77 48.8438 430.368 49.0977 430.863 49.6055C431.358 50.1003 431.605 50.7057 431.605 51.4219C431.605 52.138 431.358 52.75 430.863 53.2578C430.368 53.7526 429.77 54 429.066 54C428.363 54 427.764 53.7526 427.27 53.2578Z" fill="#262524"/>
<path d="M504.612 4.57545C504.243 4.20636 503.742 3.99902 503.22 3.99902C502.698 3.99902 502.198 4.20636 501.829 4.57545L495.343 11.0605L509.94 25.6568L516.425 19.1757C516.608 18.9928 516.754 18.7756 516.853 18.5364C516.952 18.2972 517.003 18.0408 517.003 17.7818C517.003 17.5229 516.952 17.2664 516.853 17.0273C516.754 16.7881 516.608 16.5708 516.425 16.3879L504.612 4.57545ZM507.156 28.4406L492.56 13.8443L466.966 39.4381H467.781C468.303 39.4381 468.804 39.6455 469.173 40.0147C469.542 40.3839 469.75 40.8847 469.75 41.4068V43.3756H471.718C472.241 43.3756 472.741 43.583 473.111 43.9522C473.48 44.3214 473.687 44.8222 473.687 45.3443V47.3131H475.656C476.178 47.3131 476.679 47.5205 477.048 47.8897C477.417 48.2589 477.625 48.7597 477.625 49.2818V51.2506H479.593C480.116 51.2506 480.616 51.458 480.986 51.8272C481.355 52.1964 481.562 52.6972 481.562 53.2193V54.0344L507.156 28.4406ZM477.751 57.8459C477.668 57.6256 477.625 57.3922 477.625 57.1568V55.1881H475.656C475.134 55.1881 474.633 54.9807 474.264 54.6114C473.895 54.2422 473.687 53.7415 473.687 53.2193V51.2506H471.718C471.196 51.2506 470.696 51.0432 470.326 50.6739C469.957 50.3047 469.75 49.804 469.75 49.2818V47.3131H467.781C467.259 47.3131 466.758 47.1057 466.389 46.7364C466.02 46.3672 465.812 45.8665 465.812 45.3443V43.3756H463.843C463.608 43.3752 463.375 43.3325 463.154 43.2496L462.45 43.9504C462.262 44.1394 462.115 44.3644 462.016 44.6119L454.141 64.2994C453.998 64.6572 453.963 65.0492 454.041 65.4267C454.118 65.8042 454.305 66.1507 454.577 66.4232C454.85 66.6957 455.196 66.8822 455.574 66.9597C455.951 67.0371 456.343 67.002 456.701 66.8588L476.388 58.9838C476.636 58.8857 476.861 58.7383 477.05 58.5507L477.751 57.8498V57.8459Z" fill="#262524"/>
</svg>
